G04 #@! TF.FileFunction,Copper,L1,Top,Signal*
%FSLAX46Y46*%
G04 Gerber Fmt 4.6, Leading zero omitted, Abs format (unit mm)*
G04 Created by KiCad (PCBNEW (2015-09-15 BZR 13, Git 37c8462)-brewed_product) date Thursday, 17 September 2015 'pmt' 19:10:14*
%MOMM*%
G01*
G04 APERTURE LIST*
%ADD10C,0.020000*%
%ADD11C,0.609600*%
%ADD12R,0.600000X0.400000*%
%ADD13R,0.400000X0.600000*%
%ADD14R,1.250000X0.600000*%
%ADD15R,0.800000X0.600000*%
%ADD16R,1.798320X5.699760*%
%ADD17R,5.699760X1.798320*%
%ADD18C,1.041400*%
%ADD19R,1.000000X1.200000*%
%ADD20R,1.200000X1.000000*%
%ADD21R,0.990000X0.405000*%
%ADD22R,1.725000X0.990000*%
%ADD23R,0.760000X0.405000*%
%ADD24R,0.550000X0.600000*%
%ADD25R,0.600000X0.550000*%
%ADD26R,0.599440X0.248920*%
%ADD27R,0.248920X0.599440*%
%ADD28R,5.150000X5.150000*%
%ADD29C,0.700000*%
%ADD30O,5.000000X0.600000*%
%ADD31O,5.000000X0.300000*%
%ADD32O,1.000000X0.800000*%
%ADD33C,0.635000*%
%ADD34C,0.685800*%
%ADD35C,0.200000*%
%ADD36C,0.152400*%
%ADD37C,0.250000*%
%ADD38C,0.300000*%
G04 APERTURE END LIST*
D10*
D11*
X138500000Y-95400000D03*
X138500000Y-94400000D03*
X138500000Y-93400000D03*
X138500000Y-92400000D03*
X138500000Y-106100000D03*
X138500000Y-105100000D03*
X138500000Y-104100000D03*
X138500000Y-103100000D03*
X138500000Y-102100000D03*
X131950000Y-102725000D03*
X132300000Y-102000000D03*
X133300000Y-94300000D03*
X134100000Y-94300000D03*
X130000000Y-91700000D03*
X127500000Y-91700000D03*
X133400000Y-98725000D03*
X134150000Y-98750000D03*
X134200000Y-103000000D03*
X133200000Y-103000000D03*
X121900000Y-95000000D03*
X121100000Y-95000000D03*
X122700000Y-95000000D03*
X122800000Y-102000000D03*
X122000000Y-102000000D03*
X121200000Y-102000000D03*
X143900000Y-98500000D03*
X143900000Y-99900000D03*
X143500000Y-99200000D03*
X143100000Y-99900000D03*
X142300000Y-99900000D03*
X141500000Y-99900000D03*
X141900000Y-99200000D03*
X142700000Y-99200000D03*
X143100000Y-98500000D03*
X142300000Y-98500000D03*
X141500000Y-98500000D03*
D12*
X133700000Y-97550000D03*
X133700000Y-96750000D03*
X133700000Y-100625000D03*
X133700000Y-99825000D03*
X123750000Y-94800000D03*
X123750000Y-94000000D03*
X123700000Y-102300000D03*
X123700000Y-103100000D03*
D13*
X133300000Y-91900000D03*
X134100000Y-91900000D03*
D12*
X131650000Y-104200000D03*
X131650000Y-103400000D03*
D13*
X124400000Y-92000000D03*
X123600000Y-92000000D03*
D12*
X125100000Y-104800000D03*
X125100000Y-104000000D03*
D14*
X133600000Y-95100000D03*
X133600000Y-93300000D03*
X133600000Y-102050000D03*
X133600000Y-103850000D03*
X122050000Y-97750000D03*
X122050000Y-95950000D03*
X122050000Y-99300000D03*
X122050000Y-101100000D03*
X144900000Y-95500000D03*
X144900000Y-97300000D03*
X142750000Y-103100000D03*
X142750000Y-101300000D03*
X142750000Y-95500000D03*
X142750000Y-97300000D03*
X144900000Y-103100000D03*
X144900000Y-101300000D03*
D15*
X121800000Y-92850000D03*
X121800000Y-94150000D03*
X121800000Y-104200000D03*
X121800000Y-102900000D03*
D12*
X128850000Y-92350000D03*
X128850000Y-93150000D03*
X127550000Y-93450000D03*
X127550000Y-92650000D03*
D16*
X140550000Y-93250000D03*
X135851000Y-93250000D03*
X140549500Y-104150000D03*
X135850500Y-104150000D03*
D17*
X116950000Y-91850500D03*
X116950000Y-96549500D03*
X117000000Y-106199000D03*
X117000000Y-101500000D03*
D18*
X127950000Y-109000000D03*
D19*
X130950000Y-108300000D03*
D18*
X129450000Y-109000000D03*
X130950000Y-109000000D03*
X126450000Y-109000000D03*
X124950000Y-109000000D03*
X123450000Y-109000000D03*
D19*
X129450000Y-108300000D03*
X127950000Y-108300000D03*
X126450000Y-108300000D03*
X124950000Y-108300000D03*
X123450000Y-108300000D03*
D20*
X112200000Y-104500000D03*
D18*
X111500000Y-106000000D03*
X111500000Y-104500000D03*
D20*
X112200000Y-106000000D03*
X112200000Y-92500000D03*
D18*
X111500000Y-94000000D03*
X111500000Y-92500000D03*
D20*
X112200000Y-94000000D03*
D19*
X123500000Y-90200000D03*
D18*
X122000000Y-89500000D03*
X123500000Y-89500000D03*
D19*
X122000000Y-90200000D03*
D20*
X145300000Y-100000000D03*
D18*
X146000000Y-98500000D03*
X146000000Y-100000000D03*
D20*
X145300000Y-98500000D03*
D19*
X113000000Y-108300000D03*
D18*
X114500000Y-109000000D03*
X113000000Y-109000000D03*
D19*
X114500000Y-108300000D03*
X114500000Y-90200000D03*
D18*
X113000000Y-89500000D03*
X114500000Y-89500000D03*
D19*
X113000000Y-90200000D03*
D20*
X145300000Y-106000000D03*
D18*
X146000000Y-104500000D03*
X146000000Y-106000000D03*
D20*
X145300000Y-104500000D03*
X145300000Y-94000000D03*
D18*
X146000000Y-92500000D03*
X146000000Y-94000000D03*
D20*
X145300000Y-92500000D03*
D19*
X144500000Y-90200000D03*
D18*
X143000000Y-89500000D03*
X144500000Y-89500000D03*
D19*
X143000000Y-90200000D03*
X143000000Y-108300000D03*
D18*
X144500000Y-109000000D03*
X143000000Y-109000000D03*
D19*
X144500000Y-108300000D03*
D20*
X112200000Y-98500000D03*
D18*
X111500000Y-100000000D03*
X111500000Y-98500000D03*
D20*
X112200000Y-100000000D03*
D19*
X132450000Y-108300000D03*
D18*
X132450000Y-109000000D03*
D21*
X138592500Y-99747500D03*
X138592500Y-99087500D03*
X138592500Y-98427500D03*
X138592500Y-97767500D03*
D22*
X136600000Y-99365000D03*
X136600000Y-98150000D03*
D23*
X135722500Y-97767500D03*
X135722500Y-98427500D03*
X135722500Y-99087500D03*
X135722500Y-99747500D03*
D24*
X140865000Y-97150000D03*
X140035000Y-97150000D03*
D25*
X140450000Y-99585000D03*
X140450000Y-100415000D03*
X131700000Y-91785000D03*
X131700000Y-92615000D03*
X130250000Y-103335000D03*
X130250000Y-104165000D03*
X126000000Y-92815000D03*
X126000000Y-91985000D03*
X126450000Y-103985000D03*
X126450000Y-104815000D03*
D24*
X129730000Y-90600000D03*
X128900000Y-90600000D03*
X131830000Y-105500000D03*
X131000000Y-105500000D03*
X126885000Y-90600000D03*
X127715000Y-90600000D03*
D25*
X123450000Y-105665000D03*
X123450000Y-104835000D03*
D24*
X131915000Y-90600000D03*
X131085000Y-90600000D03*
X133915000Y-105200000D03*
X133085000Y-105200000D03*
X124885000Y-90700000D03*
X125715000Y-90700000D03*
D25*
X121700000Y-106600000D03*
X121700000Y-105770000D03*
X130200000Y-92585000D03*
X130200000Y-93415000D03*
D26*
X125101480Y-95751720D03*
X125101480Y-96252100D03*
X125101480Y-96752480D03*
X125101480Y-97252860D03*
X125101480Y-97750700D03*
X125101480Y-98251080D03*
X125101480Y-98751460D03*
X125101480Y-99251840D03*
X125101480Y-99752220D03*
X125101480Y-100252600D03*
X125101480Y-100752980D03*
X125101480Y-101250820D03*
X131898520Y-97247780D03*
X131898520Y-96749940D03*
X131898520Y-96249560D03*
X131898520Y-95749180D03*
D27*
X127750700Y-101901060D03*
X128250000Y-101900000D03*
X128748920Y-101901060D03*
X129249300Y-101901060D03*
X129749680Y-101901060D03*
X130250060Y-101901060D03*
X130750440Y-101901060D03*
X131250820Y-101901060D03*
X125751720Y-101901060D03*
X126252100Y-101901060D03*
X126752480Y-101901060D03*
X127250320Y-101901060D03*
D26*
X131898520Y-101248280D03*
X131901060Y-100747900D03*
X131901060Y-100250060D03*
X131901060Y-99749680D03*
X131901060Y-99249300D03*
X131901060Y-98748920D03*
X131901060Y-98248540D03*
X131901060Y-97748160D03*
D27*
X131250820Y-95101480D03*
X130750440Y-95101480D03*
X130250060Y-95101480D03*
X129752220Y-95101480D03*
X129251840Y-95101480D03*
X128751460Y-95101480D03*
X128251080Y-95101480D03*
X127750700Y-95101480D03*
X127250320Y-95101480D03*
X126749940Y-95101480D03*
X126252100Y-95101480D03*
X125751720Y-95101480D03*
D28*
X128500000Y-98500000D03*
D29*
X128500000Y-98500000D03*
X129500000Y-98500000D03*
X130500000Y-98500000D03*
X130500000Y-97500000D03*
X130500000Y-96500000D03*
X129500000Y-96500000D03*
X129500000Y-97500000D03*
X128500000Y-97500000D03*
X128500000Y-96500000D03*
X127500000Y-96500000D03*
X127500000Y-97500000D03*
X126500000Y-96500000D03*
X126500000Y-97500000D03*
X126500000Y-98500000D03*
X127500000Y-98500000D03*
X126500000Y-99500000D03*
X126500000Y-100500000D03*
X127500000Y-100500000D03*
X127500000Y-99500000D03*
X128500000Y-99500000D03*
X128500000Y-100500000D03*
X129500000Y-100500000D03*
X129500000Y-99500000D03*
X130500000Y-99500000D03*
X130500000Y-100500000D03*
D30*
X128500000Y-97000000D03*
X128500000Y-98000000D03*
X128500000Y-99000000D03*
X128500000Y-100000000D03*
D31*
X128500000Y-96150000D03*
X128500000Y-100850000D03*
D32*
X128000000Y-97000000D03*
X128000000Y-98000000D03*
X129000000Y-97000000D03*
X129000000Y-98000000D03*
X129000000Y-99000000D03*
X128000000Y-99000000D03*
X128000000Y-100000000D03*
X129000000Y-100000000D03*
X127000000Y-100000000D03*
X127000000Y-99000000D03*
X127000000Y-98000000D03*
X127000000Y-97000000D03*
X130000000Y-97000000D03*
X130000000Y-98000000D03*
X130000000Y-99000000D03*
X130000000Y-100000000D03*
D33*
X130000000Y-105300000D03*
D34*
X122100000Y-91800000D03*
X133900000Y-90800000D03*
X132200000Y-93900000D03*
X125100000Y-102800000D03*
X123700000Y-103900000D03*
D33*
X129792231Y-106100000D03*
D34*
X130900000Y-102700000D03*
X132602676Y-91875636D03*
X125200000Y-92000000D03*
X128200000Y-94400000D03*
X138650000Y-100700000D03*
X134700000Y-99550000D03*
X138593658Y-96875894D03*
X134700000Y-98050000D03*
D11*
X124293294Y-105131580D03*
X125232806Y-106217908D03*
D35*
X131901060Y-97748160D02*
X133501840Y-97748160D01*
X133501840Y-97748160D02*
X133700000Y-97550000D01*
X131901060Y-99749680D02*
X133699680Y-99749680D01*
X133699680Y-99749680D02*
X133700000Y-99750000D01*
X123750000Y-94800000D02*
X123750000Y-95350000D01*
X123750000Y-95350000D02*
X124151720Y-95751720D01*
X124151720Y-95751720D02*
X125101480Y-95751720D01*
D36*
X120300000Y-95700000D02*
X120000720Y-95700000D01*
X120000720Y-95700000D02*
X118900720Y-96800000D01*
X118900720Y-96800000D02*
X116950000Y-96800000D01*
X120300000Y-94104800D02*
X120300000Y-95700000D01*
X120902400Y-93502400D02*
X120300000Y-94104800D01*
X122800000Y-93502400D02*
X120902400Y-93502400D01*
X123750000Y-94000000D02*
X123297600Y-94000000D01*
X123297600Y-94000000D02*
X122800000Y-93502400D01*
D37*
X125101480Y-96752480D02*
X116997520Y-96752480D01*
X116997520Y-96752480D02*
X116950000Y-96800000D01*
X123750000Y-101800000D02*
X124299180Y-101250820D01*
X124299180Y-101250820D02*
X125101480Y-101250820D01*
X123750000Y-102250000D02*
X123750000Y-101800000D01*
D36*
X123750000Y-103050000D02*
X123650000Y-103050000D01*
X123650000Y-103050000D02*
X123150000Y-103550000D01*
X123150000Y-103550000D02*
X120800000Y-103550000D01*
X120250000Y-103000000D02*
X120250000Y-101500000D01*
X120800000Y-103550000D02*
X120250000Y-103000000D01*
X120250000Y-101500000D02*
X120200220Y-101500000D01*
X120200220Y-101500000D02*
X118950720Y-100250500D01*
X118950720Y-100250500D02*
X117000000Y-100250500D01*
D37*
X125101480Y-100252600D02*
X117002100Y-100252600D01*
X117002100Y-100252600D02*
X117000000Y-100250500D01*
D35*
X133450000Y-91700714D02*
X133450000Y-92000000D01*
X131715225Y-91772757D02*
X131715225Y-91732212D01*
X131715225Y-91732212D02*
X132318943Y-91128494D01*
X132877780Y-91128494D02*
X133450000Y-91700714D01*
X132318943Y-91128494D02*
X132877780Y-91128494D01*
D36*
X128900000Y-92032998D02*
X128947819Y-91985179D01*
X128947819Y-91985179D02*
X129366499Y-91566499D01*
X128850000Y-92350000D02*
X128850000Y-91997600D01*
X128850000Y-91997600D02*
X128862421Y-91985179D01*
X128862421Y-91985179D02*
X128947819Y-91985179D01*
D35*
X128900000Y-91100000D02*
X129366499Y-91566499D01*
X129366499Y-91566499D02*
X129500000Y-91700000D01*
X141804799Y-97295201D02*
X141659598Y-97150000D01*
X141659598Y-97150000D02*
X140865000Y-97150000D01*
X141500000Y-98500000D02*
X141804799Y-98195201D01*
X141804799Y-98195201D02*
X141804799Y-97295201D01*
X141500000Y-99900000D02*
X141185000Y-99585000D01*
X141185000Y-99585000D02*
X140450000Y-99585000D01*
X131650000Y-103400000D02*
X132200000Y-103400000D01*
X132200000Y-103400000D02*
X132600000Y-103000000D01*
X132600000Y-103000000D02*
X133200000Y-103000000D01*
X130200000Y-105500000D02*
X130000000Y-105300000D01*
X131000000Y-105500000D02*
X130200000Y-105500000D01*
X123600000Y-92000000D02*
X122300000Y-92000000D01*
X122300000Y-92000000D02*
X122100000Y-91800000D01*
D38*
X133600000Y-93300000D02*
X132800000Y-93300000D01*
X132800000Y-93300000D02*
X132200000Y-93900000D01*
X134100000Y-91900000D02*
X134100000Y-91000000D01*
X134100000Y-91000000D02*
X133900000Y-90800000D01*
X133600000Y-93300000D02*
X134100000Y-92800000D01*
X134100000Y-92800000D02*
X134100000Y-91900000D01*
D35*
X126252100Y-95101480D02*
X126252100Y-96252100D01*
X126252100Y-96252100D02*
X126500000Y-96500000D01*
X130750440Y-95101480D02*
X130750440Y-96249560D01*
X130750440Y-96249560D02*
X130500000Y-96500000D01*
X134127711Y-91924741D02*
X134127711Y-91976898D01*
X126252100Y-95101480D02*
X126252100Y-94809320D01*
X128900000Y-90600000D02*
X128900000Y-91100000D01*
X127550000Y-92650000D02*
X127550000Y-92350000D01*
X127550000Y-92350000D02*
X128200000Y-91700000D01*
X127715000Y-90600000D02*
X127715000Y-91215000D01*
X127715000Y-91215000D02*
X128200000Y-91700000D01*
X125100000Y-104000000D02*
X125100000Y-102800000D01*
X123450000Y-104835000D02*
X123450000Y-104150000D01*
X123450000Y-104150000D02*
X123700000Y-103900000D01*
X126247020Y-100752980D02*
X126500000Y-100500000D01*
X131901060Y-98748920D02*
X130748920Y-98748920D01*
X130748920Y-98748920D02*
X130500000Y-98500000D01*
X131901060Y-98748920D02*
X132848920Y-98748920D01*
X130200000Y-92585000D02*
X130200000Y-92110000D01*
D37*
X125101480Y-100752980D02*
X122397020Y-100752980D01*
X122397020Y-100752980D02*
X122050000Y-101100000D01*
X125101480Y-96252100D02*
X122352100Y-96252100D01*
X122352100Y-96252100D02*
X122050000Y-95950000D01*
D35*
X130250000Y-104165000D02*
X131615000Y-104165000D01*
X131615000Y-104165000D02*
X131650000Y-104200000D01*
X126000000Y-91510000D02*
X126000000Y-91985000D01*
X125894698Y-91404698D02*
X126000000Y-91510000D01*
X124914254Y-91404698D02*
X125894698Y-91404698D01*
X124600000Y-91718952D02*
X124914254Y-91404698D01*
X124600000Y-92000000D02*
X124600000Y-91718952D01*
X125100000Y-104800000D02*
X126435000Y-104800000D01*
X126435000Y-104800000D02*
X126450000Y-104815000D01*
X145300000Y-92500000D02*
X145300000Y-94000000D01*
X131915000Y-90600000D02*
X132390000Y-90600000D01*
X145300000Y-91700000D02*
X145300000Y-92500000D01*
X132390000Y-90600000D02*
X132890000Y-90100000D01*
X142100000Y-90100000D02*
X142100000Y-91300000D01*
X132890000Y-90100000D02*
X142100000Y-90100000D01*
X142100000Y-91300000D02*
X142300000Y-91500000D01*
X142300000Y-91500000D02*
X145100000Y-91500000D01*
X145100000Y-91500000D02*
X145300000Y-91700000D01*
X140550000Y-93250000D02*
X140550000Y-91299280D01*
X141775000Y-107500000D02*
X139450220Y-107500000D01*
X139450220Y-107500000D02*
X138950220Y-108000000D01*
X141925000Y-107350000D02*
X141775000Y-107500000D01*
X142391356Y-107350000D02*
X141925000Y-107350000D01*
X142445678Y-107295678D02*
X142391356Y-107350000D01*
X142445678Y-107300000D02*
X142445678Y-107295678D01*
X144725000Y-107275000D02*
X142470678Y-107275000D01*
X142470678Y-107275000D02*
X142445678Y-107300000D01*
X145300000Y-106000000D02*
X145300000Y-106700000D01*
X145300000Y-106700000D02*
X144725000Y-107275000D01*
X136065000Y-108000000D02*
X136065000Y-107500000D01*
X136065000Y-107500000D02*
X135915000Y-107350000D01*
X135915000Y-107350000D02*
X134542204Y-107350000D01*
X134400000Y-105200000D02*
X133915000Y-105200000D01*
X134542204Y-107350000D02*
X134500000Y-107307796D01*
X134500000Y-107307796D02*
X134500000Y-105300000D01*
X134500000Y-105300000D02*
X134400000Y-105200000D01*
X136065000Y-108000000D02*
X138950220Y-108000000D01*
X140849500Y-106100720D02*
X140849500Y-104150000D01*
X134015000Y-105225000D02*
X134015000Y-105200000D01*
D36*
X120700000Y-90100000D02*
X113100000Y-90100000D01*
X113100000Y-90100000D02*
X113000000Y-90200000D01*
X120900000Y-90300000D02*
X120700000Y-90100000D01*
X120900000Y-90800000D02*
X120900000Y-90300000D01*
X121300000Y-91200000D02*
X120900000Y-90800000D01*
X124200000Y-91200000D02*
X121300000Y-91200000D01*
X124700000Y-90700000D02*
X124200000Y-91200000D01*
X124885000Y-90700000D02*
X124700000Y-90700000D01*
D35*
X124885000Y-90700000D02*
X124885000Y-90725000D01*
X119999880Y-91850500D02*
X116950000Y-91850500D01*
X113900120Y-92101000D02*
X116950000Y-92101000D01*
D36*
X121700000Y-106600000D02*
X120973661Y-106600000D01*
X120973661Y-106600000D02*
X119273661Y-108300000D01*
X119273661Y-108300000D02*
X113000000Y-108300000D01*
D35*
X117000000Y-104949500D02*
X117000000Y-106048660D01*
X117000000Y-106048660D02*
X114748660Y-108300000D01*
X114748660Y-108300000D02*
X114500000Y-108300000D01*
X118950720Y-104949500D02*
X117000000Y-104949500D01*
D38*
X117000000Y-106148660D02*
X117000000Y-104949500D01*
D35*
X128250000Y-101900000D02*
X128250000Y-102906544D01*
X128250000Y-102906544D02*
X127830098Y-103326446D01*
X127730099Y-106567491D02*
X126450000Y-107847590D01*
X127730098Y-104226446D02*
X127730099Y-106567491D01*
X127830098Y-104126446D02*
X127730098Y-104226446D01*
X127830098Y-103326446D02*
X127830098Y-104126446D01*
X128748920Y-101901060D02*
X128748920Y-103105464D01*
X128748920Y-103105464D02*
X128969902Y-103326446D01*
X128869901Y-103973555D02*
X128869901Y-106927689D01*
X128969902Y-103873554D02*
X128869901Y-103973555D01*
X128869901Y-106927689D02*
X127950000Y-107847590D01*
X128969902Y-103326446D02*
X128969902Y-103873554D01*
X127021519Y-105730099D02*
X124904028Y-107847590D01*
X127377688Y-104080472D02*
X127377688Y-105380474D01*
X127028063Y-105730099D02*
X127021519Y-105730099D01*
X127377688Y-105380474D02*
X127028063Y-105730099D01*
X127750700Y-101901060D02*
X127750700Y-102907460D01*
X127750700Y-102907460D02*
X127477687Y-103180473D01*
X127477687Y-103980473D02*
X127377688Y-104080472D01*
X127477687Y-103180473D02*
X127477687Y-103980473D01*
X129322312Y-104019528D02*
X129222312Y-104119528D01*
X129222312Y-107875329D02*
X129249300Y-107902317D01*
X129322312Y-102473792D02*
X129322312Y-104019528D01*
X129249300Y-102400780D02*
X129322312Y-102473792D01*
X129249300Y-101901060D02*
X129249300Y-102400780D01*
X129222312Y-104119528D02*
X129222312Y-107875329D01*
D36*
X126252100Y-101448940D02*
X126330473Y-101370567D01*
X126330473Y-101370567D02*
X126397439Y-101303601D01*
X125751720Y-95101480D02*
X125751720Y-95553600D01*
X125751720Y-95553600D02*
X125696399Y-95608921D01*
X125696399Y-95608921D02*
X125696399Y-101257881D01*
X125696399Y-101257881D02*
X125809085Y-101370567D01*
X125809085Y-101370567D02*
X126330473Y-101370567D01*
X126252100Y-101901060D02*
X126252100Y-101448940D01*
X126397439Y-101303601D02*
X130750440Y-101303601D01*
X130750440Y-101303601D02*
X130750440Y-101901060D01*
D35*
X132450000Y-108200000D02*
X130350000Y-106100000D01*
X130350000Y-106100000D02*
X129792231Y-106100000D01*
X132450000Y-108300000D02*
X132450000Y-108200000D01*
D36*
X130750440Y-101901060D02*
X130750440Y-102550440D01*
X130750440Y-102550440D02*
X130900000Y-102700000D01*
X132602676Y-92651500D02*
X131805162Y-93449014D01*
X131805162Y-93449014D02*
X131349014Y-93449014D01*
X132602676Y-92360569D02*
X132602676Y-92651500D01*
X131400000Y-94200000D02*
X131400000Y-93500000D01*
X131400000Y-93500000D02*
X131349014Y-93449014D01*
X131250820Y-94349180D02*
X131400000Y-94200000D01*
X131250820Y-94608057D02*
X131250820Y-94349180D01*
D35*
X131250820Y-95101480D02*
X131250820Y-94608057D01*
X132602676Y-92360569D02*
X132602676Y-91875636D01*
X125200000Y-93300000D02*
X125200000Y-92000000D01*
X124600000Y-93900000D02*
X125200000Y-93300000D01*
X124600000Y-94500000D02*
X124600000Y-93900000D01*
X125201480Y-95101480D02*
X124600000Y-94500000D01*
X125751720Y-95101480D02*
X125201480Y-95101480D01*
X127750700Y-95101480D02*
X127750700Y-94735762D01*
X127750700Y-94735762D02*
X127750700Y-93700700D01*
X128200000Y-94400000D02*
X127857101Y-94742899D01*
X127857101Y-94742899D02*
X127757837Y-94742899D01*
X127757837Y-94742899D02*
X127750700Y-94735762D01*
X127750700Y-93700700D02*
X127650000Y-93600000D01*
X127750700Y-95101480D02*
X128251080Y-95101480D01*
X125751720Y-95101480D02*
X125751720Y-94926220D01*
X131901060Y-99249300D02*
X131962071Y-99310311D01*
X131962071Y-99310311D02*
X134460311Y-99310311D01*
X134460311Y-99310311D02*
X134700000Y-99550000D01*
X139665000Y-100700000D02*
X138650000Y-100700000D01*
X139950000Y-100415000D02*
X139665000Y-100700000D01*
X140450000Y-100415000D02*
X139950000Y-100415000D01*
X137750000Y-100284933D02*
X137750000Y-99235000D01*
X137750000Y-99235000D02*
X137897500Y-99087500D01*
X137897500Y-99087500D02*
X138592500Y-99087500D01*
X138650000Y-100700000D02*
X138165067Y-100700000D01*
X138165067Y-100700000D02*
X137750000Y-100284933D01*
X138605000Y-99100000D02*
X138592500Y-99087500D01*
X131901060Y-98248540D02*
X131983549Y-98166051D01*
X131983549Y-98166051D02*
X134583949Y-98166051D01*
X134583949Y-98166051D02*
X134700000Y-98050000D01*
X140035000Y-96900000D02*
X138617764Y-96900000D01*
X138617764Y-96900000D02*
X138593658Y-96875894D01*
X138592500Y-96877052D02*
X138593658Y-96875894D01*
X138592500Y-97767500D02*
X138592500Y-96877052D01*
D36*
X131044204Y-94041368D02*
X131044204Y-93110991D01*
X130250060Y-94835512D02*
X131044204Y-94041368D01*
X130250060Y-95101480D02*
X130250060Y-94835512D01*
X131532749Y-92622446D02*
X131691177Y-92622446D01*
X131044204Y-93110991D02*
X131532749Y-92622446D01*
D35*
X130250000Y-103335000D02*
X130250000Y-102860000D01*
X130250000Y-102860000D02*
X130250060Y-102859940D01*
X130250060Y-102859940D02*
X130250060Y-102797222D01*
X130198811Y-102745973D02*
X130198811Y-102454027D01*
X130250060Y-102797222D02*
X130198811Y-102745973D01*
X130198811Y-102454027D02*
X130250060Y-102402778D01*
X130250060Y-102402778D02*
X130250060Y-101901060D01*
X126350000Y-93140000D02*
X126350000Y-94201820D01*
X126350000Y-94201820D02*
X126749940Y-94601760D01*
X126749940Y-94601760D02*
X126749940Y-95101480D01*
X126000000Y-92815000D02*
X126025000Y-92815000D01*
X126025000Y-92815000D02*
X126350000Y-93140000D01*
X126772865Y-103437135D02*
X126772865Y-102888527D01*
X126895301Y-102766091D02*
X126895301Y-102543601D01*
X126895301Y-102543601D02*
X126752480Y-102400780D01*
X126772865Y-102888527D02*
X126895301Y-102766091D01*
X126752480Y-102400780D02*
X126752480Y-101901060D01*
X126450000Y-103760000D02*
X126772865Y-103437135D01*
D36*
X129752220Y-94773062D02*
X130739393Y-93785889D01*
X129752220Y-95101480D02*
X129752220Y-94773062D01*
X130739393Y-93785889D02*
X130739393Y-91102277D01*
X130739393Y-91102277D02*
X130937208Y-90904462D01*
D35*
X131085000Y-90600000D02*
X131085000Y-90756670D01*
X131085000Y-90756670D02*
X130937208Y-90904462D01*
X129730000Y-90600000D02*
X131085000Y-90600000D01*
X131395098Y-104730098D02*
X131515000Y-104850000D01*
X129805822Y-104730098D02*
X131395098Y-104730098D01*
X129674722Y-104598998D02*
X129805822Y-104730098D01*
X129749680Y-102400780D02*
X129674722Y-102475738D01*
X129749680Y-101901060D02*
X129749680Y-102400780D01*
X129674722Y-102475738D02*
X129674722Y-104598998D01*
X132450000Y-104940000D02*
X131605000Y-104940000D01*
X131605000Y-104940000D02*
X131515000Y-104850000D01*
X133185000Y-105200000D02*
X132710000Y-105200000D01*
X132710000Y-105200000D02*
X132450000Y-104940000D01*
X131515000Y-104850000D02*
X131715000Y-105050000D01*
X131715000Y-105050000D02*
X131715000Y-105550000D01*
X125715000Y-90700000D02*
X126785000Y-90700000D01*
X126785000Y-90700000D02*
X126885000Y-90600000D01*
X126900000Y-91368615D02*
X126885000Y-91353615D01*
X126885000Y-91353615D02*
X126885000Y-90600000D01*
X126900000Y-91368615D02*
X126900000Y-94251440D01*
X126900000Y-94251440D02*
X127250320Y-94601760D01*
X127250320Y-94601760D02*
X127250320Y-95101480D01*
X126882090Y-105377688D02*
X125259997Y-105377688D01*
X127250320Y-102909456D02*
X127125276Y-103034500D01*
X127025277Y-105234501D02*
X126882090Y-105377688D01*
X125259997Y-105377688D02*
X125052973Y-105584712D01*
X127025277Y-103934499D02*
X127025277Y-105234501D01*
X127125276Y-103834500D02*
X127025277Y-103934499D01*
X127125276Y-103034500D02*
X127125276Y-103834500D01*
X127250320Y-101901060D02*
X127250320Y-102909456D01*
D36*
X122892400Y-106092400D02*
X122570000Y-105770000D01*
X122570000Y-105770000D02*
X121700000Y-105770000D01*
X123450000Y-106092400D02*
X122892400Y-106092400D01*
X125052973Y-105584712D02*
X124972685Y-105665000D01*
X124972685Y-105665000D02*
X123450000Y-105665000D01*
X123450000Y-106092400D02*
X123450000Y-105665000D01*
D35*
X129920274Y-93415000D02*
X130200000Y-93415000D01*
X129251840Y-94083434D02*
X129920274Y-93415000D01*
X129251840Y-95101480D02*
X129251840Y-94083434D01*
X123450000Y-108300000D02*
X123450000Y-108000714D01*
X123450000Y-108000714D02*
X125232806Y-106217908D01*
X125117892Y-101901060D02*
X124333323Y-102685629D01*
X125751720Y-101901060D02*
X125117892Y-101901060D01*
X124293294Y-104700528D02*
X124293294Y-105131580D01*
X124333323Y-104660499D02*
X124293294Y-104700528D01*
X124333323Y-102685629D02*
X124333323Y-104660499D01*
D37*
X134100000Y-94300000D02*
X134100000Y-94600000D01*
X134100000Y-94600000D02*
X133600000Y-95100000D01*
X133300000Y-94300000D02*
X133300000Y-94800000D01*
X133300000Y-94800000D02*
X133600000Y-95100000D01*
X132588876Y-95100000D02*
X132855065Y-95100000D01*
X132223240Y-95100000D02*
X132588876Y-95100000D01*
X132588876Y-95100000D02*
X133600000Y-95100000D01*
D35*
X133600000Y-95100000D02*
X132855065Y-95100000D01*
D37*
X131898520Y-96249560D02*
X131898520Y-95749180D01*
X131900000Y-95747700D02*
X131898520Y-95749180D01*
D35*
X132223240Y-95100000D02*
X132200000Y-95123240D01*
X132300000Y-102000000D02*
X132300000Y-102375000D01*
X132300000Y-102375000D02*
X131950000Y-102725000D01*
X131898520Y-101248280D02*
X131898520Y-101598520D01*
X131898520Y-101598520D02*
X132300000Y-102000000D01*
D37*
X125101480Y-97252860D02*
X122547140Y-97252860D01*
X122547140Y-97252860D02*
X122050000Y-97750000D01*
X125101480Y-99752220D02*
X122502220Y-99752220D01*
X122502220Y-99752220D02*
X122050000Y-99300000D01*
X122050000Y-99211632D02*
X122050000Y-99150000D01*
D36*
X128850000Y-94600000D02*
X128800820Y-94600000D01*
X128800820Y-94600000D02*
X128751460Y-94649360D01*
X128751460Y-94649360D02*
X128751460Y-95101480D01*
X128850000Y-93150000D02*
X128850000Y-94600000D01*
G36*
X127823800Y-91200000D02*
X127829803Y-91229646D01*
X127846868Y-91254621D01*
X127872305Y-91270989D01*
X127900000Y-91276200D01*
X128650000Y-91276200D01*
X128679646Y-91270197D01*
X128704621Y-91253132D01*
X128720989Y-91227695D01*
X128726200Y-91200000D01*
X128726200Y-90776200D01*
X129023800Y-90776200D01*
X129023800Y-91150000D01*
X129029803Y-91179646D01*
X129046868Y-91204621D01*
X129072305Y-91220989D01*
X129100000Y-91226200D01*
X130423800Y-91226200D01*
X130423800Y-92573800D01*
X129976200Y-92573800D01*
X129976200Y-92150000D01*
X129970197Y-92120354D01*
X129953132Y-92095379D01*
X129927695Y-92079011D01*
X129900000Y-92073800D01*
X129150000Y-92073800D01*
X129120354Y-92079803D01*
X129095379Y-92096868D01*
X129079011Y-92122305D01*
X129073800Y-92150000D01*
X129073800Y-92423800D01*
X128626200Y-92423800D01*
X128626200Y-92150000D01*
X128620197Y-92120354D01*
X128603132Y-92095379D01*
X128577695Y-92079011D01*
X128550000Y-92073800D01*
X127850000Y-92073800D01*
X127820354Y-92079803D01*
X127795379Y-92096868D01*
X127779011Y-92122305D01*
X127773800Y-92150000D01*
X127773800Y-92423800D01*
X127326200Y-92423800D01*
X127326200Y-91276200D01*
X127500000Y-91276200D01*
X127529646Y-91270197D01*
X127554621Y-91253132D01*
X127570989Y-91227695D01*
X127576200Y-91200000D01*
X127576200Y-90776200D01*
X127823800Y-90776200D01*
X127823800Y-91200000D01*
X127823800Y-91200000D01*
G37*
X127823800Y-91200000D02*
X127829803Y-91229646D01*
X127846868Y-91254621D01*
X127872305Y-91270989D01*
X127900000Y-91276200D01*
X128650000Y-91276200D01*
X128679646Y-91270197D01*
X128704621Y-91253132D01*
X128720989Y-91227695D01*
X128726200Y-91200000D01*
X128726200Y-90776200D01*
X129023800Y-90776200D01*
X129023800Y-91150000D01*
X129029803Y-91179646D01*
X129046868Y-91204621D01*
X129072305Y-91220989D01*
X129100000Y-91226200D01*
X130423800Y-91226200D01*
X130423800Y-92573800D01*
X129976200Y-92573800D01*
X129976200Y-92150000D01*
X129970197Y-92120354D01*
X129953132Y-92095379D01*
X129927695Y-92079011D01*
X129900000Y-92073800D01*
X129150000Y-92073800D01*
X129120354Y-92079803D01*
X129095379Y-92096868D01*
X129079011Y-92122305D01*
X129073800Y-92150000D01*
X129073800Y-92423800D01*
X128626200Y-92423800D01*
X128626200Y-92150000D01*
X128620197Y-92120354D01*
X128603132Y-92095379D01*
X128577695Y-92079011D01*
X128550000Y-92073800D01*
X127850000Y-92073800D01*
X127820354Y-92079803D01*
X127795379Y-92096868D01*
X127779011Y-92122305D01*
X127773800Y-92150000D01*
X127773800Y-92423800D01*
X127326200Y-92423800D01*
X127326200Y-91276200D01*
X127500000Y-91276200D01*
X127529646Y-91270197D01*
X127554621Y-91253132D01*
X127570989Y-91227695D01*
X127576200Y-91200000D01*
X127576200Y-90776200D01*
X127823800Y-90776200D01*
X127823800Y-91200000D01*
G36*
X120424840Y-90912862D02*
X120624468Y-92410071D01*
X120634337Y-92438663D01*
X120654553Y-92461164D01*
X120681930Y-92474026D01*
X120702064Y-92476172D01*
X122468990Y-92428293D01*
X122468990Y-93197600D01*
X120902400Y-93197600D01*
X120785758Y-93220802D01*
X120781271Y-93223800D01*
X113619128Y-93223800D01*
X113576165Y-91797705D01*
X113569272Y-91768254D01*
X113551463Y-91743804D01*
X113525545Y-91728209D01*
X113500000Y-91723800D01*
X111981837Y-91723800D01*
X112070951Y-90476200D01*
X120333307Y-90476200D01*
X120424840Y-90912862D01*
X120424840Y-90912862D01*
G37*
X120424840Y-90912862D02*
X120624468Y-92410071D01*
X120634337Y-92438663D01*
X120654553Y-92461164D01*
X120681930Y-92474026D01*
X120702064Y-92476172D01*
X122468990Y-92428293D01*
X122468990Y-93197600D01*
X120902400Y-93197600D01*
X120785758Y-93220802D01*
X120781271Y-93223800D01*
X113619128Y-93223800D01*
X113576165Y-91797705D01*
X113569272Y-91768254D01*
X113551463Y-91743804D01*
X113525545Y-91728209D01*
X113500000Y-91723800D01*
X111981837Y-91723800D01*
X112070951Y-90476200D01*
X120333307Y-90476200D01*
X120424840Y-90912862D01*
G36*
X123402405Y-96223800D02*
X121076200Y-96223800D01*
X121076200Y-93976200D01*
X122840505Y-93976200D01*
X123402405Y-96223800D01*
X123402405Y-96223800D01*
G37*
X123402405Y-96223800D02*
X121076200Y-96223800D01*
X121076200Y-93976200D01*
X122840505Y-93976200D01*
X123402405Y-96223800D01*
G36*
X120423800Y-97323800D02*
X113576200Y-97323800D01*
X113576200Y-95376200D01*
X120423800Y-95376200D01*
X120423800Y-97323800D01*
X120423800Y-97323800D01*
G37*
X120423800Y-97323800D02*
X113576200Y-97323800D01*
X113576200Y-95376200D01*
X120423800Y-95376200D01*
X120423800Y-97323800D01*
G36*
X122840505Y-103123800D02*
X121076200Y-103123800D01*
X121076200Y-100876200D01*
X123402405Y-100876200D01*
X122840505Y-103123800D01*
X122840505Y-103123800D01*
G37*
X122840505Y-103123800D02*
X121076200Y-103123800D01*
X121076200Y-100876200D01*
X123402405Y-100876200D01*
X122840505Y-103123800D01*
G36*
X120683358Y-103831598D02*
X120800000Y-103854800D01*
X122473800Y-103854800D01*
X122473800Y-104623800D01*
X120300000Y-104623800D01*
X120270354Y-104629803D01*
X120245379Y-104646868D01*
X120229011Y-104672305D01*
X120223800Y-104700000D01*
X120223800Y-106868436D01*
X119168436Y-107923800D01*
X114226200Y-107923800D01*
X114226200Y-103826200D01*
X120675279Y-103826200D01*
X120683358Y-103831598D01*
X120683358Y-103831598D01*
G37*
X120683358Y-103831598D02*
X120800000Y-103854800D01*
X122473800Y-103854800D01*
X122473800Y-104623800D01*
X120300000Y-104623800D01*
X120270354Y-104629803D01*
X120245379Y-104646868D01*
X120229011Y-104672305D01*
X120223800Y-104700000D01*
X120223800Y-106868436D01*
X119168436Y-107923800D01*
X114226200Y-107923800D01*
X114226200Y-103826200D01*
X120675279Y-103826200D01*
X120683358Y-103831598D01*
G36*
X120423800Y-102323800D02*
X114076200Y-102323800D01*
X114076200Y-100176200D01*
X120423800Y-100176200D01*
X120423800Y-102323800D01*
X120423800Y-102323800D01*
G37*
X120423800Y-102323800D02*
X114076200Y-102323800D01*
X114076200Y-100176200D01*
X120423800Y-100176200D01*
X120423800Y-102323800D01*
G36*
X134422349Y-102423800D02*
X132600000Y-102423800D01*
X132570354Y-102429803D01*
X132554280Y-102439040D01*
X132174600Y-102723800D01*
X131471479Y-102723800D01*
X131471599Y-102586820D01*
X131384776Y-102376694D01*
X131224151Y-102215789D01*
X131176200Y-102195878D01*
X131176200Y-101676200D01*
X131600000Y-101676200D01*
X131629646Y-101670197D01*
X131654621Y-101653132D01*
X131670989Y-101627695D01*
X131676200Y-101600000D01*
X131676200Y-101500000D01*
X131675976Y-101494156D01*
X131657287Y-101251200D01*
X134400225Y-101251200D01*
X134422349Y-102423800D01*
X134422349Y-102423800D01*
G37*
X134422349Y-102423800D02*
X132600000Y-102423800D01*
X132570354Y-102429803D01*
X132554280Y-102439040D01*
X132174600Y-102723800D01*
X131471479Y-102723800D01*
X131471599Y-102586820D01*
X131384776Y-102376694D01*
X131224151Y-102215789D01*
X131176200Y-102195878D01*
X131176200Y-101676200D01*
X131600000Y-101676200D01*
X131629646Y-101670197D01*
X131654621Y-101653132D01*
X131670989Y-101627695D01*
X131676200Y-101600000D01*
X131676200Y-101500000D01*
X131675976Y-101494156D01*
X131657287Y-101251200D01*
X134400225Y-101251200D01*
X134422349Y-102423800D01*
G36*
X137373800Y-98573800D02*
X135476200Y-98573800D01*
X135476200Y-97600000D01*
X135470197Y-97570354D01*
X135453132Y-97545379D01*
X135427695Y-97529011D01*
X135400000Y-97523800D01*
X134923030Y-97523800D01*
X134852119Y-97494355D01*
X134253882Y-96896118D01*
X134228673Y-96879401D01*
X134200000Y-96873800D01*
X133250000Y-96873800D01*
X133220354Y-96879803D01*
X133195379Y-96896868D01*
X133179011Y-96922305D01*
X133173800Y-96950000D01*
X133173800Y-96968436D01*
X132868436Y-97273800D01*
X131676200Y-97273800D01*
X131676200Y-96676200D01*
X132450000Y-96676200D01*
X132479646Y-96670197D01*
X132503882Y-96653882D01*
X132781564Y-96376200D01*
X132900000Y-96376200D01*
X132929646Y-96370197D01*
X132953882Y-96353882D01*
X132957764Y-96350000D01*
X133023800Y-96350000D01*
X133023800Y-96550000D01*
X133029803Y-96579646D01*
X133046868Y-96604621D01*
X133072305Y-96620989D01*
X133100000Y-96626200D01*
X134200000Y-96626200D01*
X134229646Y-96620197D01*
X134254621Y-96603132D01*
X134270989Y-96577695D01*
X134276200Y-96550000D01*
X134276200Y-96350000D01*
X134270197Y-96320354D01*
X134253132Y-96295379D01*
X134227695Y-96279011D01*
X134200000Y-96273800D01*
X133100000Y-96273800D01*
X133070354Y-96279803D01*
X133045379Y-96296868D01*
X133029011Y-96322305D01*
X133023800Y-96350000D01*
X132957764Y-96350000D01*
X133081564Y-96226200D01*
X133300000Y-96226200D01*
X133329646Y-96220197D01*
X133353882Y-96203882D01*
X133531564Y-96026200D01*
X135000000Y-96026200D01*
X135029646Y-96020197D01*
X135053882Y-96003882D01*
X135253882Y-95803882D01*
X135270599Y-95778673D01*
X135276197Y-95750706D01*
X135325476Y-90428600D01*
X137373800Y-90428600D01*
X137373800Y-98573800D01*
X137373800Y-98573800D01*
G37*
X137373800Y-98573800D02*
X135476200Y-98573800D01*
X135476200Y-97600000D01*
X135470197Y-97570354D01*
X135453132Y-97545379D01*
X135427695Y-97529011D01*
X135400000Y-97523800D01*
X134923030Y-97523800D01*
X134852119Y-97494355D01*
X134253882Y-96896118D01*
X134228673Y-96879401D01*
X134200000Y-96873800D01*
X133250000Y-96873800D01*
X133220354Y-96879803D01*
X133195379Y-96896868D01*
X133179011Y-96922305D01*
X133173800Y-96950000D01*
X133173800Y-96968436D01*
X132868436Y-97273800D01*
X131676200Y-97273800D01*
X131676200Y-96676200D01*
X132450000Y-96676200D01*
X132479646Y-96670197D01*
X132503882Y-96653882D01*
X132781564Y-96376200D01*
X132900000Y-96376200D01*
X132929646Y-96370197D01*
X132953882Y-96353882D01*
X132957764Y-96350000D01*
X133023800Y-96350000D01*
X133023800Y-96550000D01*
X133029803Y-96579646D01*
X133046868Y-96604621D01*
X133072305Y-96620989D01*
X133100000Y-96626200D01*
X134200000Y-96626200D01*
X134229646Y-96620197D01*
X134254621Y-96603132D01*
X134270989Y-96577695D01*
X134276200Y-96550000D01*
X134276200Y-96350000D01*
X134270197Y-96320354D01*
X134253132Y-96295379D01*
X134227695Y-96279011D01*
X134200000Y-96273800D01*
X133100000Y-96273800D01*
X133070354Y-96279803D01*
X133045379Y-96296868D01*
X133029011Y-96322305D01*
X133023800Y-96350000D01*
X132957764Y-96350000D01*
X133081564Y-96226200D01*
X133300000Y-96226200D01*
X133329646Y-96220197D01*
X133353882Y-96203882D01*
X133531564Y-96026200D01*
X135000000Y-96026200D01*
X135029646Y-96020197D01*
X135053882Y-96003882D01*
X135253882Y-95803882D01*
X135270599Y-95778673D01*
X135276197Y-95750706D01*
X135325476Y-90428600D01*
X137373800Y-90428600D01*
X137373800Y-98573800D01*
G36*
X137373328Y-106923800D02*
X135326200Y-106923800D01*
X135326200Y-101200000D01*
X135320197Y-101170354D01*
X135303882Y-101146118D01*
X135053882Y-100896118D01*
X135030948Y-100880368D01*
X134580948Y-100680368D01*
X134550000Y-100673800D01*
X133200000Y-100673800D01*
X133170354Y-100679803D01*
X133145379Y-100696868D01*
X133129011Y-100722305D01*
X133123800Y-100750000D01*
X133123800Y-100798800D01*
X132409381Y-100798800D01*
X132318481Y-100776075D01*
X132300000Y-100773800D01*
X131626200Y-100773800D01*
X131626200Y-100226200D01*
X133123800Y-100226200D01*
X133123800Y-100350000D01*
X133129803Y-100379646D01*
X133146868Y-100404621D01*
X133172305Y-100420989D01*
X133200000Y-100426200D01*
X134200000Y-100426200D01*
X134229646Y-100420197D01*
X134253882Y-100403882D01*
X134550875Y-100106889D01*
X134585823Y-100121400D01*
X134813180Y-100121599D01*
X135023306Y-100034776D01*
X135031897Y-100026200D01*
X135400000Y-100026200D01*
X135429646Y-100020197D01*
X135454621Y-100003132D01*
X135470989Y-99977695D01*
X135476200Y-99950000D01*
X135476200Y-98976200D01*
X137324268Y-98976200D01*
X137373328Y-106923800D01*
X137373328Y-106923800D01*
G37*
X137373328Y-106923800D02*
X135326200Y-106923800D01*
X135326200Y-101200000D01*
X135320197Y-101170354D01*
X135303882Y-101146118D01*
X135053882Y-100896118D01*
X135030948Y-100880368D01*
X134580948Y-100680368D01*
X134550000Y-100673800D01*
X133200000Y-100673800D01*
X133170354Y-100679803D01*
X133145379Y-100696868D01*
X133129011Y-100722305D01*
X133123800Y-100750000D01*
X133123800Y-100798800D01*
X132409381Y-100798800D01*
X132318481Y-100776075D01*
X132300000Y-100773800D01*
X131626200Y-100773800D01*
X131626200Y-100226200D01*
X133123800Y-100226200D01*
X133123800Y-100350000D01*
X133129803Y-100379646D01*
X133146868Y-100404621D01*
X133172305Y-100420989D01*
X133200000Y-100426200D01*
X134200000Y-100426200D01*
X134229646Y-100420197D01*
X134253882Y-100403882D01*
X134550875Y-100106889D01*
X134585823Y-100121400D01*
X134813180Y-100121599D01*
X135023306Y-100034776D01*
X135031897Y-100026200D01*
X135400000Y-100026200D01*
X135429646Y-100020197D01*
X135454621Y-100003132D01*
X135470989Y-99977695D01*
X135476200Y-99950000D01*
X135476200Y-98976200D01*
X137324268Y-98976200D01*
X137373328Y-106923800D01*
G36*
X114923800Y-108323800D02*
X112576200Y-108323800D01*
X112576200Y-107281564D01*
X113237970Y-106619794D01*
X113915966Y-106474509D01*
X113943696Y-106462427D01*
X113962006Y-106444290D01*
X114212006Y-106094290D01*
X114224353Y-106066677D01*
X114226200Y-106050000D01*
X114226200Y-105626200D01*
X114923800Y-105626200D01*
X114923800Y-108323800D01*
X114923800Y-108323800D01*
G37*
X114923800Y-108323800D02*
X112576200Y-108323800D01*
X112576200Y-107281564D01*
X113237970Y-106619794D01*
X113915966Y-106474509D01*
X113943696Y-106462427D01*
X113962006Y-106444290D01*
X114212006Y-106094290D01*
X114224353Y-106066677D01*
X114226200Y-106050000D01*
X114226200Y-105626200D01*
X114923800Y-105626200D01*
X114923800Y-108323800D01*
G36*
X134823800Y-98666088D02*
X134823800Y-98833912D01*
X134194586Y-98923800D01*
X132512367Y-98923800D01*
X132224097Y-98827710D01*
X132200000Y-98823800D01*
X132176200Y-98823800D01*
X132176200Y-98659495D01*
X132509381Y-98576200D01*
X134194586Y-98576200D01*
X134823800Y-98666088D01*
X134823800Y-98666088D01*
G37*
X134823800Y-98666088D02*
X134823800Y-98833912D01*
X134194586Y-98923800D01*
X132512367Y-98923800D01*
X132224097Y-98827710D01*
X132200000Y-98823800D01*
X132176200Y-98823800D01*
X132176200Y-98659495D01*
X132509381Y-98576200D01*
X134194586Y-98576200D01*
X134823800Y-98666088D01*
G36*
X137932711Y-100932355D02*
X138039317Y-101003587D01*
X138165067Y-101028600D01*
X138170509Y-101028600D01*
X138325849Y-101184211D01*
X138535823Y-101271400D01*
X138763180Y-101271599D01*
X138973306Y-101184776D01*
X139129754Y-101028600D01*
X139323800Y-101028600D01*
X139323800Y-107123800D01*
X137776200Y-107123800D01*
X137776200Y-100775844D01*
X137932711Y-100932355D01*
X137932711Y-100932355D01*
G37*
X137932711Y-100932355D02*
X138039317Y-101003587D01*
X138165067Y-101028600D01*
X138170509Y-101028600D01*
X138325849Y-101184211D01*
X138535823Y-101271400D01*
X138763180Y-101271599D01*
X138973306Y-101184776D01*
X139129754Y-101028600D01*
X139323800Y-101028600D01*
X139323800Y-107123800D01*
X137776200Y-107123800D01*
X137776200Y-100775844D01*
X137932711Y-100932355D01*
G36*
X139323800Y-96571400D02*
X139086207Y-96571400D01*
X139078434Y-96552588D01*
X138917809Y-96391683D01*
X138707835Y-96304494D01*
X138480478Y-96304295D01*
X138270352Y-96391118D01*
X138109447Y-96551743D01*
X138022258Y-96761717D01*
X138022059Y-96989074D01*
X138108882Y-97199200D01*
X138241373Y-97331922D01*
X138097500Y-97331922D01*
X138012786Y-97347862D01*
X137934982Y-97397928D01*
X137882785Y-97474320D01*
X137864422Y-97565000D01*
X137864422Y-97970000D01*
X137880362Y-98054714D01*
X137930428Y-98132518D01*
X138006820Y-98184715D01*
X138097500Y-98203078D01*
X139087500Y-98203078D01*
X139172214Y-98187138D01*
X139250018Y-98137072D01*
X139302215Y-98060680D01*
X139320578Y-97970000D01*
X139320578Y-97565000D01*
X139304638Y-97480286D01*
X139254572Y-97402482D01*
X139178180Y-97350285D01*
X139087500Y-97331922D01*
X138945762Y-97331922D01*
X139049264Y-97228600D01*
X139323800Y-97228600D01*
X139323800Y-98180769D01*
X139329803Y-98210415D01*
X139346868Y-98235390D01*
X139372305Y-98251758D01*
X139402105Y-98256940D01*
X139427354Y-98251890D01*
X140664149Y-97776200D01*
X141400000Y-97776200D01*
X141429646Y-97770197D01*
X141454621Y-97753132D01*
X141470989Y-97727695D01*
X141476200Y-97700000D01*
X141476200Y-97400000D01*
X141470197Y-97370354D01*
X141453132Y-97345379D01*
X141427695Y-97329011D01*
X141400000Y-97323800D01*
X141026200Y-97323800D01*
X141026200Y-96976200D01*
X141400000Y-96976200D01*
X141429646Y-96970197D01*
X141454621Y-96953132D01*
X141465820Y-96938395D01*
X141793767Y-96376200D01*
X145523800Y-96376200D01*
X145523800Y-102423800D01*
X142276200Y-102423800D01*
X142276200Y-101400000D01*
X142265341Y-101360795D01*
X141965341Y-100860795D01*
X141944940Y-100838463D01*
X141917458Y-100825827D01*
X141900000Y-100823800D01*
X141076200Y-100823800D01*
X141076200Y-99800000D01*
X141070197Y-99770354D01*
X141053132Y-99745379D01*
X141027695Y-99729011D01*
X141000000Y-99723800D01*
X140776200Y-99723800D01*
X140776200Y-99426200D01*
X141000000Y-99426200D01*
X141029646Y-99420197D01*
X141054621Y-99403132D01*
X141070989Y-99377695D01*
X141076200Y-99350000D01*
X141076200Y-99100000D01*
X141070197Y-99070354D01*
X141053132Y-99045379D01*
X141027695Y-99029011D01*
X141000000Y-99023800D01*
X139950000Y-99023800D01*
X139920354Y-99029803D01*
X139895379Y-99046868D01*
X139879011Y-99072305D01*
X139873800Y-99100000D01*
X139873800Y-99837531D01*
X139385056Y-99935280D01*
X139357163Y-99946981D01*
X139336020Y-99968612D01*
X139323800Y-100010000D01*
X139323800Y-100371400D01*
X139129491Y-100371400D01*
X138974151Y-100215789D01*
X138764177Y-100128600D01*
X138536820Y-100128401D01*
X138326694Y-100215224D01*
X138235769Y-100305991D01*
X138078600Y-100148823D01*
X138078600Y-99519251D01*
X138097500Y-99523078D01*
X139087500Y-99523078D01*
X139172214Y-99507138D01*
X139250018Y-99457072D01*
X139302215Y-99380680D01*
X139320578Y-99290000D01*
X139320578Y-98885000D01*
X139304638Y-98800286D01*
X139254572Y-98722482D01*
X139178180Y-98670285D01*
X139087500Y-98651922D01*
X138097500Y-98651922D01*
X138012786Y-98667862D01*
X137934982Y-98717928D01*
X137906987Y-98758900D01*
X137897500Y-98758900D01*
X137776200Y-98783028D01*
X137776200Y-90676200D01*
X139323800Y-90676200D01*
X139323800Y-96571400D01*
X139323800Y-96571400D01*
G37*
X139323800Y-96571400D02*
X139086207Y-96571400D01*
X139078434Y-96552588D01*
X138917809Y-96391683D01*
X138707835Y-96304494D01*
X138480478Y-96304295D01*
X138270352Y-96391118D01*
X138109447Y-96551743D01*
X138022258Y-96761717D01*
X138022059Y-96989074D01*
X138108882Y-97199200D01*
X138241373Y-97331922D01*
X138097500Y-97331922D01*
X138012786Y-97347862D01*
X137934982Y-97397928D01*
X137882785Y-97474320D01*
X137864422Y-97565000D01*
X137864422Y-97970000D01*
X137880362Y-98054714D01*
X137930428Y-98132518D01*
X138006820Y-98184715D01*
X138097500Y-98203078D01*
X139087500Y-98203078D01*
X139172214Y-98187138D01*
X139250018Y-98137072D01*
X139302215Y-98060680D01*
X139320578Y-97970000D01*
X139320578Y-97565000D01*
X139304638Y-97480286D01*
X139254572Y-97402482D01*
X139178180Y-97350285D01*
X139087500Y-97331922D01*
X138945762Y-97331922D01*
X139049264Y-97228600D01*
X139323800Y-97228600D01*
X139323800Y-98180769D01*
X139329803Y-98210415D01*
X139346868Y-98235390D01*
X139372305Y-98251758D01*
X139402105Y-98256940D01*
X139427354Y-98251890D01*
X140664149Y-97776200D01*
X141400000Y-97776200D01*
X141429646Y-97770197D01*
X141454621Y-97753132D01*
X141470989Y-97727695D01*
X141476200Y-97700000D01*
X141476200Y-97400000D01*
X141470197Y-97370354D01*
X141453132Y-97345379D01*
X141427695Y-97329011D01*
X141400000Y-97323800D01*
X141026200Y-97323800D01*
X141026200Y-96976200D01*
X141400000Y-96976200D01*
X141429646Y-96970197D01*
X141454621Y-96953132D01*
X141465820Y-96938395D01*
X141793767Y-96376200D01*
X145523800Y-96376200D01*
X145523800Y-102423800D01*
X142276200Y-102423800D01*
X142276200Y-101400000D01*
X142265341Y-101360795D01*
X141965341Y-100860795D01*
X141944940Y-100838463D01*
X141917458Y-100825827D01*
X141900000Y-100823800D01*
X141076200Y-100823800D01*
X141076200Y-99800000D01*
X141070197Y-99770354D01*
X141053132Y-99745379D01*
X141027695Y-99729011D01*
X141000000Y-99723800D01*
X140776200Y-99723800D01*
X140776200Y-99426200D01*
X141000000Y-99426200D01*
X141029646Y-99420197D01*
X141054621Y-99403132D01*
X141070989Y-99377695D01*
X141076200Y-99350000D01*
X141076200Y-99100000D01*
X141070197Y-99070354D01*
X141053132Y-99045379D01*
X141027695Y-99029011D01*
X141000000Y-99023800D01*
X139950000Y-99023800D01*
X139920354Y-99029803D01*
X139895379Y-99046868D01*
X139879011Y-99072305D01*
X139873800Y-99100000D01*
X139873800Y-99837531D01*
X139385056Y-99935280D01*
X139357163Y-99946981D01*
X139336020Y-99968612D01*
X139323800Y-100010000D01*
X139323800Y-100371400D01*
X139129491Y-100371400D01*
X138974151Y-100215789D01*
X138764177Y-100128600D01*
X138536820Y-100128401D01*
X138326694Y-100215224D01*
X138235769Y-100305991D01*
X138078600Y-100148823D01*
X138078600Y-99519251D01*
X138097500Y-99523078D01*
X139087500Y-99523078D01*
X139172214Y-99507138D01*
X139250018Y-99457072D01*
X139302215Y-99380680D01*
X139320578Y-99290000D01*
X139320578Y-98885000D01*
X139304638Y-98800286D01*
X139254572Y-98722482D01*
X139178180Y-98670285D01*
X139087500Y-98651922D01*
X138097500Y-98651922D01*
X138012786Y-98667862D01*
X137934982Y-98717928D01*
X137906987Y-98758900D01*
X137897500Y-98758900D01*
X137776200Y-98783028D01*
X137776200Y-90676200D01*
X139323800Y-90676200D01*
X139323800Y-96571400D01*
G36*
X141623800Y-91850000D02*
X141629803Y-91879646D01*
X141646868Y-91904621D01*
X141672305Y-91920989D01*
X141700000Y-91926200D01*
X145473800Y-91926200D01*
X145473800Y-96023800D01*
X140001200Y-96023800D01*
X140001200Y-90476200D01*
X141623800Y-90476200D01*
X141623800Y-91850000D01*
X141623800Y-91850000D01*
G37*
X141623800Y-91850000D02*
X141629803Y-91879646D01*
X141646868Y-91904621D01*
X141672305Y-91920989D01*
X141700000Y-91926200D01*
X145473800Y-91926200D01*
X145473800Y-96023800D01*
X140001200Y-96023800D01*
X140001200Y-90476200D01*
X141623800Y-90476200D01*
X141623800Y-91850000D01*
G36*
X134423800Y-95673800D02*
X133350000Y-95673800D01*
X133311235Y-95684397D01*
X132229168Y-96323800D01*
X131726200Y-96323800D01*
X131726200Y-95620749D01*
X132430746Y-94423021D01*
X132523306Y-94384776D01*
X132684211Y-94224151D01*
X132771400Y-94014177D01*
X132771433Y-93976200D01*
X134423800Y-93976200D01*
X134423800Y-95673800D01*
X134423800Y-95673800D01*
G37*
X134423800Y-95673800D02*
X133350000Y-95673800D01*
X133311235Y-95684397D01*
X132229168Y-96323800D01*
X131726200Y-96323800D01*
X131726200Y-95620749D01*
X132430746Y-94423021D01*
X132523306Y-94384776D01*
X132684211Y-94224151D01*
X132771400Y-94014177D01*
X132771433Y-93976200D01*
X134423800Y-93976200D01*
X134423800Y-95673800D01*
G36*
X141828239Y-102725629D02*
X141843864Y-102751529D01*
X141868334Y-102769309D01*
X141900000Y-102776200D01*
X145423800Y-102776200D01*
X145423800Y-106923800D01*
X139776200Y-106923800D01*
X139776200Y-101376200D01*
X141346300Y-101376200D01*
X141828239Y-102725629D01*
X141828239Y-102725629D01*
G37*
X141828239Y-102725629D02*
X141843864Y-102751529D01*
X141868334Y-102769309D01*
X141900000Y-102776200D01*
X145423800Y-102776200D01*
X145423800Y-106923800D01*
X139776200Y-106923800D01*
X139776200Y-101376200D01*
X141346300Y-101376200D01*
X141828239Y-102725629D01*
G36*
X134423800Y-104223800D02*
X132976200Y-104223800D01*
X132976200Y-102776200D01*
X134423800Y-102776200D01*
X134423800Y-104223800D01*
X134423800Y-104223800D01*
G37*
X134423800Y-104223800D02*
X132976200Y-104223800D01*
X132976200Y-102776200D01*
X134423800Y-102776200D01*
X134423800Y-104223800D01*
G36*
X124523800Y-97923800D02*
X121500000Y-97923800D01*
X121470354Y-97929803D01*
X121446118Y-97946118D01*
X121068436Y-98323800D01*
X113600000Y-98323800D01*
X113570354Y-98329803D01*
X113546118Y-98346118D01*
X112968436Y-98923800D01*
X112076200Y-98923800D01*
X112076200Y-97776200D01*
X120600000Y-97776200D01*
X120629646Y-97770197D01*
X120653882Y-97753882D01*
X121231564Y-97176200D01*
X124523800Y-97176200D01*
X124523800Y-97923800D01*
X124523800Y-97923800D01*
G37*
X124523800Y-97923800D02*
X121500000Y-97923800D01*
X121470354Y-97929803D01*
X121446118Y-97946118D01*
X121068436Y-98323800D01*
X113600000Y-98323800D01*
X113570354Y-98329803D01*
X113546118Y-98346118D01*
X112968436Y-98923800D01*
X112076200Y-98923800D01*
X112076200Y-97776200D01*
X120600000Y-97776200D01*
X120629646Y-97770197D01*
X120653882Y-97753882D01*
X121231564Y-97176200D01*
X124523800Y-97176200D01*
X124523800Y-97923800D01*
G36*
X121446118Y-99053882D02*
X121471327Y-99070599D01*
X121500000Y-99076200D01*
X124523800Y-99076200D01*
X124523800Y-99823800D01*
X113800000Y-99823800D01*
X113770354Y-99829803D01*
X113745379Y-99846868D01*
X113729011Y-99872305D01*
X113723800Y-99900000D01*
X113723800Y-100423800D01*
X112076200Y-100423800D01*
X112076200Y-99576200D01*
X112800000Y-99576200D01*
X112829646Y-99570197D01*
X112853882Y-99553882D01*
X113731564Y-98676200D01*
X121068436Y-98676200D01*
X121446118Y-99053882D01*
X121446118Y-99053882D01*
G37*
X121446118Y-99053882D02*
X121471327Y-99070599D01*
X121500000Y-99076200D01*
X124523800Y-99076200D01*
X124523800Y-99823800D01*
X113800000Y-99823800D01*
X113770354Y-99829803D01*
X113745379Y-99846868D01*
X113729011Y-99872305D01*
X113723800Y-99900000D01*
X113723800Y-100423800D01*
X112076200Y-100423800D01*
X112076200Y-99576200D01*
X112800000Y-99576200D01*
X112829646Y-99570197D01*
X112853882Y-99553882D01*
X113731564Y-98676200D01*
X121068436Y-98676200D01*
X121446118Y-99053882D01*
G36*
X113123800Y-93600000D02*
X113129803Y-93629646D01*
X113146868Y-93654621D01*
X113172305Y-93670989D01*
X113200000Y-93676200D01*
X119923800Y-93676200D01*
X119923800Y-94923800D01*
X113300000Y-94923800D01*
X113270354Y-94929803D01*
X113245379Y-94946868D01*
X113229011Y-94972305D01*
X113223866Y-94996828D01*
X113126909Y-97323800D01*
X112076200Y-97323800D01*
X112076200Y-92076200D01*
X113123800Y-92076200D01*
X113123800Y-93600000D01*
X113123800Y-93600000D01*
G37*
X113123800Y-93600000D02*
X113129803Y-93629646D01*
X113146868Y-93654621D01*
X113172305Y-93670989D01*
X113200000Y-93676200D01*
X119923800Y-93676200D01*
X119923800Y-94923800D01*
X113300000Y-94923800D01*
X113270354Y-94929803D01*
X113245379Y-94946868D01*
X113229011Y-94972305D01*
X113223866Y-94996828D01*
X113126909Y-97323800D01*
X112076200Y-97323800D01*
X112076200Y-92076200D01*
X113123800Y-92076200D01*
X113123800Y-93600000D01*
G36*
X113723800Y-102800000D02*
X113729803Y-102829646D01*
X113746868Y-102854621D01*
X113772305Y-102870989D01*
X113800000Y-102876200D01*
X119923800Y-102876200D01*
X119923800Y-103423800D01*
X113800000Y-103423800D01*
X113770354Y-103429803D01*
X113745379Y-103446868D01*
X113729011Y-103472305D01*
X113723800Y-103500000D01*
X113723800Y-105568436D01*
X112968436Y-106323800D01*
X112076200Y-106323800D01*
X112076200Y-101076200D01*
X113723800Y-101076200D01*
X113723800Y-102800000D01*
X113723800Y-102800000D01*
G37*
X113723800Y-102800000D02*
X113729803Y-102829646D01*
X113746868Y-102854621D01*
X113772305Y-102870989D01*
X113800000Y-102876200D01*
X119923800Y-102876200D01*
X119923800Y-103423800D01*
X113800000Y-103423800D01*
X113770354Y-103429803D01*
X113745379Y-103446868D01*
X113729011Y-103472305D01*
X113723800Y-103500000D01*
X113723800Y-105568436D01*
X112968436Y-106323800D01*
X112076200Y-106323800D01*
X112076200Y-101076200D01*
X113723800Y-101076200D01*
X113723800Y-102800000D01*
M02*
