G04 #@! TF.FileFunction,Copper,L2,Bot,Signal*
%FSLAX46Y46*%
G04 Gerber Fmt 4.6, Leading zero omitted, Abs format (unit mm)*
G04 Created by KiCad (PCBNEW (2015-09-15 BZR 13, Git 37c8462)-brewed_product) date Thursday, 17 September 2015 'pmt' 19:10:14*
%MOMM*%
G01*
G04 APERTURE LIST*
%ADD10C,0.020000*%
%ADD11C,0.609600*%
%ADD12C,1.041400*%
%ADD13R,1.000000X1.200000*%
%ADD14R,1.200000X1.000000*%
%ADD15C,0.700000*%
%ADD16C,0.635000*%
%ADD17C,0.685800*%
%ADD18C,0.200000*%
%ADD19C,0.152400*%
G04 APERTURE END LIST*
D10*
D11*
X138500000Y-95400000D03*
X138500000Y-94400000D03*
X138500000Y-93400000D03*
X138500000Y-92400000D03*
X138500000Y-106100000D03*
X138500000Y-105100000D03*
X138500000Y-104100000D03*
X138500000Y-103100000D03*
X138500000Y-102100000D03*
X131950000Y-102725000D03*
X132300000Y-102000000D03*
X133300000Y-94300000D03*
X134100000Y-94300000D03*
X130000000Y-91700000D03*
X127500000Y-91700000D03*
X133400000Y-98725000D03*
X134150000Y-98750000D03*
X134200000Y-103000000D03*
X133200000Y-103000000D03*
X121900000Y-95000000D03*
X121100000Y-95000000D03*
X122700000Y-95000000D03*
X122800000Y-102000000D03*
X122000000Y-102000000D03*
X121200000Y-102000000D03*
X143900000Y-98500000D03*
X143900000Y-99900000D03*
X143500000Y-99200000D03*
X143100000Y-99900000D03*
X142300000Y-99900000D03*
X141500000Y-99900000D03*
X141900000Y-99200000D03*
X142700000Y-99200000D03*
X143100000Y-98500000D03*
X142300000Y-98500000D03*
X141500000Y-98500000D03*
D12*
X127950000Y-109000000D03*
D13*
X130950000Y-108300000D03*
D12*
X129450000Y-109000000D03*
X130950000Y-109000000D03*
X126450000Y-109000000D03*
X124950000Y-109000000D03*
X123450000Y-109000000D03*
D13*
X129450000Y-108300000D03*
X127950000Y-108300000D03*
X126450000Y-108300000D03*
X124950000Y-108300000D03*
X123450000Y-108300000D03*
D14*
X112200000Y-104500000D03*
D12*
X111500000Y-106000000D03*
X111500000Y-104500000D03*
D14*
X112200000Y-106000000D03*
X112200000Y-92500000D03*
D12*
X111500000Y-94000000D03*
X111500000Y-92500000D03*
D14*
X112200000Y-94000000D03*
D13*
X123500000Y-90200000D03*
D12*
X122000000Y-89500000D03*
X123500000Y-89500000D03*
D13*
X122000000Y-90200000D03*
D14*
X145300000Y-100000000D03*
D12*
X146000000Y-98500000D03*
X146000000Y-100000000D03*
D14*
X145300000Y-98500000D03*
D13*
X113000000Y-108300000D03*
D12*
X114500000Y-109000000D03*
X113000000Y-109000000D03*
D13*
X114500000Y-108300000D03*
X114500000Y-90200000D03*
D12*
X113000000Y-89500000D03*
X114500000Y-89500000D03*
D13*
X113000000Y-90200000D03*
D14*
X145300000Y-106000000D03*
D12*
X146000000Y-104500000D03*
X146000000Y-106000000D03*
D14*
X145300000Y-104500000D03*
X145300000Y-94000000D03*
D12*
X146000000Y-92500000D03*
X146000000Y-94000000D03*
D14*
X145300000Y-92500000D03*
D13*
X144500000Y-90200000D03*
D12*
X143000000Y-89500000D03*
X144500000Y-89500000D03*
D13*
X143000000Y-90200000D03*
X143000000Y-108300000D03*
D12*
X144500000Y-109000000D03*
X143000000Y-109000000D03*
D13*
X144500000Y-108300000D03*
D14*
X112200000Y-98500000D03*
D12*
X111500000Y-100000000D03*
X111500000Y-98500000D03*
D14*
X112200000Y-100000000D03*
D13*
X132450000Y-108300000D03*
D12*
X132450000Y-109000000D03*
D15*
X128500000Y-98500000D03*
X129500000Y-98500000D03*
X130500000Y-98500000D03*
X130500000Y-97500000D03*
X130500000Y-96500000D03*
X129500000Y-96500000D03*
X129500000Y-97500000D03*
X128500000Y-97500000D03*
X128500000Y-96500000D03*
X127500000Y-96500000D03*
X127500000Y-97500000D03*
X126500000Y-96500000D03*
X126500000Y-97500000D03*
X126500000Y-98500000D03*
X127500000Y-98500000D03*
X126500000Y-99500000D03*
X126500000Y-100500000D03*
X127500000Y-100500000D03*
X127500000Y-99500000D03*
X128500000Y-99500000D03*
X128500000Y-100500000D03*
X129500000Y-100500000D03*
X129500000Y-99500000D03*
X130500000Y-99500000D03*
X130500000Y-100500000D03*
D16*
X130000000Y-105300000D03*
D17*
X122100000Y-91800000D03*
X133900000Y-90800000D03*
X132200000Y-93900000D03*
X125100000Y-102800000D03*
X123700000Y-103900000D03*
D16*
X129792231Y-106100000D03*
D17*
X130900000Y-102700000D03*
X132602676Y-91875636D03*
X125200000Y-92000000D03*
X128200000Y-94400000D03*
X138650000Y-100700000D03*
X134700000Y-99550000D03*
X138593658Y-96875894D03*
X134700000Y-98050000D03*
D11*
X124293294Y-105131580D03*
X125232806Y-106217908D03*
D18*
X128200000Y-90200000D02*
X128200000Y-94400000D01*
X128500000Y-89900000D02*
X128200000Y-90200000D01*
X130241243Y-106100000D02*
X129792231Y-106100000D01*
X130900000Y-102700000D02*
X130900000Y-105441243D01*
X130900000Y-105441243D02*
X130241243Y-106100000D01*
X130627040Y-89900000D02*
X132602676Y-91875636D01*
X128500000Y-89900000D02*
X130627040Y-89900000D01*
X125200000Y-90300000D02*
X125600000Y-89900000D01*
X125600000Y-89900000D02*
X128500000Y-89900000D01*
X125200000Y-92000000D02*
X125200000Y-90300000D01*
X135150000Y-99100000D02*
X137050000Y-99100000D01*
X137050000Y-99100000D02*
X138650000Y-100700000D01*
X134700000Y-99550000D02*
X135150000Y-99100000D01*
X137419552Y-98050000D02*
X138593658Y-96875894D01*
X134700000Y-98050000D02*
X137419552Y-98050000D01*
X124293294Y-105278396D02*
X124293294Y-105131580D01*
X125232806Y-106217908D02*
X124293294Y-105278396D01*
D19*
G36*
X145523800Y-91523800D02*
X137000000Y-91523800D01*
X136970354Y-91529803D01*
X136945379Y-91546868D01*
X136929011Y-91572305D01*
X136923800Y-91600000D01*
X136923800Y-94723800D01*
X132876200Y-94723800D01*
X132876200Y-94076200D01*
X134600000Y-94076200D01*
X134629646Y-94070197D01*
X134654621Y-94053132D01*
X134670989Y-94027695D01*
X134676200Y-94000000D01*
X134676200Y-90076200D01*
X145523800Y-90076200D01*
X145523800Y-91523800D01*
X145523800Y-91523800D01*
G37*
X145523800Y-91523800D02*
X137000000Y-91523800D01*
X136970354Y-91529803D01*
X136945379Y-91546868D01*
X136929011Y-91572305D01*
X136923800Y-91600000D01*
X136923800Y-94723800D01*
X132876200Y-94723800D01*
X132876200Y-94076200D01*
X134600000Y-94076200D01*
X134629646Y-94070197D01*
X134654621Y-94053132D01*
X134670989Y-94027695D01*
X134676200Y-94000000D01*
X134676200Y-90076200D01*
X145523800Y-90076200D01*
X145523800Y-91523800D01*
G36*
X132598801Y-106050423D02*
X132604969Y-106080036D01*
X132621118Y-106103882D01*
X133446118Y-106928882D01*
X133471327Y-106945599D01*
X133500000Y-106951200D01*
X145473800Y-106951200D01*
X145473800Y-108473800D01*
X133183078Y-108473800D01*
X133183078Y-107700000D01*
X133167138Y-107615286D01*
X133117072Y-107537482D01*
X133040680Y-107485285D01*
X132950000Y-107466922D01*
X131950000Y-107466922D01*
X131865286Y-107482862D01*
X131787482Y-107532928D01*
X131735285Y-107609320D01*
X131716922Y-107700000D01*
X131716922Y-108473800D01*
X131683078Y-108473800D01*
X131683078Y-107700000D01*
X131667138Y-107615286D01*
X131617072Y-107537482D01*
X131540680Y-107485285D01*
X131526200Y-107482353D01*
X131526200Y-101626200D01*
X132574222Y-101626200D01*
X132598801Y-106050423D01*
X132598801Y-106050423D01*
G37*
X132598801Y-106050423D02*
X132604969Y-106080036D01*
X132621118Y-106103882D01*
X133446118Y-106928882D01*
X133471327Y-106945599D01*
X133500000Y-106951200D01*
X145473800Y-106951200D01*
X145473800Y-108473800D01*
X133183078Y-108473800D01*
X133183078Y-107700000D01*
X133167138Y-107615286D01*
X133117072Y-107537482D01*
X133040680Y-107485285D01*
X132950000Y-107466922D01*
X131950000Y-107466922D01*
X131865286Y-107482862D01*
X131787482Y-107532928D01*
X131735285Y-107609320D01*
X131716922Y-107700000D01*
X131716922Y-108473800D01*
X131683078Y-108473800D01*
X131683078Y-107700000D01*
X131667138Y-107615286D01*
X131617072Y-107537482D01*
X131540680Y-107485285D01*
X131526200Y-107482353D01*
X131526200Y-101626200D01*
X132574222Y-101626200D01*
X132598801Y-106050423D01*
G36*
X112266922Y-90800000D02*
X112282862Y-90884714D01*
X112332928Y-90962518D01*
X112409320Y-91014715D01*
X112500000Y-91033078D01*
X113500000Y-91033078D01*
X113584714Y-91017138D01*
X113662518Y-90967072D01*
X113714715Y-90890680D01*
X113733078Y-90800000D01*
X113733078Y-89976200D01*
X113766922Y-89976200D01*
X113766922Y-90800000D01*
X113782862Y-90884714D01*
X113832928Y-90962518D01*
X113909320Y-91014715D01*
X114000000Y-91033078D01*
X115000000Y-91033078D01*
X115084714Y-91017138D01*
X115162518Y-90967072D01*
X115214715Y-90890680D01*
X115233078Y-90800000D01*
X115233078Y-89976200D01*
X125059090Y-89976200D01*
X124967645Y-90067645D01*
X124896413Y-90174250D01*
X124871400Y-90300000D01*
X124871400Y-91520509D01*
X124715789Y-91675849D01*
X124628600Y-91885823D01*
X124628401Y-92113180D01*
X124715224Y-92323306D01*
X124875849Y-92484211D01*
X125085823Y-92571400D01*
X125313180Y-92571599D01*
X125523306Y-92484776D01*
X125684211Y-92324151D01*
X125771400Y-92114177D01*
X125771599Y-91886820D01*
X125684776Y-91676694D01*
X125528600Y-91520246D01*
X125528600Y-90436110D01*
X125736111Y-90228600D01*
X127871400Y-90228600D01*
X127871400Y-93920509D01*
X127715789Y-94075849D01*
X127628600Y-94285823D01*
X127628401Y-94513180D01*
X127715224Y-94723306D01*
X127875849Y-94884211D01*
X128085823Y-94971400D01*
X128313180Y-94971599D01*
X128523306Y-94884776D01*
X128684211Y-94724151D01*
X128771400Y-94514177D01*
X128771599Y-94286820D01*
X128684776Y-94076694D01*
X128528600Y-93920246D01*
X128528600Y-90336110D01*
X128636110Y-90228600D01*
X130490930Y-90228600D01*
X132031269Y-91768939D01*
X132031077Y-91988816D01*
X132117900Y-92198942D01*
X132278525Y-92359847D01*
X132488499Y-92447036D01*
X132715856Y-92447235D01*
X132925982Y-92360412D01*
X133086887Y-92199787D01*
X133174076Y-91989813D01*
X133174275Y-91762456D01*
X133087452Y-91552330D01*
X132926827Y-91391425D01*
X132716853Y-91304236D01*
X132495793Y-91304043D01*
X131167950Y-89976200D01*
X134323800Y-89976200D01*
X134323800Y-93723800D01*
X132600000Y-93723800D01*
X132570354Y-93729803D01*
X132545379Y-93746868D01*
X132529011Y-93772305D01*
X132523800Y-93800000D01*
X132523800Y-95100000D01*
X132529803Y-95129646D01*
X132546868Y-95154621D01*
X132572305Y-95170989D01*
X132600000Y-95176200D01*
X137400000Y-95176200D01*
X137429646Y-95170197D01*
X137454621Y-95153132D01*
X137470989Y-95127695D01*
X137476200Y-95100000D01*
X137476200Y-91976200D01*
X144471742Y-91976200D01*
X144466922Y-92000000D01*
X144466922Y-93000000D01*
X144482862Y-93084714D01*
X144532928Y-93162518D01*
X144609320Y-93214715D01*
X144700000Y-93233078D01*
X145423800Y-93233078D01*
X145423800Y-93266922D01*
X144700000Y-93266922D01*
X144615286Y-93282862D01*
X144537482Y-93332928D01*
X144485285Y-93409320D01*
X144466922Y-93500000D01*
X144466922Y-94500000D01*
X144482862Y-94584714D01*
X144532928Y-94662518D01*
X144609320Y-94714715D01*
X144700000Y-94733078D01*
X145423800Y-94733078D01*
X145423800Y-103766922D01*
X144700000Y-103766922D01*
X144615286Y-103782862D01*
X144537482Y-103832928D01*
X144485285Y-103909320D01*
X144466922Y-104000000D01*
X144466922Y-105000000D01*
X144482862Y-105084714D01*
X144532928Y-105162518D01*
X144609320Y-105214715D01*
X144700000Y-105233078D01*
X145423800Y-105233078D01*
X145423800Y-105266922D01*
X144700000Y-105266922D01*
X144615286Y-105282862D01*
X144537482Y-105332928D01*
X144485285Y-105409320D01*
X144466922Y-105500000D01*
X144466922Y-106500000D01*
X144471400Y-106523800D01*
X133631564Y-106523800D01*
X132976200Y-105868436D01*
X132976200Y-101100000D01*
X132970197Y-101070354D01*
X132953132Y-101045379D01*
X132927695Y-101029011D01*
X132900000Y-101023800D01*
X131000000Y-101023800D01*
X130970354Y-101029803D01*
X130945379Y-101046868D01*
X130929011Y-101072305D01*
X130923800Y-101100000D01*
X130923800Y-102128521D01*
X130786820Y-102128401D01*
X130576694Y-102215224D01*
X130415789Y-102375849D01*
X130328600Y-102585823D01*
X130328401Y-102813180D01*
X130415224Y-103023306D01*
X130571400Y-103179754D01*
X130571400Y-105305133D01*
X130170540Y-105705993D01*
X130101976Y-105637309D01*
X129901334Y-105553995D01*
X129684082Y-105553805D01*
X129483294Y-105636769D01*
X129329540Y-105790255D01*
X129246226Y-105990897D01*
X129246036Y-106208149D01*
X129329000Y-106408937D01*
X129482486Y-106562691D01*
X129683128Y-106646005D01*
X129900380Y-106646195D01*
X130101168Y-106563231D01*
X130236034Y-106428600D01*
X130241243Y-106428600D01*
X130366993Y-106403587D01*
X130473598Y-106332355D01*
X130923800Y-105882153D01*
X130923800Y-107500000D01*
X130929803Y-107529646D01*
X130946868Y-107554621D01*
X130972305Y-107570989D01*
X131000000Y-107576200D01*
X131123800Y-107576200D01*
X131123800Y-108423800D01*
X130183078Y-108423800D01*
X130183078Y-107700000D01*
X130167138Y-107615286D01*
X130117072Y-107537482D01*
X130040680Y-107485285D01*
X129950000Y-107466922D01*
X128950000Y-107466922D01*
X128865286Y-107482862D01*
X128787482Y-107532928D01*
X128735285Y-107609320D01*
X128716922Y-107700000D01*
X128716922Y-108423800D01*
X128683078Y-108423800D01*
X128683078Y-107700000D01*
X128667138Y-107615286D01*
X128617072Y-107537482D01*
X128540680Y-107485285D01*
X128450000Y-107466922D01*
X127450000Y-107466922D01*
X127365286Y-107482862D01*
X127287482Y-107532928D01*
X127235285Y-107609320D01*
X127216922Y-107700000D01*
X127216922Y-108423800D01*
X127183078Y-108423800D01*
X127183078Y-107700000D01*
X127167138Y-107615286D01*
X127117072Y-107537482D01*
X127040680Y-107485285D01*
X126950000Y-107466922D01*
X125950000Y-107466922D01*
X125865286Y-107482862D01*
X125787482Y-107532928D01*
X125735285Y-107609320D01*
X125716922Y-107700000D01*
X125716922Y-108423800D01*
X125683078Y-108423800D01*
X125683078Y-107700000D01*
X125667138Y-107615286D01*
X125617072Y-107537482D01*
X125540680Y-107485285D01*
X125450000Y-107466922D01*
X124450000Y-107466922D01*
X124365286Y-107482862D01*
X124287482Y-107532928D01*
X124235285Y-107609320D01*
X124216922Y-107700000D01*
X124216922Y-108423800D01*
X124183078Y-108423800D01*
X124183078Y-107700000D01*
X124167138Y-107615286D01*
X124117072Y-107537482D01*
X124040680Y-107485285D01*
X123950000Y-107466922D01*
X122950000Y-107466922D01*
X122865286Y-107482862D01*
X122787482Y-107532928D01*
X122735285Y-107609320D01*
X122716922Y-107700000D01*
X122716922Y-108423800D01*
X115233078Y-108423800D01*
X115233078Y-107700000D01*
X115217138Y-107615286D01*
X115167072Y-107537482D01*
X115090680Y-107485285D01*
X115000000Y-107466922D01*
X114000000Y-107466922D01*
X113915286Y-107482862D01*
X113837482Y-107532928D01*
X113785285Y-107609320D01*
X113766922Y-107700000D01*
X113766922Y-108423800D01*
X113733078Y-108423800D01*
X113733078Y-107700000D01*
X113717138Y-107615286D01*
X113667072Y-107537482D01*
X113590680Y-107485285D01*
X113500000Y-107466922D01*
X112500000Y-107466922D01*
X112415286Y-107482862D01*
X112337482Y-107532928D01*
X112285285Y-107609320D01*
X112266922Y-107700000D01*
X112266922Y-108423800D01*
X112076200Y-108423800D01*
X112076200Y-105237214D01*
X123759802Y-105237214D01*
X123840836Y-105433332D01*
X123990753Y-105583511D01*
X124186729Y-105664887D01*
X124215100Y-105664912D01*
X124699466Y-106149279D01*
X124699314Y-106323542D01*
X124780348Y-106519660D01*
X124930265Y-106669839D01*
X125126241Y-106751215D01*
X125338440Y-106751400D01*
X125534558Y-106670366D01*
X125684737Y-106520449D01*
X125766113Y-106324473D01*
X125766298Y-106112274D01*
X125685264Y-105916156D01*
X125535347Y-105765977D01*
X125339371Y-105684601D01*
X125164057Y-105684448D01*
X124794665Y-105315056D01*
X124826601Y-105238145D01*
X124826786Y-105025946D01*
X124745752Y-104829828D01*
X124595835Y-104679649D01*
X124399859Y-104598273D01*
X124187660Y-104598088D01*
X123991542Y-104679122D01*
X123841363Y-104829039D01*
X123759987Y-105025015D01*
X123759802Y-105237214D01*
X112076200Y-105237214D01*
X112076200Y-100733078D01*
X112800000Y-100733078D01*
X112884714Y-100717138D01*
X112962518Y-100667072D01*
X113014715Y-100590680D01*
X113033078Y-100500000D01*
X113033078Y-99663180D01*
X134128401Y-99663180D01*
X134215224Y-99873306D01*
X134375849Y-100034211D01*
X134585823Y-100121400D01*
X134813180Y-100121599D01*
X135023306Y-100034776D01*
X135184211Y-99874151D01*
X135271400Y-99664177D01*
X135271593Y-99443117D01*
X135286110Y-99428600D01*
X136913890Y-99428600D01*
X138078593Y-100593304D01*
X138078401Y-100813180D01*
X138165224Y-101023306D01*
X138325849Y-101184211D01*
X138535823Y-101271400D01*
X138763180Y-101271599D01*
X138973306Y-101184776D01*
X139134211Y-101024151D01*
X139221400Y-100814177D01*
X139221599Y-100586820D01*
X139134776Y-100376694D01*
X138974151Y-100215789D01*
X138764177Y-100128600D01*
X138543117Y-100128407D01*
X137282355Y-98867645D01*
X137175750Y-98796413D01*
X137050000Y-98771400D01*
X135150000Y-98771400D01*
X135024250Y-98796413D01*
X134917645Y-98867645D01*
X134806697Y-98978593D01*
X134586820Y-98978401D01*
X134376694Y-99065224D01*
X134215789Y-99225849D01*
X134128600Y-99435823D01*
X134128401Y-99663180D01*
X113033078Y-99663180D01*
X113033078Y-99500000D01*
X113017138Y-99415286D01*
X112967072Y-99337482D01*
X112890680Y-99285285D01*
X112800000Y-99266922D01*
X112076200Y-99266922D01*
X112076200Y-99233078D01*
X112800000Y-99233078D01*
X112884714Y-99217138D01*
X112962518Y-99167072D01*
X113014715Y-99090680D01*
X113033078Y-99000000D01*
X113033078Y-98163180D01*
X134128401Y-98163180D01*
X134215224Y-98373306D01*
X134375849Y-98534211D01*
X134585823Y-98621400D01*
X134813180Y-98621599D01*
X135023306Y-98534776D01*
X135179754Y-98378600D01*
X137419552Y-98378600D01*
X137545302Y-98353587D01*
X137651907Y-98282355D01*
X138486962Y-97447301D01*
X138706838Y-97447493D01*
X138916964Y-97360670D01*
X139077869Y-97200045D01*
X139165058Y-96990071D01*
X139165257Y-96762714D01*
X139078434Y-96552588D01*
X138917809Y-96391683D01*
X138707835Y-96304494D01*
X138480478Y-96304295D01*
X138270352Y-96391118D01*
X138109447Y-96551743D01*
X138022258Y-96761717D01*
X138022065Y-96982777D01*
X137283442Y-97721400D01*
X135179491Y-97721400D01*
X135024151Y-97565789D01*
X134814177Y-97478600D01*
X134586820Y-97478401D01*
X134376694Y-97565224D01*
X134215789Y-97725849D01*
X134128600Y-97935823D01*
X134128401Y-98163180D01*
X113033078Y-98163180D01*
X113033078Y-98000000D01*
X113017138Y-97915286D01*
X112967072Y-97837482D01*
X112890680Y-97785285D01*
X112800000Y-97766922D01*
X112076200Y-97766922D01*
X112076200Y-89976200D01*
X112266922Y-89976200D01*
X112266922Y-90800000D01*
X112266922Y-90800000D01*
G37*
X112266922Y-90800000D02*
X112282862Y-90884714D01*
X112332928Y-90962518D01*
X112409320Y-91014715D01*
X112500000Y-91033078D01*
X113500000Y-91033078D01*
X113584714Y-91017138D01*
X113662518Y-90967072D01*
X113714715Y-90890680D01*
X113733078Y-90800000D01*
X113733078Y-89976200D01*
X113766922Y-89976200D01*
X113766922Y-90800000D01*
X113782862Y-90884714D01*
X113832928Y-90962518D01*
X113909320Y-91014715D01*
X114000000Y-91033078D01*
X115000000Y-91033078D01*
X115084714Y-91017138D01*
X115162518Y-90967072D01*
X115214715Y-90890680D01*
X115233078Y-90800000D01*
X115233078Y-89976200D01*
X125059090Y-89976200D01*
X124967645Y-90067645D01*
X124896413Y-90174250D01*
X124871400Y-90300000D01*
X124871400Y-91520509D01*
X124715789Y-91675849D01*
X124628600Y-91885823D01*
X124628401Y-92113180D01*
X124715224Y-92323306D01*
X124875849Y-92484211D01*
X125085823Y-92571400D01*
X125313180Y-92571599D01*
X125523306Y-92484776D01*
X125684211Y-92324151D01*
X125771400Y-92114177D01*
X125771599Y-91886820D01*
X125684776Y-91676694D01*
X125528600Y-91520246D01*
X125528600Y-90436110D01*
X125736111Y-90228600D01*
X127871400Y-90228600D01*
X127871400Y-93920509D01*
X127715789Y-94075849D01*
X127628600Y-94285823D01*
X127628401Y-94513180D01*
X127715224Y-94723306D01*
X127875849Y-94884211D01*
X128085823Y-94971400D01*
X128313180Y-94971599D01*
X128523306Y-94884776D01*
X128684211Y-94724151D01*
X128771400Y-94514177D01*
X128771599Y-94286820D01*
X128684776Y-94076694D01*
X128528600Y-93920246D01*
X128528600Y-90336110D01*
X128636110Y-90228600D01*
X130490930Y-90228600D01*
X132031269Y-91768939D01*
X132031077Y-91988816D01*
X132117900Y-92198942D01*
X132278525Y-92359847D01*
X132488499Y-92447036D01*
X132715856Y-92447235D01*
X132925982Y-92360412D01*
X133086887Y-92199787D01*
X133174076Y-91989813D01*
X133174275Y-91762456D01*
X133087452Y-91552330D01*
X132926827Y-91391425D01*
X132716853Y-91304236D01*
X132495793Y-91304043D01*
X131167950Y-89976200D01*
X134323800Y-89976200D01*
X134323800Y-93723800D01*
X132600000Y-93723800D01*
X132570354Y-93729803D01*
X132545379Y-93746868D01*
X132529011Y-93772305D01*
X132523800Y-93800000D01*
X132523800Y-95100000D01*
X132529803Y-95129646D01*
X132546868Y-95154621D01*
X132572305Y-95170989D01*
X132600000Y-95176200D01*
X137400000Y-95176200D01*
X137429646Y-95170197D01*
X137454621Y-95153132D01*
X137470989Y-95127695D01*
X137476200Y-95100000D01*
X137476200Y-91976200D01*
X144471742Y-91976200D01*
X144466922Y-92000000D01*
X144466922Y-93000000D01*
X144482862Y-93084714D01*
X144532928Y-93162518D01*
X144609320Y-93214715D01*
X144700000Y-93233078D01*
X145423800Y-93233078D01*
X145423800Y-93266922D01*
X144700000Y-93266922D01*
X144615286Y-93282862D01*
X144537482Y-93332928D01*
X144485285Y-93409320D01*
X144466922Y-93500000D01*
X144466922Y-94500000D01*
X144482862Y-94584714D01*
X144532928Y-94662518D01*
X144609320Y-94714715D01*
X144700000Y-94733078D01*
X145423800Y-94733078D01*
X145423800Y-103766922D01*
X144700000Y-103766922D01*
X144615286Y-103782862D01*
X144537482Y-103832928D01*
X144485285Y-103909320D01*
X144466922Y-104000000D01*
X144466922Y-105000000D01*
X144482862Y-105084714D01*
X144532928Y-105162518D01*
X144609320Y-105214715D01*
X144700000Y-105233078D01*
X145423800Y-105233078D01*
X145423800Y-105266922D01*
X144700000Y-105266922D01*
X144615286Y-105282862D01*
X144537482Y-105332928D01*
X144485285Y-105409320D01*
X144466922Y-105500000D01*
X144466922Y-106500000D01*
X144471400Y-106523800D01*
X133631564Y-106523800D01*
X132976200Y-105868436D01*
X132976200Y-101100000D01*
X132970197Y-101070354D01*
X132953132Y-101045379D01*
X132927695Y-101029011D01*
X132900000Y-101023800D01*
X131000000Y-101023800D01*
X130970354Y-101029803D01*
X130945379Y-101046868D01*
X130929011Y-101072305D01*
X130923800Y-101100000D01*
X130923800Y-102128521D01*
X130786820Y-102128401D01*
X130576694Y-102215224D01*
X130415789Y-102375849D01*
X130328600Y-102585823D01*
X130328401Y-102813180D01*
X130415224Y-103023306D01*
X130571400Y-103179754D01*
X130571400Y-105305133D01*
X130170540Y-105705993D01*
X130101976Y-105637309D01*
X129901334Y-105553995D01*
X129684082Y-105553805D01*
X129483294Y-105636769D01*
X129329540Y-105790255D01*
X129246226Y-105990897D01*
X129246036Y-106208149D01*
X129329000Y-106408937D01*
X129482486Y-106562691D01*
X129683128Y-106646005D01*
X129900380Y-106646195D01*
X130101168Y-106563231D01*
X130236034Y-106428600D01*
X130241243Y-106428600D01*
X130366993Y-106403587D01*
X130473598Y-106332355D01*
X130923800Y-105882153D01*
X130923800Y-107500000D01*
X130929803Y-107529646D01*
X130946868Y-107554621D01*
X130972305Y-107570989D01*
X131000000Y-107576200D01*
X131123800Y-107576200D01*
X131123800Y-108423800D01*
X130183078Y-108423800D01*
X130183078Y-107700000D01*
X130167138Y-107615286D01*
X130117072Y-107537482D01*
X130040680Y-107485285D01*
X129950000Y-107466922D01*
X128950000Y-107466922D01*
X128865286Y-107482862D01*
X128787482Y-107532928D01*
X128735285Y-107609320D01*
X128716922Y-107700000D01*
X128716922Y-108423800D01*
X128683078Y-108423800D01*
X128683078Y-107700000D01*
X128667138Y-107615286D01*
X128617072Y-107537482D01*
X128540680Y-107485285D01*
X128450000Y-107466922D01*
X127450000Y-107466922D01*
X127365286Y-107482862D01*
X127287482Y-107532928D01*
X127235285Y-107609320D01*
X127216922Y-107700000D01*
X127216922Y-108423800D01*
X127183078Y-108423800D01*
X127183078Y-107700000D01*
X127167138Y-107615286D01*
X127117072Y-107537482D01*
X127040680Y-107485285D01*
X126950000Y-107466922D01*
X125950000Y-107466922D01*
X125865286Y-107482862D01*
X125787482Y-107532928D01*
X125735285Y-107609320D01*
X125716922Y-107700000D01*
X125716922Y-108423800D01*
X125683078Y-108423800D01*
X125683078Y-107700000D01*
X125667138Y-107615286D01*
X125617072Y-107537482D01*
X125540680Y-107485285D01*
X125450000Y-107466922D01*
X124450000Y-107466922D01*
X124365286Y-107482862D01*
X124287482Y-107532928D01*
X124235285Y-107609320D01*
X124216922Y-107700000D01*
X124216922Y-108423800D01*
X124183078Y-108423800D01*
X124183078Y-107700000D01*
X124167138Y-107615286D01*
X124117072Y-107537482D01*
X124040680Y-107485285D01*
X123950000Y-107466922D01*
X122950000Y-107466922D01*
X122865286Y-107482862D01*
X122787482Y-107532928D01*
X122735285Y-107609320D01*
X122716922Y-107700000D01*
X122716922Y-108423800D01*
X115233078Y-108423800D01*
X115233078Y-107700000D01*
X115217138Y-107615286D01*
X115167072Y-107537482D01*
X115090680Y-107485285D01*
X115000000Y-107466922D01*
X114000000Y-107466922D01*
X113915286Y-107482862D01*
X113837482Y-107532928D01*
X113785285Y-107609320D01*
X113766922Y-107700000D01*
X113766922Y-108423800D01*
X113733078Y-108423800D01*
X113733078Y-107700000D01*
X113717138Y-107615286D01*
X113667072Y-107537482D01*
X113590680Y-107485285D01*
X113500000Y-107466922D01*
X112500000Y-107466922D01*
X112415286Y-107482862D01*
X112337482Y-107532928D01*
X112285285Y-107609320D01*
X112266922Y-107700000D01*
X112266922Y-108423800D01*
X112076200Y-108423800D01*
X112076200Y-105237214D01*
X123759802Y-105237214D01*
X123840836Y-105433332D01*
X123990753Y-105583511D01*
X124186729Y-105664887D01*
X124215100Y-105664912D01*
X124699466Y-106149279D01*
X124699314Y-106323542D01*
X124780348Y-106519660D01*
X124930265Y-106669839D01*
X125126241Y-106751215D01*
X125338440Y-106751400D01*
X125534558Y-106670366D01*
X125684737Y-106520449D01*
X125766113Y-106324473D01*
X125766298Y-106112274D01*
X125685264Y-105916156D01*
X125535347Y-105765977D01*
X125339371Y-105684601D01*
X125164057Y-105684448D01*
X124794665Y-105315056D01*
X124826601Y-105238145D01*
X124826786Y-105025946D01*
X124745752Y-104829828D01*
X124595835Y-104679649D01*
X124399859Y-104598273D01*
X124187660Y-104598088D01*
X123991542Y-104679122D01*
X123841363Y-104829039D01*
X123759987Y-105025015D01*
X123759802Y-105237214D01*
X112076200Y-105237214D01*
X112076200Y-100733078D01*
X112800000Y-100733078D01*
X112884714Y-100717138D01*
X112962518Y-100667072D01*
X113014715Y-100590680D01*
X113033078Y-100500000D01*
X113033078Y-99663180D01*
X134128401Y-99663180D01*
X134215224Y-99873306D01*
X134375849Y-100034211D01*
X134585823Y-100121400D01*
X134813180Y-100121599D01*
X135023306Y-100034776D01*
X135184211Y-99874151D01*
X135271400Y-99664177D01*
X135271593Y-99443117D01*
X135286110Y-99428600D01*
X136913890Y-99428600D01*
X138078593Y-100593304D01*
X138078401Y-100813180D01*
X138165224Y-101023306D01*
X138325849Y-101184211D01*
X138535823Y-101271400D01*
X138763180Y-101271599D01*
X138973306Y-101184776D01*
X139134211Y-101024151D01*
X139221400Y-100814177D01*
X139221599Y-100586820D01*
X139134776Y-100376694D01*
X138974151Y-100215789D01*
X138764177Y-100128600D01*
X138543117Y-100128407D01*
X137282355Y-98867645D01*
X137175750Y-98796413D01*
X137050000Y-98771400D01*
X135150000Y-98771400D01*
X135024250Y-98796413D01*
X134917645Y-98867645D01*
X134806697Y-98978593D01*
X134586820Y-98978401D01*
X134376694Y-99065224D01*
X134215789Y-99225849D01*
X134128600Y-99435823D01*
X134128401Y-99663180D01*
X113033078Y-99663180D01*
X113033078Y-99500000D01*
X113017138Y-99415286D01*
X112967072Y-99337482D01*
X112890680Y-99285285D01*
X112800000Y-99266922D01*
X112076200Y-99266922D01*
X112076200Y-99233078D01*
X112800000Y-99233078D01*
X112884714Y-99217138D01*
X112962518Y-99167072D01*
X113014715Y-99090680D01*
X113033078Y-99000000D01*
X113033078Y-98163180D01*
X134128401Y-98163180D01*
X134215224Y-98373306D01*
X134375849Y-98534211D01*
X134585823Y-98621400D01*
X134813180Y-98621599D01*
X135023306Y-98534776D01*
X135179754Y-98378600D01*
X137419552Y-98378600D01*
X137545302Y-98353587D01*
X137651907Y-98282355D01*
X138486962Y-97447301D01*
X138706838Y-97447493D01*
X138916964Y-97360670D01*
X139077869Y-97200045D01*
X139165058Y-96990071D01*
X139165257Y-96762714D01*
X139078434Y-96552588D01*
X138917809Y-96391683D01*
X138707835Y-96304494D01*
X138480478Y-96304295D01*
X138270352Y-96391118D01*
X138109447Y-96551743D01*
X138022258Y-96761717D01*
X138022065Y-96982777D01*
X137283442Y-97721400D01*
X135179491Y-97721400D01*
X135024151Y-97565789D01*
X134814177Y-97478600D01*
X134586820Y-97478401D01*
X134376694Y-97565224D01*
X134215789Y-97725849D01*
X134128600Y-97935823D01*
X134128401Y-98163180D01*
X113033078Y-98163180D01*
X113033078Y-98000000D01*
X113017138Y-97915286D01*
X112967072Y-97837482D01*
X112890680Y-97785285D01*
X112800000Y-97766922D01*
X112076200Y-97766922D01*
X112076200Y-89976200D01*
X112266922Y-89976200D01*
X112266922Y-90800000D01*
M02*
