G04 #@! TF.FileFunction,Legend,Top*
%FSLAX46Y46*%
G04 Gerber Fmt 4.6, Leading zero omitted, Abs format (unit mm)*
G04 Created by KiCad (PCBNEW (2015-09-15 BZR 13, Git 37c8462)-brewed_product) date Thursday, 17 September 2015 'pmt' 19:10:14*
%MOMM*%
G01*
G04 APERTURE LIST*
%ADD10C,0.020000*%
%ADD11C,0.127000*%
%ADD12C,0.150000*%
%ADD13C,0.149860*%
%ADD14C,0.100000*%
G04 APERTURE END LIST*
D10*
D11*
X120442857Y-91428571D02*
X120471428Y-91400000D01*
X120528571Y-91371429D01*
X120671428Y-91371429D01*
X120728571Y-91400000D01*
X120757142Y-91428571D01*
X120785714Y-91485714D01*
X120785714Y-91542857D01*
X120757142Y-91628571D01*
X120414285Y-91971429D01*
X120785714Y-91971429D01*
X120985714Y-91371429D02*
X121385714Y-91371429D01*
X121128571Y-91971429D01*
X143242857Y-100128571D02*
X143271428Y-100100000D01*
X143328571Y-100071429D01*
X143471428Y-100071429D01*
X143528571Y-100100000D01*
X143557142Y-100128571D01*
X143585714Y-100185714D01*
X143585714Y-100242857D01*
X143557142Y-100328571D01*
X143214285Y-100671429D01*
X143585714Y-100671429D01*
X143957143Y-100071429D02*
X144014286Y-100071429D01*
X144071429Y-100100000D01*
X144100000Y-100128571D01*
X144128571Y-100185714D01*
X144157143Y-100300000D01*
X144157143Y-100442857D01*
X144128571Y-100557143D01*
X144100000Y-100614286D01*
X144071429Y-100642857D01*
X144014286Y-100671429D01*
X143957143Y-100671429D01*
X143900000Y-100642857D01*
X143871429Y-100614286D01*
X143842857Y-100557143D01*
X143814286Y-100442857D01*
X143814286Y-100300000D01*
X143842857Y-100185714D01*
X143871429Y-100128571D01*
X143900000Y-100100000D01*
X143957143Y-100071429D01*
X133685714Y-108571429D02*
X133342857Y-108571429D01*
X133514285Y-108571429D02*
X133514285Y-107971429D01*
X133457142Y-108057143D01*
X133400000Y-108114286D01*
X133342857Y-108142857D01*
X134228571Y-107971429D02*
X133942857Y-107971429D01*
X133914286Y-108257143D01*
X133942857Y-108228571D01*
X134000000Y-108200000D01*
X134142857Y-108200000D01*
X134200000Y-108228571D01*
X134228571Y-108257143D01*
X134257143Y-108314286D01*
X134257143Y-108457143D01*
X134228571Y-108514286D01*
X134200000Y-108542857D01*
X134142857Y-108571429D01*
X134000000Y-108571429D01*
X133942857Y-108542857D01*
X133914286Y-108514286D01*
X122285715Y-108571429D02*
X122400000Y-108571429D01*
X122457143Y-108542857D01*
X122485715Y-108514286D01*
X122542857Y-108428571D01*
X122571429Y-108314286D01*
X122571429Y-108085714D01*
X122542857Y-108028571D01*
X122514286Y-108000000D01*
X122457143Y-107971429D01*
X122342857Y-107971429D01*
X122285715Y-108000000D01*
X122257143Y-108028571D01*
X122228572Y-108085714D01*
X122228572Y-108228571D01*
X122257143Y-108285714D01*
X122285715Y-108314286D01*
X122342857Y-108342857D01*
X122457143Y-108342857D01*
X122514286Y-108314286D01*
X122542857Y-108285714D01*
X122571429Y-108228571D01*
X115742857Y-108228571D02*
X115685715Y-108200000D01*
X115657143Y-108171429D01*
X115628572Y-108114286D01*
X115628572Y-108085714D01*
X115657143Y-108028571D01*
X115685715Y-108000000D01*
X115742857Y-107971429D01*
X115857143Y-107971429D01*
X115914286Y-108000000D01*
X115942857Y-108028571D01*
X115971429Y-108085714D01*
X115971429Y-108114286D01*
X115942857Y-108171429D01*
X115914286Y-108200000D01*
X115857143Y-108228571D01*
X115742857Y-108228571D01*
X115685715Y-108257143D01*
X115657143Y-108285714D01*
X115628572Y-108342857D01*
X115628572Y-108457143D01*
X115657143Y-108514286D01*
X115685715Y-108542857D01*
X115742857Y-108571429D01*
X115857143Y-108571429D01*
X115914286Y-108542857D01*
X115942857Y-108514286D01*
X115971429Y-108457143D01*
X115971429Y-108342857D01*
X115942857Y-108285714D01*
X115914286Y-108257143D01*
X115857143Y-108228571D01*
X113642857Y-104171429D02*
X113357143Y-104171429D01*
X113328572Y-104457143D01*
X113357143Y-104428571D01*
X113414286Y-104400000D01*
X113557143Y-104400000D01*
X113614286Y-104428571D01*
X113642857Y-104457143D01*
X113671429Y-104514286D01*
X113671429Y-104657143D01*
X113642857Y-104714286D01*
X113614286Y-104742857D01*
X113557143Y-104771429D01*
X113414286Y-104771429D01*
X113357143Y-104742857D01*
X113328572Y-104714286D01*
X113614286Y-99871429D02*
X113614286Y-100271429D01*
X113471429Y-99642857D02*
X113328572Y-100071429D01*
X113700000Y-100071429D01*
X113328572Y-93728571D02*
X113357143Y-93700000D01*
X113414286Y-93671429D01*
X113557143Y-93671429D01*
X113614286Y-93700000D01*
X113642857Y-93728571D01*
X113671429Y-93785714D01*
X113671429Y-93842857D01*
X113642857Y-93928571D01*
X113300000Y-94271429D01*
X113671429Y-94271429D01*
D12*
X113671429Y-92771429D02*
X113328572Y-92771429D01*
X113500000Y-92771429D02*
X113500000Y-92171429D01*
X113442857Y-92257143D01*
X113385715Y-92314286D01*
X113328572Y-92342857D01*
D11*
X114200000Y-107200000D02*
X114200000Y-107400000D01*
X120900000Y-90200000D02*
X121200000Y-90200000D01*
X120600000Y-90200000D02*
X120900000Y-90200000D01*
X120600000Y-90700000D02*
X118600000Y-90700000D01*
X120600000Y-89700000D02*
X120600000Y-90700000D01*
X118600000Y-89700000D02*
X120600000Y-89700000D01*
D12*
X119142858Y-89900000D02*
X119085715Y-89871429D01*
X119000001Y-89871429D01*
X118914286Y-89900000D01*
X118857144Y-89957143D01*
X118828572Y-90014286D01*
X118800001Y-90128571D01*
X118800001Y-90214286D01*
X118828572Y-90328571D01*
X118857144Y-90385714D01*
X118914286Y-90442857D01*
X119000001Y-90471429D01*
X119057144Y-90471429D01*
X119142858Y-90442857D01*
X119171429Y-90414286D01*
X119171429Y-90214286D01*
X119057144Y-90214286D01*
X119428572Y-90471429D02*
X119428572Y-89871429D01*
X119771429Y-90471429D01*
X119771429Y-89871429D01*
X120057143Y-90471429D02*
X120057143Y-89871429D01*
X120200000Y-89871429D01*
X120285715Y-89900000D01*
X120342857Y-89957143D01*
X120371429Y-90014286D01*
X120400000Y-90128571D01*
X120400000Y-90214286D01*
X120371429Y-90328571D01*
X120342857Y-90385714D01*
X120285715Y-90442857D01*
X120200000Y-90471429D01*
X120057143Y-90471429D01*
D11*
X124200000Y-89600000D02*
X124400000Y-89600000D01*
X124200000Y-91000000D02*
X124200000Y-89600000D01*
X121200000Y-91000000D02*
X124200000Y-91000000D01*
X121200000Y-89600000D02*
X121200000Y-91000000D01*
D12*
X131917157Y-106656548D02*
X132058579Y-106797970D01*
X131896954Y-107080812D02*
X131694924Y-106878782D01*
X132119188Y-106454518D01*
X132321218Y-106656548D01*
X132078781Y-107262640D02*
X132503045Y-106838376D01*
X132321218Y-107505076D01*
X132745482Y-107080812D01*
D11*
X113100000Y-98400000D02*
X113700000Y-98400000D01*
X113100000Y-100750000D02*
X111650000Y-100750000D01*
X113100000Y-97750000D02*
X113100000Y-100750000D01*
X111650000Y-97750000D02*
X113100000Y-97750000D01*
X113700000Y-98900000D02*
X115500000Y-98900000D01*
X113700000Y-97900000D02*
X113700000Y-98900000D01*
X115500000Y-97900000D02*
X113700000Y-97900000D01*
D12*
X113992858Y-98121429D02*
X114192858Y-98721429D01*
X114392858Y-98121429D01*
X114592858Y-98721429D02*
X114592858Y-98121429D01*
X114878572Y-98721429D02*
X114878572Y-98121429D01*
X115221429Y-98721429D01*
X115221429Y-98121429D01*
D11*
X143550000Y-99050000D02*
X144400000Y-99050000D01*
X143550000Y-98550000D02*
X141450000Y-98550000D01*
X143550000Y-98750000D02*
X143550000Y-98550000D01*
X144400000Y-100750000D02*
X145900000Y-100750000D01*
X144400000Y-97750000D02*
X144400000Y-100750000D01*
X145900000Y-97750000D02*
X144400000Y-97750000D01*
X142900000Y-91800000D02*
X142900000Y-91100000D01*
X143800000Y-92050000D02*
X143800000Y-93150000D01*
X141900000Y-92050000D02*
X143800000Y-92050000D01*
X141900000Y-93150000D02*
X141900000Y-92050000D01*
D12*
X142242858Y-92321429D02*
X142442858Y-92921429D01*
X142642858Y-92321429D01*
X142842858Y-92921429D02*
X142842858Y-92321429D01*
X143128572Y-92921429D02*
X143128572Y-92321429D01*
X143471429Y-92921429D01*
X143471429Y-92321429D01*
D11*
X144100000Y-93500000D02*
X144100000Y-93400000D01*
X144100000Y-94000000D02*
X144400000Y-94000000D01*
X141900000Y-93400000D02*
X144100000Y-93400000D01*
X144100000Y-94500000D02*
X141900000Y-94500000D01*
X144100000Y-93500000D02*
X144100000Y-94500000D01*
X116500000Y-108500000D02*
X121000000Y-108500000D01*
X116500000Y-108000000D02*
X116500000Y-108500000D01*
X116500000Y-107400000D02*
X121000000Y-107400000D01*
X116500000Y-108000000D02*
X116500000Y-107400000D01*
X115300000Y-107400000D02*
X115300000Y-108800000D01*
X112200000Y-107400000D02*
X115300000Y-107400000D01*
X112200000Y-108800000D02*
X112200000Y-107400000D01*
D12*
X116814286Y-107728571D02*
X116842857Y-107700000D01*
X116900000Y-107671429D01*
X117042857Y-107671429D01*
X117100000Y-107700000D01*
X117128571Y-107728571D01*
X117157143Y-107785714D01*
X117157143Y-107842857D01*
X117128571Y-107928571D01*
X116785714Y-108271429D01*
X117157143Y-108271429D01*
X117414286Y-108214286D02*
X117442858Y-108242857D01*
X117414286Y-108271429D01*
X117385715Y-108242857D01*
X117414286Y-108214286D01*
X117414286Y-108271429D01*
X117985714Y-107671429D02*
X117700000Y-107671429D01*
X117671429Y-107957143D01*
X117700000Y-107928571D01*
X117757143Y-107900000D01*
X117900000Y-107900000D01*
X117957143Y-107928571D01*
X117985714Y-107957143D01*
X118014286Y-108014286D01*
X118014286Y-108157143D01*
X117985714Y-108214286D01*
X117957143Y-108242857D01*
X117900000Y-108271429D01*
X117757143Y-108271429D01*
X117700000Y-108242857D01*
X117671429Y-108214286D01*
X118185715Y-107671429D02*
X118385715Y-108271429D01*
X118585715Y-107671429D01*
X119242858Y-108271429D02*
X119242858Y-107671429D01*
X119242858Y-107957143D02*
X119585715Y-107957143D01*
X119585715Y-108271429D02*
X119585715Y-107671429D01*
X119871429Y-108271429D02*
X119871429Y-107671429D01*
X120100001Y-107671429D01*
X120157143Y-107700000D01*
X120185715Y-107728571D01*
X120214286Y-107785714D01*
X120214286Y-107871429D01*
X120185715Y-107928571D01*
X120157143Y-107957143D01*
X120100001Y-107985714D01*
X119871429Y-107985714D01*
X120442858Y-108242857D02*
X120528572Y-108271429D01*
X120671429Y-108271429D01*
X120728572Y-108242857D01*
X120757143Y-108214286D01*
X120785715Y-108157143D01*
X120785715Y-108100000D01*
X120757143Y-108042857D01*
X120728572Y-108014286D01*
X120671429Y-107985714D01*
X120557143Y-107957143D01*
X120500001Y-107928571D01*
X120471429Y-107900000D01*
X120442858Y-107842857D01*
X120442858Y-107785714D01*
X120471429Y-107728571D01*
X120500001Y-107700000D01*
X120557143Y-107671429D01*
X120700001Y-107671429D01*
X120785715Y-107700000D01*
D11*
X111900000Y-103300000D02*
X111900000Y-101100000D01*
X112500000Y-103300000D02*
X111900000Y-103300000D01*
X113100000Y-103300000D02*
X113100000Y-101100000D01*
X113000000Y-103300000D02*
X113100000Y-103300000D01*
X112500000Y-103300000D02*
X113000000Y-103300000D01*
X112500000Y-103700000D02*
X112500000Y-103300000D01*
X113100000Y-103700000D02*
X111700000Y-103700000D01*
X113100000Y-106800000D02*
X113100000Y-103700000D01*
X111800000Y-106800000D02*
X113100000Y-106800000D01*
D12*
X112200000Y-102657142D02*
X112171429Y-102714285D01*
X112171429Y-102799999D01*
X112200000Y-102885714D01*
X112257143Y-102942856D01*
X112314286Y-102971428D01*
X112428571Y-102999999D01*
X112514286Y-102999999D01*
X112628571Y-102971428D01*
X112685714Y-102942856D01*
X112742857Y-102885714D01*
X112771429Y-102799999D01*
X112771429Y-102742856D01*
X112742857Y-102657142D01*
X112714286Y-102628571D01*
X112514286Y-102628571D01*
X112514286Y-102742856D01*
X112771429Y-102371428D02*
X112171429Y-102371428D01*
X112771429Y-102028571D01*
X112171429Y-102028571D01*
X112771429Y-101742857D02*
X112171429Y-101742857D01*
X112171429Y-101600000D01*
X112200000Y-101514285D01*
X112257143Y-101457143D01*
X112314286Y-101428571D01*
X112428571Y-101400000D01*
X112514286Y-101400000D01*
X112628571Y-101428571D01*
X112685714Y-101457143D01*
X112742857Y-101514285D01*
X112771429Y-101600000D01*
X112771429Y-101742857D01*
D11*
X111900000Y-95200000D02*
X111900000Y-97500000D01*
X112500000Y-95200000D02*
X111900000Y-95200000D01*
X113100000Y-95200000D02*
X113100000Y-97500000D01*
X112500000Y-95200000D02*
X113100000Y-95200000D01*
X112500000Y-95100000D02*
X112500000Y-95200000D01*
X112500000Y-94800000D02*
X112500000Y-95100000D01*
X113100000Y-94800000D02*
X111700000Y-94800000D01*
X113100000Y-91700000D02*
X113100000Y-94800000D01*
X111800000Y-91700000D02*
X113100000Y-91700000D01*
D12*
X116142857Y-89928571D02*
X116171428Y-89900000D01*
X116228571Y-89871429D01*
X116371428Y-89871429D01*
X116428571Y-89900000D01*
X116457142Y-89928571D01*
X116485714Y-89985714D01*
X116485714Y-90042857D01*
X116457142Y-90128571D01*
X116114285Y-90471429D01*
X116485714Y-90471429D01*
X116742857Y-90414286D02*
X116771429Y-90442857D01*
X116742857Y-90471429D01*
X116714286Y-90442857D01*
X116742857Y-90414286D01*
X116742857Y-90471429D01*
X117314285Y-89871429D02*
X117028571Y-89871429D01*
X117000000Y-90157143D01*
X117028571Y-90128571D01*
X117085714Y-90100000D01*
X117228571Y-90100000D01*
X117285714Y-90128571D01*
X117314285Y-90157143D01*
X117342857Y-90214286D01*
X117342857Y-90357143D01*
X117314285Y-90414286D01*
X117285714Y-90442857D01*
X117228571Y-90471429D01*
X117085714Y-90471429D01*
X117028571Y-90442857D01*
X117000000Y-90414286D01*
X117514286Y-89871429D02*
X117714286Y-90471429D01*
X117914286Y-89871429D01*
D11*
X115800000Y-90700000D02*
X118000000Y-90700000D01*
X115800000Y-90200000D02*
X115800000Y-90700000D01*
X115800000Y-89700000D02*
X118000000Y-89700000D01*
X115800000Y-90200000D02*
X115800000Y-89700000D01*
X115300000Y-90200000D02*
X115800000Y-90200000D01*
X115300000Y-89600000D02*
X115300000Y-89700000D01*
X115300000Y-91100000D02*
X115300000Y-89700000D01*
X112200000Y-91100000D02*
X115300000Y-91100000D01*
X112200000Y-89600000D02*
X112200000Y-91100000D01*
D12*
X112200000Y-96857142D02*
X112171429Y-96914285D01*
X112171429Y-96999999D01*
X112200000Y-97085714D01*
X112257143Y-97142856D01*
X112314286Y-97171428D01*
X112428571Y-97199999D01*
X112514286Y-97199999D01*
X112628571Y-97171428D01*
X112685714Y-97142856D01*
X112742857Y-97085714D01*
X112771429Y-96999999D01*
X112771429Y-96942856D01*
X112742857Y-96857142D01*
X112714286Y-96828571D01*
X112514286Y-96828571D01*
X112514286Y-96942856D01*
X112771429Y-96571428D02*
X112171429Y-96571428D01*
X112771429Y-96228571D01*
X112171429Y-96228571D01*
X112771429Y-95942857D02*
X112171429Y-95942857D01*
X112171429Y-95800000D01*
X112200000Y-95714285D01*
X112257143Y-95657143D01*
X112314286Y-95628571D01*
X112428571Y-95600000D01*
X112514286Y-95600000D01*
X112628571Y-95628571D01*
X112685714Y-95657143D01*
X112742857Y-95714285D01*
X112771429Y-95800000D01*
X112771429Y-95942857D01*
D11*
X143550000Y-99600000D02*
X141450000Y-99600000D01*
X143550000Y-99200000D02*
X143550000Y-99600000D01*
X143550000Y-99200000D02*
X143550000Y-98700000D01*
X142200000Y-91100000D02*
X142200000Y-89700000D01*
X145300000Y-91100000D02*
X142200000Y-91100000D01*
X145300000Y-89700000D02*
X145300000Y-91100000D01*
D12*
X141992858Y-98800000D02*
X141935715Y-98771429D01*
X141850001Y-98771429D01*
X141764286Y-98800000D01*
X141707144Y-98857143D01*
X141678572Y-98914286D01*
X141650001Y-99028571D01*
X141650001Y-99114286D01*
X141678572Y-99228571D01*
X141707144Y-99285714D01*
X141764286Y-99342857D01*
X141850001Y-99371429D01*
X141907144Y-99371429D01*
X141992858Y-99342857D01*
X142021429Y-99314286D01*
X142021429Y-99114286D01*
X141907144Y-99114286D01*
X142278572Y-99371429D02*
X142278572Y-98771429D01*
X142621429Y-99371429D01*
X142621429Y-98771429D01*
X142907143Y-99371429D02*
X142907143Y-98771429D01*
X143050000Y-98771429D01*
X143135715Y-98800000D01*
X143192857Y-98857143D01*
X143221429Y-98914286D01*
X143250000Y-99028571D01*
X143250000Y-99114286D01*
X143221429Y-99228571D01*
X143192857Y-99285714D01*
X143135715Y-99342857D01*
X143050000Y-99371429D01*
X142907143Y-99371429D01*
D11*
X139700000Y-107600000D02*
X139600000Y-107600000D01*
X139700000Y-108700000D02*
X139600000Y-108700000D01*
X143600000Y-106500000D02*
X142300000Y-106500000D01*
X143600000Y-105300000D02*
X143600000Y-106500000D01*
X142500000Y-104200000D02*
X142300000Y-104200000D01*
X143600000Y-104200000D02*
X142500000Y-104200000D01*
X143600000Y-104300000D02*
X143600000Y-104200000D01*
X143600000Y-105300000D02*
X143600000Y-104300000D01*
X141700000Y-108700000D02*
X139700000Y-108700000D01*
X141700000Y-108200000D02*
X141700000Y-108700000D01*
X141700000Y-107600000D02*
X139700000Y-107600000D01*
X141700000Y-108200000D02*
X141700000Y-107600000D01*
X141800000Y-108200000D02*
X141700000Y-108200000D01*
X145750000Y-96300000D02*
X145750000Y-96650000D01*
X144400000Y-94800000D02*
X145900000Y-94800000D01*
X144400000Y-91700000D02*
X144400000Y-94800000D01*
X145800000Y-91700000D02*
X144400000Y-91700000D01*
D12*
X142485714Y-94271429D02*
X142142857Y-94271429D01*
X142314285Y-94271429D02*
X142314285Y-93671429D01*
X142257142Y-93757143D01*
X142200000Y-93814286D01*
X142142857Y-93842857D01*
X142742857Y-94214286D02*
X142771429Y-94242857D01*
X142742857Y-94271429D01*
X142714286Y-94242857D01*
X142742857Y-94214286D01*
X142742857Y-94271429D01*
X143342857Y-94271429D02*
X143000000Y-94271429D01*
X143171428Y-94271429D02*
X143171428Y-93671429D01*
X143114285Y-93757143D01*
X143057143Y-93814286D01*
X143000000Y-93842857D01*
X143514286Y-93671429D02*
X143714286Y-94271429D01*
X143914286Y-93671429D01*
D11*
X145300000Y-107400000D02*
X145300000Y-108800000D01*
X143200000Y-107400000D02*
X145300000Y-107400000D01*
X144400000Y-105300000D02*
X143600000Y-105300000D01*
X144400000Y-106800000D02*
X145600000Y-106800000D01*
X144400000Y-103700000D02*
X144400000Y-106800000D01*
X145600000Y-103700000D02*
X144400000Y-103700000D01*
D12*
X143271429Y-105914286D02*
X143271429Y-106257143D01*
X143271429Y-106085715D02*
X142671429Y-106085715D01*
X142757143Y-106142858D01*
X142814286Y-106200000D01*
X142842857Y-106257143D01*
X143214286Y-105657143D02*
X143242857Y-105628571D01*
X143271429Y-105657143D01*
X143242857Y-105685714D01*
X143214286Y-105657143D01*
X143271429Y-105657143D01*
X142671429Y-105085715D02*
X142671429Y-105371429D01*
X142957143Y-105400000D01*
X142928571Y-105371429D01*
X142900000Y-105314286D01*
X142900000Y-105171429D01*
X142928571Y-105114286D01*
X142957143Y-105085715D01*
X143014286Y-105057143D01*
X143157143Y-105057143D01*
X143214286Y-105085715D01*
X143242857Y-105114286D01*
X143271429Y-105171429D01*
X143271429Y-105314286D01*
X143242857Y-105371429D01*
X143214286Y-105400000D01*
X142671429Y-104885714D02*
X143271429Y-104685714D01*
X142671429Y-104485714D01*
D11*
X142200000Y-108200000D02*
X142200000Y-108800000D01*
X142200000Y-108200000D02*
X142200000Y-108100000D01*
X142200000Y-107400000D02*
X142200000Y-108100000D01*
X142200000Y-107400000D02*
X143300000Y-107400000D01*
X141700000Y-108200000D02*
X142200000Y-108200000D01*
D12*
X139942858Y-107871429D02*
X140142858Y-108471429D01*
X140342858Y-107871429D01*
X140542858Y-108471429D02*
X140542858Y-107871429D01*
X140828572Y-108471429D02*
X140828572Y-107871429D01*
X141171429Y-108471429D01*
X141171429Y-107871429D01*
X130638884Y-106264620D02*
X130618680Y-106204011D01*
X130558071Y-106143402D01*
X130477259Y-106102995D01*
X130396447Y-106102996D01*
X130335838Y-106123198D01*
X130234823Y-106183807D01*
X130174214Y-106244417D01*
X130113605Y-106345431D01*
X130093402Y-106406041D01*
X130093401Y-106486853D01*
X130133807Y-106567666D01*
X130174214Y-106608072D01*
X130255026Y-106648478D01*
X130295431Y-106648478D01*
X130436853Y-106507056D01*
X130356041Y-106426245D01*
X130436853Y-106870711D02*
X130861117Y-106446447D01*
X130679289Y-107113148D01*
X131103553Y-106688884D01*
X130881320Y-107315178D02*
X131305584Y-106890914D01*
X131406599Y-106991929D01*
X131447006Y-107072742D01*
X131447005Y-107153553D01*
X131426802Y-107214163D01*
X131366193Y-107315177D01*
X131305584Y-107375787D01*
X131204569Y-107436396D01*
X131143960Y-107456599D01*
X131063148Y-107456600D01*
X130982335Y-107416193D01*
X130881320Y-107315178D01*
X122624213Y-106758071D02*
X123048477Y-106333807D01*
X122826243Y-106960102D02*
X123250507Y-106535838D01*
X123068680Y-107202538D01*
X123492944Y-106778274D01*
X123634365Y-106919696D02*
X123876802Y-107162132D01*
X123331319Y-107465177D02*
X123755583Y-107040913D01*
X123020597Y-106159657D02*
X123990343Y-107129403D01*
X124467665Y-106252996D02*
X124184823Y-106818681D01*
X124750508Y-106535838D01*
X124467665Y-107101524D02*
X124891929Y-106677260D01*
X125174772Y-106960102D02*
X125255584Y-107040915D01*
X125275787Y-107101523D01*
X125275787Y-107182335D01*
X125215178Y-107283351D01*
X125073757Y-107424773D01*
X124972742Y-107485381D01*
X124891929Y-107485381D01*
X124831320Y-107465179D01*
X124750508Y-107384367D01*
X124730305Y-107323757D01*
X124730305Y-107242944D01*
X124790914Y-107141930D01*
X124932335Y-107000509D01*
X125033351Y-106939899D01*
X125114163Y-106939899D01*
X125174772Y-106960102D01*
X125513097Y-106406548D02*
X125553502Y-106487361D01*
X125654517Y-106588376D01*
X125715127Y-106608579D01*
X125755532Y-106608579D01*
X125816142Y-106588376D01*
X125856548Y-106547970D01*
X125876751Y-106487360D01*
X125876751Y-106446955D01*
X125856548Y-106386345D01*
X125795939Y-106285330D01*
X125775737Y-106224721D01*
X125775736Y-106184315D01*
X125795939Y-106123706D01*
X125836346Y-106083299D01*
X125896955Y-106063096D01*
X125937361Y-106063097D01*
X125997969Y-106083299D01*
X126098985Y-106184315D01*
X126139391Y-106265127D01*
X125917157Y-106851016D02*
X126341421Y-106426752D01*
X126442437Y-106527767D01*
X126482843Y-106608579D01*
X126482843Y-106689391D01*
X126462640Y-106750001D01*
X126402031Y-106851015D01*
X126341421Y-106911625D01*
X126240407Y-106972234D01*
X126179797Y-106992437D01*
X126098986Y-106992437D01*
X126018172Y-106952031D01*
X125917157Y-106851016D01*
X126442437Y-107133859D02*
X126644468Y-107335889D01*
X126280812Y-107214671D02*
X126846498Y-106931828D01*
X126563655Y-107497514D01*
X127023198Y-106416650D02*
X127063604Y-106497462D01*
X127164619Y-106598478D01*
X127225229Y-106618680D01*
X127265634Y-106618680D01*
X127326244Y-106598478D01*
X127366650Y-106558071D01*
X127386853Y-106497462D01*
X127386853Y-106457056D01*
X127366650Y-106396447D01*
X127306040Y-106295431D01*
X127285838Y-106234823D01*
X127285838Y-106194416D01*
X127306041Y-106133807D01*
X127346447Y-106093401D01*
X127407056Y-106073198D01*
X127447462Y-106073198D01*
X127508071Y-106093401D01*
X127609087Y-106194417D01*
X127649493Y-106275229D01*
X127710102Y-107063148D02*
X127669696Y-107063148D01*
X127588884Y-107022742D01*
X127548478Y-106982336D01*
X127508071Y-106901523D01*
X127508072Y-106820711D01*
X127528275Y-106760102D01*
X127588884Y-106659087D01*
X127649493Y-106598478D01*
X127750508Y-106537869D01*
X127811118Y-106517666D01*
X127891929Y-106517665D01*
X127972742Y-106558072D01*
X128013148Y-106598478D01*
X128053554Y-106679290D01*
X128053554Y-106719696D01*
X128053553Y-107487412D02*
X127851523Y-107285382D01*
X128275787Y-106861118D01*
X128472690Y-106506548D02*
X128896954Y-106082284D01*
X129058579Y-106243909D01*
X129078781Y-106304517D01*
X129078782Y-106344924D01*
X129058579Y-106405532D01*
X128997969Y-106466142D01*
X128937361Y-106486345D01*
X128896954Y-106486345D01*
X128836346Y-106466142D01*
X128674721Y-106304517D01*
X129523249Y-106748985D02*
X129503045Y-106688376D01*
X129442437Y-106627767D01*
X129361624Y-106587360D01*
X129280812Y-106587361D01*
X129220203Y-106607563D01*
X129119188Y-106668172D01*
X129058579Y-106728782D01*
X128997970Y-106829797D01*
X128977767Y-106890406D01*
X128977766Y-106971218D01*
X129018172Y-107052031D01*
X129058579Y-107092437D01*
X129139391Y-107132843D01*
X129179797Y-107132843D01*
X129321218Y-106991421D01*
X129240406Y-106910610D01*
X129321218Y-107355076D02*
X129745482Y-106930812D01*
X129846497Y-107031828D01*
X129886904Y-107112640D01*
X129886903Y-107193452D01*
X129866701Y-107254061D01*
X129806092Y-107355076D01*
X129745482Y-107415685D01*
X129644468Y-107476294D01*
X129583858Y-107496497D01*
X129503046Y-107496498D01*
X129422233Y-107456092D01*
X129321218Y-107355076D01*
X133225000Y-96900000D02*
X133225000Y-97400000D01*
X134175000Y-97400000D02*
X134175000Y-96900000D01*
X133225000Y-99975000D02*
X133225000Y-100475000D01*
X134175000Y-100475000D02*
X134175000Y-99975000D01*
X123275000Y-94150000D02*
X123275000Y-94650000D01*
X124225000Y-94650000D02*
X124225000Y-94150000D01*
X124175000Y-102950000D02*
X124175000Y-102450000D01*
X123225000Y-102450000D02*
X123225000Y-102950000D01*
X133950000Y-91425000D02*
X133450000Y-91425000D01*
X133450000Y-92375000D02*
X133950000Y-92375000D01*
X131175000Y-103550000D02*
X131175000Y-104050000D01*
X132125000Y-104050000D02*
X132125000Y-103550000D01*
X123750000Y-92475000D02*
X124250000Y-92475000D01*
X124250000Y-91525000D02*
X123750000Y-91525000D01*
X124625000Y-104150000D02*
X124625000Y-104650000D01*
X125575000Y-104650000D02*
X125575000Y-104150000D01*
X132750000Y-93700000D02*
X132750000Y-94700000D01*
X134450000Y-94700000D02*
X134450000Y-93700000D01*
X134450000Y-103450000D02*
X134450000Y-102450000D01*
X132750000Y-102450000D02*
X132750000Y-103450000D01*
X121200000Y-96350000D02*
X121200000Y-97350000D01*
X122900000Y-97350000D02*
X122900000Y-96350000D01*
X122900000Y-100700000D02*
X122900000Y-99700000D01*
X121200000Y-99700000D02*
X121200000Y-100700000D01*
X145750000Y-96900000D02*
X145750000Y-95900000D01*
X144050000Y-95900000D02*
X144050000Y-96900000D01*
X141900000Y-101700000D02*
X141900000Y-102700000D01*
X143600000Y-102700000D02*
X143600000Y-101700000D01*
X143600000Y-96900000D02*
X143600000Y-95900000D01*
X141900000Y-95900000D02*
X141900000Y-96900000D01*
X144050000Y-101700000D02*
X144050000Y-102700000D01*
X145750000Y-102700000D02*
X145750000Y-101700000D01*
X122400000Y-93150000D02*
X122400000Y-93850000D01*
X121200000Y-93850000D02*
X121200000Y-93150000D01*
X121200000Y-103900000D02*
X121200000Y-103200000D01*
X122400000Y-103200000D02*
X122400000Y-103900000D01*
X129325000Y-93000000D02*
X129325000Y-92500000D01*
X128375000Y-92500000D02*
X128375000Y-93000000D01*
X127075000Y-92800000D02*
X127075000Y-93300000D01*
X128025000Y-93300000D02*
X128025000Y-92800000D01*
D13*
X135200760Y-90196920D02*
X141200240Y-90196920D01*
X141200240Y-90196920D02*
X141200240Y-90224860D01*
X141200240Y-96275140D02*
X141200240Y-96303080D01*
X135200760Y-96303080D02*
X141200240Y-96303080D01*
X135200760Y-90196920D02*
X135200760Y-90224860D01*
X135200760Y-96275140D02*
X135200760Y-96303080D01*
X135200260Y-101096920D02*
X141199740Y-101096920D01*
X141199740Y-101096920D02*
X141199740Y-101124860D01*
X141199740Y-107175140D02*
X141199740Y-107203080D01*
X135200260Y-107203080D02*
X141199740Y-107203080D01*
X135200260Y-101096920D02*
X135200260Y-101124860D01*
X135200260Y-107175140D02*
X135200260Y-107203080D01*
X113896920Y-97199740D02*
X113896920Y-91200260D01*
X113896920Y-91200260D02*
X113924860Y-91200260D01*
X119975140Y-91200260D02*
X120003080Y-91200260D01*
X120003080Y-97199740D02*
X120003080Y-91200260D01*
X113896920Y-97199740D02*
X113924860Y-97199740D01*
X119975140Y-97199740D02*
X120003080Y-97199740D01*
X120053080Y-100849760D02*
X120053080Y-106849240D01*
X120053080Y-106849240D02*
X120025140Y-106849240D01*
X113974860Y-106849240D02*
X113946920Y-106849240D01*
X113946920Y-100849760D02*
X113946920Y-106849240D01*
X120053080Y-100849760D02*
X120025140Y-100849760D01*
X113974860Y-100849760D02*
X113946920Y-100849760D01*
D12*
X139292500Y-100365000D02*
X135092500Y-100365000D01*
X139292500Y-97165000D02*
X135092500Y-97165000D01*
X140200000Y-97675000D02*
X140700000Y-97675000D01*
X140700000Y-96625000D02*
X140200000Y-96625000D01*
X140975000Y-100250000D02*
X140975000Y-99750000D01*
X139925000Y-99750000D02*
X139925000Y-100250000D01*
X132225000Y-92450000D02*
X132225000Y-91950000D01*
X131175000Y-91950000D02*
X131175000Y-92450000D01*
X130775000Y-104000000D02*
X130775000Y-103500000D01*
X129725000Y-103500000D02*
X129725000Y-104000000D01*
X125475000Y-92150000D02*
X125475000Y-92650000D01*
X126525000Y-92650000D02*
X126525000Y-92150000D01*
X126975000Y-104650000D02*
X126975000Y-104150000D01*
X125925000Y-104150000D02*
X125925000Y-104650000D01*
X129065000Y-91125000D02*
X129565000Y-91125000D01*
X129565000Y-90075000D02*
X129065000Y-90075000D01*
X131165000Y-106025000D02*
X131665000Y-106025000D01*
X131665000Y-104975000D02*
X131165000Y-104975000D01*
X127550000Y-90075000D02*
X127050000Y-90075000D01*
X127050000Y-91125000D02*
X127550000Y-91125000D01*
X122925000Y-105000000D02*
X122925000Y-105500000D01*
X123975000Y-105500000D02*
X123975000Y-105000000D01*
X131250000Y-91125000D02*
X131750000Y-91125000D01*
X131750000Y-90075000D02*
X131250000Y-90075000D01*
X133250000Y-105725000D02*
X133750000Y-105725000D01*
X133750000Y-104675000D02*
X133250000Y-104675000D01*
X125550000Y-90175000D02*
X125050000Y-90175000D01*
X125050000Y-91225000D02*
X125550000Y-91225000D01*
X121175000Y-105935000D02*
X121175000Y-106435000D01*
X122225000Y-106435000D02*
X122225000Y-105935000D01*
X130725000Y-93250000D02*
X130725000Y-92750000D01*
X129675000Y-92750000D02*
X129675000Y-93250000D01*
D11*
X124750000Y-101650000D02*
X124750000Y-102250000D01*
X124750000Y-102250000D02*
X125350000Y-102250000D01*
X125350000Y-94750000D02*
X124750000Y-94750000D01*
X124750000Y-94750000D02*
X124750000Y-95350000D01*
X132250000Y-95350000D02*
X132250000Y-94750000D01*
X132250000Y-94750000D02*
X131650000Y-94750000D01*
X132250000Y-101650000D02*
X132250000Y-102250000D01*
X132250000Y-102250000D02*
X131650000Y-102250000D01*
D14*
X136835357Y-101293571D02*
X136778214Y-101265000D01*
X136721071Y-101207857D01*
X136635357Y-101122143D01*
X136578214Y-101093571D01*
X136521071Y-101093571D01*
X136549643Y-101236429D02*
X136492500Y-101207857D01*
X136435357Y-101150714D01*
X136406786Y-101036429D01*
X136406786Y-100836429D01*
X136435357Y-100722143D01*
X136492500Y-100665000D01*
X136549643Y-100636429D01*
X136663929Y-100636429D01*
X136721071Y-100665000D01*
X136778214Y-100722143D01*
X136806786Y-100836429D01*
X136806786Y-101036429D01*
X136778214Y-101150714D01*
X136721071Y-101207857D01*
X136663929Y-101236429D01*
X136549643Y-101236429D01*
X137378214Y-101236429D02*
X137035357Y-101236429D01*
X137206785Y-101236429D02*
X137206785Y-100636429D01*
X137149642Y-100722143D01*
X137092500Y-100779286D01*
X137035357Y-100807857D01*
X134821071Y-96707857D02*
X134906785Y-96736429D01*
X135049642Y-96736429D01*
X135106785Y-96707857D01*
X135135356Y-96679286D01*
X135163928Y-96622143D01*
X135163928Y-96565000D01*
X135135356Y-96507857D01*
X135106785Y-96479286D01*
X135049642Y-96450714D01*
X134935356Y-96422143D01*
X134878214Y-96393571D01*
X134849642Y-96365000D01*
X134821071Y-96307857D01*
X134821071Y-96250714D01*
X134849642Y-96193571D01*
X134878214Y-96165000D01*
X134935356Y-96136429D01*
X135078214Y-96136429D01*
X135163928Y-96165000D01*
X135421071Y-96736429D02*
X135421071Y-96336429D01*
X135421071Y-96136429D02*
X135392500Y-96165000D01*
X135421071Y-96193571D01*
X135449643Y-96165000D01*
X135421071Y-96136429D01*
X135421071Y-96193571D01*
X135649642Y-96136429D02*
X136049642Y-96136429D01*
X135792499Y-96736429D01*
X136249643Y-96193571D02*
X136278214Y-96165000D01*
X136335357Y-96136429D01*
X136478214Y-96136429D01*
X136535357Y-96165000D01*
X136563928Y-96193571D01*
X136592500Y-96250714D01*
X136592500Y-96307857D01*
X136563928Y-96393571D01*
X136221071Y-96736429D01*
X136592500Y-96736429D01*
X136792500Y-96136429D02*
X137163929Y-96136429D01*
X136963929Y-96365000D01*
X137049643Y-96365000D01*
X137106786Y-96393571D01*
X137135357Y-96422143D01*
X137163929Y-96479286D01*
X137163929Y-96622143D01*
X137135357Y-96679286D01*
X137106786Y-96707857D01*
X137049643Y-96736429D01*
X136878215Y-96736429D01*
X136821072Y-96707857D01*
X136792500Y-96679286D01*
X137392501Y-96193571D02*
X137421072Y-96165000D01*
X137478215Y-96136429D01*
X137621072Y-96136429D01*
X137678215Y-96165000D01*
X137706786Y-96193571D01*
X137735358Y-96250714D01*
X137735358Y-96307857D01*
X137706786Y-96393571D01*
X137363929Y-96736429D01*
X137735358Y-96736429D01*
X137992501Y-96736429D02*
X137992501Y-96136429D01*
X138135358Y-96136429D01*
X138221073Y-96165000D01*
X138278215Y-96222143D01*
X138306787Y-96279286D01*
X138335358Y-96393571D01*
X138335358Y-96479286D01*
X138306787Y-96593571D01*
X138278215Y-96650714D01*
X138221073Y-96707857D01*
X138135358Y-96736429D01*
X137992501Y-96736429D01*
X138592501Y-96736429D02*
X138592501Y-96136429D01*
X138935358Y-96736429D01*
X138935358Y-96136429D01*
D11*
X124292857Y-93821429D02*
X124292857Y-94307143D01*
X124321429Y-94364286D01*
X124350000Y-94392857D01*
X124407143Y-94421429D01*
X124521429Y-94421429D01*
X124578571Y-94392857D01*
X124607143Y-94364286D01*
X124635714Y-94307143D01*
X124635714Y-93821429D01*
X125235714Y-94421429D02*
X124892857Y-94421429D01*
X125064285Y-94421429D02*
X125064285Y-93821429D01*
X125007142Y-93907143D01*
X124950000Y-93964286D01*
X124892857Y-93992857D01*
X124471429Y-95871429D02*
X124128572Y-95871429D01*
X124300000Y-95871429D02*
X124300000Y-95271429D01*
X124242857Y-95357143D01*
X124185715Y-95414286D01*
X124128572Y-95442857D01*
M02*
