M48
INCH,TZ
T1C0.012
T2C0.013
T3C0.029
%
G90
G05
T1
X047677Y-037402
X047717Y-040157
X047992Y-037402
X048031Y-040157
X048307Y-037402
X048346Y-040157
X050197Y-036102
X051181Y-036102
X051949Y-040443
X052087Y-040157
X052441Y-040551
X052480Y-037126
X052520Y-038868
X052795Y-037126
X052815Y-038878
X052835Y-040551
X054528Y-036378
X054528Y-036772
X054528Y-037165
X054528Y-037559
X054528Y-040197
X054528Y-040591
X054528Y-040984
X054528Y-041378
X054528Y-041772
X055709Y-038780
X055709Y-039331
X055866Y-039055
X056024Y-038780
X056024Y-039331
X056181Y-039055
X056339Y-038780
X056339Y-039331
X056496Y-039055
X056654Y-038780
X056654Y-039331
T2
X048071Y-036142
X048701Y-040906
X048934Y-041390
X049252Y-040472
X049291Y-036220
X049304Y-041818
X049803Y-037992
X049803Y-038386
X049803Y-038780
X049803Y-039173
X049803Y-039567
X050197Y-037992
X050197Y-038386
X050197Y-038780
X050197Y-039173
X050197Y-039567
X050472Y-037165
X050591Y-037992
X050591Y-038386
X050591Y-038780
X050591Y-039173
X050591Y-039567
X050984Y-037992
X050984Y-038386
X050984Y-038780
X050984Y-039173
X050984Y-039567
X051099Y-041772
X051181Y-041457
X051378Y-037992
X051378Y-038386
X051378Y-038780
X051378Y-039173
X051378Y-039567
X051535Y-040433
X052047Y-036969
X052206Y-036172
X052717Y-035748
X053031Y-038602
X053031Y-039193
X054564Y-038140
X054587Y-039646
T3
X043898Y-036417
X043898Y-037008
X043898Y-038780
X043898Y-039370
X043898Y-041142
X043898Y-041732
X044488Y-035236
X044488Y-042913
X045079Y-035236
X045079Y-042913
X048031Y-035236
X048602Y-042913
X048622Y-035236
X049193Y-042913
X049783Y-042913
X050374Y-042913
X050965Y-042913
X051555Y-042913
X052146Y-042913
X056299Y-035236
X056299Y-042913
X056890Y-035236
X056890Y-042913
X057480Y-036417
X057480Y-037008
X057480Y-038780
X057480Y-039370
X057480Y-041142
X057480Y-041732
T0
M30
