G04 #@! TF.FileFunction,Soldermask,Top*
%FSLAX46Y46*%
G04 Gerber Fmt 4.6, Leading zero omitted, Abs format (unit mm)*
G04 Created by KiCad (PCBNEW (2015-09-15 BZR 13, Git 37c8462)-brewed_product) date Thursday, 17 September 2015 'pmt' 19:10:14*
%MOMM*%
G01*
G04 APERTURE LIST*
%ADD10C,0.020000*%
G04 APERTURE END LIST*
D10*
G36*
X113601600Y-108831547D02*
X113602133Y-108836985D01*
X113622290Y-108938789D01*
X113622290Y-108938793D01*
X113622327Y-108938980D01*
X113620380Y-109078372D01*
X113620338Y-109078556D01*
X113620338Y-109078565D01*
X113593344Y-109197379D01*
X113543706Y-109308868D01*
X113473359Y-109408592D01*
X113384980Y-109492753D01*
X113281940Y-109558146D01*
X113168162Y-109602277D01*
X113047972Y-109623469D01*
X112925961Y-109620914D01*
X112806766Y-109594707D01*
X112694935Y-109545849D01*
X112594723Y-109476200D01*
X112509947Y-109388412D01*
X112443838Y-109285830D01*
X112398910Y-109172356D01*
X112376880Y-109052324D01*
X112378584Y-108930297D01*
X112397788Y-108839947D01*
X112398400Y-108834126D01*
X112398400Y-107598400D01*
X113601600Y-107598400D01*
X113601600Y-108831547D01*
X113601600Y-108831547D01*
G37*
G36*
X115101600Y-108831547D02*
X115102133Y-108836985D01*
X115122290Y-108938789D01*
X115122290Y-108938793D01*
X115122327Y-108938980D01*
X115120380Y-109078372D01*
X115120338Y-109078556D01*
X115120338Y-109078565D01*
X115093344Y-109197379D01*
X115043706Y-109308868D01*
X114973359Y-109408592D01*
X114884980Y-109492753D01*
X114781940Y-109558146D01*
X114668162Y-109602277D01*
X114547972Y-109623469D01*
X114425961Y-109620914D01*
X114306766Y-109594707D01*
X114194935Y-109545849D01*
X114094723Y-109476200D01*
X114009947Y-109388412D01*
X113943838Y-109285830D01*
X113898910Y-109172356D01*
X113876880Y-109052324D01*
X113878584Y-108930297D01*
X113897788Y-108839947D01*
X113898400Y-108834126D01*
X113898400Y-107598400D01*
X115101600Y-107598400D01*
X115101600Y-108831547D01*
X115101600Y-108831547D01*
G37*
G36*
X124051600Y-108831547D02*
X124052133Y-108836985D01*
X124072290Y-108938789D01*
X124072290Y-108938793D01*
X124072327Y-108938980D01*
X124070380Y-109078372D01*
X124070338Y-109078556D01*
X124070338Y-109078565D01*
X124043344Y-109197379D01*
X123993706Y-109308868D01*
X123923359Y-109408592D01*
X123834980Y-109492753D01*
X123731940Y-109558146D01*
X123618162Y-109602277D01*
X123497972Y-109623469D01*
X123375961Y-109620914D01*
X123256766Y-109594707D01*
X123144935Y-109545849D01*
X123044723Y-109476200D01*
X122959947Y-109388412D01*
X122893838Y-109285830D01*
X122848910Y-109172356D01*
X122826880Y-109052324D01*
X122828584Y-108930297D01*
X122847788Y-108839947D01*
X122848400Y-108834126D01*
X122848400Y-107598400D01*
X124051600Y-107598400D01*
X124051600Y-108831547D01*
X124051600Y-108831547D01*
G37*
G36*
X125551600Y-108831547D02*
X125552133Y-108836985D01*
X125572290Y-108938789D01*
X125572290Y-108938793D01*
X125572327Y-108938980D01*
X125570380Y-109078372D01*
X125570338Y-109078556D01*
X125570338Y-109078565D01*
X125543344Y-109197379D01*
X125493706Y-109308868D01*
X125423359Y-109408592D01*
X125334980Y-109492753D01*
X125231940Y-109558146D01*
X125118162Y-109602277D01*
X124997972Y-109623469D01*
X124875961Y-109620914D01*
X124756766Y-109594707D01*
X124644935Y-109545849D01*
X124544723Y-109476200D01*
X124459947Y-109388412D01*
X124393838Y-109285830D01*
X124348910Y-109172356D01*
X124326880Y-109052324D01*
X124328584Y-108930297D01*
X124347788Y-108839947D01*
X124348400Y-108834126D01*
X124348400Y-107598400D01*
X125551600Y-107598400D01*
X125551600Y-108831547D01*
X125551600Y-108831547D01*
G37*
G36*
X127051600Y-108831547D02*
X127052133Y-108836985D01*
X127072290Y-108938789D01*
X127072290Y-108938793D01*
X127072327Y-108938980D01*
X127070380Y-109078372D01*
X127070338Y-109078556D01*
X127070338Y-109078565D01*
X127043344Y-109197379D01*
X126993706Y-109308868D01*
X126923359Y-109408592D01*
X126834980Y-109492753D01*
X126731940Y-109558146D01*
X126618162Y-109602277D01*
X126497972Y-109623469D01*
X126375961Y-109620914D01*
X126256766Y-109594707D01*
X126144935Y-109545849D01*
X126044723Y-109476200D01*
X125959947Y-109388412D01*
X125893838Y-109285830D01*
X125848910Y-109172356D01*
X125826880Y-109052324D01*
X125828584Y-108930297D01*
X125847788Y-108839947D01*
X125848400Y-108834126D01*
X125848400Y-107598400D01*
X127051600Y-107598400D01*
X127051600Y-108831547D01*
X127051600Y-108831547D01*
G37*
G36*
X128551600Y-108831547D02*
X128552133Y-108836985D01*
X128572290Y-108938789D01*
X128572290Y-108938793D01*
X128572327Y-108938980D01*
X128570380Y-109078372D01*
X128570338Y-109078556D01*
X128570338Y-109078565D01*
X128543344Y-109197379D01*
X128493706Y-109308868D01*
X128423359Y-109408592D01*
X128334980Y-109492753D01*
X128231940Y-109558146D01*
X128118162Y-109602277D01*
X127997972Y-109623469D01*
X127875961Y-109620914D01*
X127756766Y-109594707D01*
X127644935Y-109545849D01*
X127544723Y-109476200D01*
X127459947Y-109388412D01*
X127393838Y-109285830D01*
X127348910Y-109172356D01*
X127326880Y-109052324D01*
X127328584Y-108930297D01*
X127347788Y-108839947D01*
X127348400Y-108834126D01*
X127348400Y-107598400D01*
X128551600Y-107598400D01*
X128551600Y-108831547D01*
X128551600Y-108831547D01*
G37*
G36*
X130051600Y-108831547D02*
X130052133Y-108836985D01*
X130072290Y-108938789D01*
X130072290Y-108938793D01*
X130072327Y-108938980D01*
X130070380Y-109078372D01*
X130070338Y-109078556D01*
X130070338Y-109078565D01*
X130043344Y-109197379D01*
X129993706Y-109308868D01*
X129923359Y-109408592D01*
X129834980Y-109492753D01*
X129731940Y-109558146D01*
X129618162Y-109602277D01*
X129497972Y-109623469D01*
X129375961Y-109620914D01*
X129256766Y-109594707D01*
X129144935Y-109545849D01*
X129044723Y-109476200D01*
X128959947Y-109388412D01*
X128893838Y-109285830D01*
X128848910Y-109172356D01*
X128826880Y-109052324D01*
X128828584Y-108930297D01*
X128847788Y-108839947D01*
X128848400Y-108834126D01*
X128848400Y-107598400D01*
X130051600Y-107598400D01*
X130051600Y-108831547D01*
X130051600Y-108831547D01*
G37*
G36*
X131551600Y-108831547D02*
X131552133Y-108836985D01*
X131572290Y-108938789D01*
X131572290Y-108938793D01*
X131572327Y-108938980D01*
X131570380Y-109078372D01*
X131570338Y-109078556D01*
X131570338Y-109078565D01*
X131543344Y-109197379D01*
X131493706Y-109308868D01*
X131423359Y-109408592D01*
X131334980Y-109492753D01*
X131231940Y-109558146D01*
X131118162Y-109602277D01*
X130997972Y-109623469D01*
X130875961Y-109620914D01*
X130756766Y-109594707D01*
X130644935Y-109545849D01*
X130544723Y-109476200D01*
X130459947Y-109388412D01*
X130393838Y-109285830D01*
X130348910Y-109172356D01*
X130326880Y-109052324D01*
X130328584Y-108930297D01*
X130347788Y-108839947D01*
X130348400Y-108834126D01*
X130348400Y-107598400D01*
X131551600Y-107598400D01*
X131551600Y-108831547D01*
X131551600Y-108831547D01*
G37*
G36*
X133051600Y-108831547D02*
X133052133Y-108836985D01*
X133072290Y-108938789D01*
X133072290Y-108938793D01*
X133072327Y-108938980D01*
X133070380Y-109078372D01*
X133070338Y-109078556D01*
X133070338Y-109078565D01*
X133043344Y-109197379D01*
X132993706Y-109308868D01*
X132923359Y-109408592D01*
X132834980Y-109492753D01*
X132731940Y-109558146D01*
X132618162Y-109602277D01*
X132497972Y-109623469D01*
X132375961Y-109620914D01*
X132256766Y-109594707D01*
X132144935Y-109545849D01*
X132044723Y-109476200D01*
X131959947Y-109388412D01*
X131893838Y-109285830D01*
X131848910Y-109172356D01*
X131826880Y-109052324D01*
X131828584Y-108930297D01*
X131847788Y-108839947D01*
X131848400Y-108834126D01*
X131848400Y-107598400D01*
X133051600Y-107598400D01*
X133051600Y-108831547D01*
X133051600Y-108831547D01*
G37*
G36*
X143601600Y-108831547D02*
X143602133Y-108836985D01*
X143622290Y-108938789D01*
X143622290Y-108938793D01*
X143622327Y-108938980D01*
X143620380Y-109078372D01*
X143620338Y-109078556D01*
X143620338Y-109078565D01*
X143593344Y-109197379D01*
X143543706Y-109308868D01*
X143473359Y-109408592D01*
X143384980Y-109492753D01*
X143281940Y-109558146D01*
X143168162Y-109602277D01*
X143047972Y-109623469D01*
X142925961Y-109620914D01*
X142806766Y-109594707D01*
X142694935Y-109545849D01*
X142594723Y-109476200D01*
X142509947Y-109388412D01*
X142443838Y-109285830D01*
X142398910Y-109172356D01*
X142376880Y-109052324D01*
X142378584Y-108930297D01*
X142397788Y-108839947D01*
X142398400Y-108834126D01*
X142398400Y-107598400D01*
X143601600Y-107598400D01*
X143601600Y-108831547D01*
X143601600Y-108831547D01*
G37*
G36*
X145101600Y-108831547D02*
X145102133Y-108836985D01*
X145122290Y-108938789D01*
X145122290Y-108938793D01*
X145122327Y-108938980D01*
X145120380Y-109078372D01*
X145120338Y-109078556D01*
X145120338Y-109078565D01*
X145093344Y-109197379D01*
X145043706Y-109308868D01*
X144973359Y-109408592D01*
X144884980Y-109492753D01*
X144781940Y-109558146D01*
X144668162Y-109602277D01*
X144547972Y-109623469D01*
X144425961Y-109620914D01*
X144306766Y-109594707D01*
X144194935Y-109545849D01*
X144094723Y-109476200D01*
X144009947Y-109388412D01*
X143943838Y-109285830D01*
X143898910Y-109172356D01*
X143876880Y-109052324D01*
X143878584Y-108930297D01*
X143897788Y-108839947D01*
X143898400Y-108834126D01*
X143898400Y-107598400D01*
X145101600Y-107598400D01*
X145101600Y-108831547D01*
X145101600Y-108831547D01*
G37*
G36*
X119951480Y-107199760D02*
X114048520Y-107199760D01*
X114048520Y-105198240D01*
X119951480Y-105198240D01*
X119951480Y-107199760D01*
X119951480Y-107199760D01*
G37*
G36*
X141550260Y-107101480D02*
X139548740Y-107101480D01*
X139548740Y-101198520D01*
X141550260Y-101198520D01*
X141550260Y-107101480D01*
X141550260Y-107101480D01*
G37*
G36*
X136851260Y-107101480D02*
X134849740Y-107101480D01*
X134849740Y-101198520D01*
X136851260Y-101198520D01*
X136851260Y-107101480D01*
X136851260Y-107101480D01*
G37*
G36*
X122076000Y-106951000D02*
X121324000Y-106951000D01*
X121324000Y-106249000D01*
X122076000Y-106249000D01*
X122076000Y-106951000D01*
X122076000Y-106951000D01*
G37*
G36*
X111565362Y-105378113D02*
X111661410Y-105397828D01*
X111667040Y-105398400D01*
X112901600Y-105398400D01*
X112901600Y-106601600D01*
X111674455Y-106601600D01*
X111669593Y-106602025D01*
X111547973Y-106623469D01*
X111425961Y-106620914D01*
X111306766Y-106594707D01*
X111194935Y-106545849D01*
X111094723Y-106476200D01*
X111009947Y-106388412D01*
X110943838Y-106285830D01*
X110898910Y-106172356D01*
X110876880Y-106052324D01*
X110878584Y-105930297D01*
X110903956Y-105810927D01*
X110952036Y-105698751D01*
X111020982Y-105598058D01*
X111108178Y-105512669D01*
X111210295Y-105445846D01*
X111323448Y-105400129D01*
X111443328Y-105377260D01*
X111565362Y-105378113D01*
X111565362Y-105378113D01*
G37*
G36*
X146065362Y-105378113D02*
X146184911Y-105402652D01*
X146297414Y-105449944D01*
X146398588Y-105518186D01*
X146484582Y-105604784D01*
X146552119Y-105706435D01*
X146598624Y-105819263D01*
X146622290Y-105938789D01*
X146622290Y-105938793D01*
X146622327Y-105938980D01*
X146620380Y-106078372D01*
X146620338Y-106078556D01*
X146620338Y-106078565D01*
X146593344Y-106197379D01*
X146543706Y-106308868D01*
X146473359Y-106408592D01*
X146384980Y-106492753D01*
X146281940Y-106558146D01*
X146168162Y-106602277D01*
X146047972Y-106623469D01*
X145925961Y-106620914D01*
X145841087Y-106602253D01*
X145835074Y-106601600D01*
X144598400Y-106601600D01*
X144598400Y-105398400D01*
X145829863Y-105398400D01*
X145835110Y-105397904D01*
X145943328Y-105377260D01*
X146065362Y-105378113D01*
X146065362Y-105378113D01*
G37*
G36*
X122076000Y-106121000D02*
X121324000Y-106121000D01*
X121324000Y-105419000D01*
X122076000Y-105419000D01*
X122076000Y-106121000D01*
X122076000Y-106121000D01*
G37*
G36*
X123826000Y-106016000D02*
X123074000Y-106016000D01*
X123074000Y-105314000D01*
X123826000Y-105314000D01*
X123826000Y-106016000D01*
X123826000Y-106016000D01*
G37*
G36*
X131351000Y-105876000D02*
X130649000Y-105876000D01*
X130649000Y-105124000D01*
X131351000Y-105124000D01*
X131351000Y-105876000D01*
X131351000Y-105876000D01*
G37*
G36*
X132181000Y-105876000D02*
X131479000Y-105876000D01*
X131479000Y-105124000D01*
X132181000Y-105124000D01*
X132181000Y-105876000D01*
X132181000Y-105876000D01*
G37*
G36*
X133436000Y-105576000D02*
X132734000Y-105576000D01*
X132734000Y-104824000D01*
X133436000Y-104824000D01*
X133436000Y-105576000D01*
X133436000Y-105576000D01*
G37*
G36*
X134266000Y-105576000D02*
X133564000Y-105576000D01*
X133564000Y-104824000D01*
X134266000Y-104824000D01*
X134266000Y-105576000D01*
X134266000Y-105576000D01*
G37*
G36*
X123826000Y-105186000D02*
X123074000Y-105186000D01*
X123074000Y-104484000D01*
X123826000Y-104484000D01*
X123826000Y-105186000D01*
X123826000Y-105186000D01*
G37*
G36*
X126826000Y-105166000D02*
X126074000Y-105166000D01*
X126074000Y-104464000D01*
X126826000Y-104464000D01*
X126826000Y-105166000D01*
X126826000Y-105166000D01*
G37*
G36*
X146065362Y-103878113D02*
X146184911Y-103902652D01*
X146297414Y-103949944D01*
X146398588Y-104018186D01*
X146484582Y-104104784D01*
X146552119Y-104206435D01*
X146598624Y-104319263D01*
X146622290Y-104438789D01*
X146622290Y-104438793D01*
X146622327Y-104438980D01*
X146620380Y-104578372D01*
X146620338Y-104578556D01*
X146620338Y-104578565D01*
X146593344Y-104697379D01*
X146543706Y-104808868D01*
X146473359Y-104908592D01*
X146384980Y-104992753D01*
X146281940Y-105058146D01*
X146168162Y-105102277D01*
X146047972Y-105123469D01*
X145925961Y-105120914D01*
X145841087Y-105102253D01*
X145835074Y-105101600D01*
X144598400Y-105101600D01*
X144598400Y-103898400D01*
X145829863Y-103898400D01*
X145835110Y-103897904D01*
X145943328Y-103877260D01*
X146065362Y-103878113D01*
X146065362Y-103878113D01*
G37*
G36*
X111565362Y-103878113D02*
X111661410Y-103897828D01*
X111667040Y-103898400D01*
X112901600Y-103898400D01*
X112901600Y-105101600D01*
X111674455Y-105101600D01*
X111669593Y-105102025D01*
X111547973Y-105123469D01*
X111425961Y-105120914D01*
X111306766Y-105094707D01*
X111194935Y-105045849D01*
X111094723Y-104976200D01*
X111009947Y-104888412D01*
X110943838Y-104785830D01*
X110898910Y-104672356D01*
X110876880Y-104552324D01*
X110878584Y-104430297D01*
X110903956Y-104310927D01*
X110952036Y-104198751D01*
X111020982Y-104098058D01*
X111108178Y-104012669D01*
X111210295Y-103945846D01*
X111323448Y-103900129D01*
X111443328Y-103877260D01*
X111565362Y-103878113D01*
X111565362Y-103878113D01*
G37*
G36*
X125500000Y-105100000D02*
X124700000Y-105100000D01*
X124700000Y-104500000D01*
X125500000Y-104500000D01*
X125500000Y-105100000D01*
X125500000Y-105100000D01*
G37*
G36*
X122352400Y-104652400D02*
X121247600Y-104652400D01*
X121247600Y-103747600D01*
X122352400Y-103747600D01*
X122352400Y-104652400D01*
X122352400Y-104652400D01*
G37*
G36*
X130626000Y-104516000D02*
X129874000Y-104516000D01*
X129874000Y-103814000D01*
X130626000Y-103814000D01*
X130626000Y-104516000D01*
X130626000Y-104516000D01*
G37*
G36*
X132050000Y-104500000D02*
X131250000Y-104500000D01*
X131250000Y-103900000D01*
X132050000Y-103900000D01*
X132050000Y-104500000D01*
X132050000Y-104500000D01*
G37*
G36*
X126826000Y-104336000D02*
X126074000Y-104336000D01*
X126074000Y-103634000D01*
X126826000Y-103634000D01*
X126826000Y-104336000D01*
X126826000Y-104336000D01*
G37*
G36*
X134377400Y-104302400D02*
X132822600Y-104302400D01*
X132822600Y-103397600D01*
X134377400Y-103397600D01*
X134377400Y-104302400D01*
X134377400Y-104302400D01*
G37*
G36*
X125500000Y-104300000D02*
X124700000Y-104300000D01*
X124700000Y-103700000D01*
X125500000Y-103700000D01*
X125500000Y-104300000D01*
X125500000Y-104300000D01*
G37*
G36*
X132050000Y-103700000D02*
X131250000Y-103700000D01*
X131250000Y-103100000D01*
X132050000Y-103100000D01*
X132050000Y-103700000D01*
X132050000Y-103700000D01*
G37*
G36*
X130626000Y-103686000D02*
X129874000Y-103686000D01*
X129874000Y-102984000D01*
X130626000Y-102984000D01*
X130626000Y-103686000D01*
X130626000Y-103686000D01*
G37*
G36*
X145677400Y-103552400D02*
X144122600Y-103552400D01*
X144122600Y-102647600D01*
X145677400Y-102647600D01*
X145677400Y-103552400D01*
X145677400Y-103552400D01*
G37*
G36*
X143527400Y-103552400D02*
X141972600Y-103552400D01*
X141972600Y-102647600D01*
X143527400Y-102647600D01*
X143527400Y-103552400D01*
X143527400Y-103552400D01*
G37*
G36*
X124100000Y-103400000D02*
X123300000Y-103400000D01*
X123300000Y-102800000D01*
X124100000Y-102800000D01*
X124100000Y-103400000D01*
X124100000Y-103400000D01*
G37*
G36*
X122352400Y-103352400D02*
X121247600Y-103352400D01*
X121247600Y-102447600D01*
X122352400Y-102447600D01*
X122352400Y-103352400D01*
X122352400Y-103352400D01*
G37*
G36*
X124100000Y-102600000D02*
X123300000Y-102600000D01*
X123300000Y-102000000D01*
X124100000Y-102000000D01*
X124100000Y-102600000D01*
X124100000Y-102600000D01*
G37*
G36*
X134377400Y-102502400D02*
X132822600Y-102502400D01*
X132822600Y-101597600D01*
X134377400Y-101597600D01*
X134377400Y-102502400D01*
X134377400Y-102502400D01*
G37*
G36*
X119951480Y-102500760D02*
X114048520Y-102500760D01*
X114048520Y-100499240D01*
X119951480Y-100499240D01*
X119951480Y-102500760D01*
X119951480Y-102500760D01*
G37*
G36*
X126451560Y-102275780D02*
X126052640Y-102275780D01*
X126052640Y-101526340D01*
X126451560Y-101526340D01*
X126451560Y-102275780D01*
X126451560Y-102275780D01*
G37*
G36*
X127449780Y-102275780D02*
X127050860Y-102275780D01*
X127050860Y-101526340D01*
X127449780Y-101526340D01*
X127449780Y-102275780D01*
X127449780Y-102275780D01*
G37*
G36*
X125951180Y-102275780D02*
X125552260Y-102275780D01*
X125552260Y-101526340D01*
X125951180Y-101526340D01*
X125951180Y-102275780D01*
X125951180Y-102275780D01*
G37*
G36*
X127950160Y-102275780D02*
X127551240Y-102275780D01*
X127551240Y-101526340D01*
X127950160Y-101526340D01*
X127950160Y-102275780D01*
X127950160Y-102275780D01*
G37*
G36*
X131450280Y-102275780D02*
X131051360Y-102275780D01*
X131051360Y-101526340D01*
X131450280Y-101526340D01*
X131450280Y-102275780D01*
X131450280Y-102275780D01*
G37*
G36*
X130949900Y-102275780D02*
X130550980Y-102275780D01*
X130550980Y-101526340D01*
X130949900Y-101526340D01*
X130949900Y-102275780D01*
X130949900Y-102275780D01*
G37*
G36*
X128948380Y-102275780D02*
X128549460Y-102275780D01*
X128549460Y-101526340D01*
X128948380Y-101526340D01*
X128948380Y-102275780D01*
X128948380Y-102275780D01*
G37*
G36*
X129448760Y-102275780D02*
X129049840Y-102275780D01*
X129049840Y-101526340D01*
X129448760Y-101526340D01*
X129448760Y-102275780D01*
X129448760Y-102275780D01*
G37*
G36*
X129949140Y-102275780D02*
X129550220Y-102275780D01*
X129550220Y-101526340D01*
X129949140Y-101526340D01*
X129949140Y-102275780D01*
X129949140Y-102275780D01*
G37*
G36*
X130449520Y-102275780D02*
X130050600Y-102275780D01*
X130050600Y-101526340D01*
X130449520Y-101526340D01*
X130449520Y-102275780D01*
X130449520Y-102275780D01*
G37*
G36*
X126951940Y-102275780D02*
X126553020Y-102275780D01*
X126553020Y-101526340D01*
X126951940Y-101526340D01*
X126951940Y-102275780D01*
X126951940Y-102275780D01*
G37*
G36*
X128449460Y-102274720D02*
X128050540Y-102274720D01*
X128050540Y-101525280D01*
X128449460Y-101525280D01*
X128449460Y-102274720D01*
X128449460Y-102274720D01*
G37*
G36*
X143527400Y-101752400D02*
X141972600Y-101752400D01*
X141972600Y-100847600D01*
X143527400Y-100847600D01*
X143527400Y-101752400D01*
X143527400Y-101752400D01*
G37*
G36*
X145677400Y-101752400D02*
X144122600Y-101752400D01*
X144122600Y-100847600D01*
X145677400Y-100847600D01*
X145677400Y-101752400D01*
X145677400Y-101752400D01*
G37*
G36*
X122827400Y-101552400D02*
X121272600Y-101552400D01*
X121272600Y-100647600D01*
X122827400Y-100647600D01*
X122827400Y-101552400D01*
X122827400Y-101552400D01*
G37*
G36*
X125476200Y-101450280D02*
X124726760Y-101450280D01*
X124726760Y-101051360D01*
X125476200Y-101051360D01*
X125476200Y-101450280D01*
X125476200Y-101450280D01*
G37*
G36*
X132273240Y-101447740D02*
X131523800Y-101447740D01*
X131523800Y-101048820D01*
X132273240Y-101048820D01*
X132273240Y-101447740D01*
X132273240Y-101447740D01*
G37*
G36*
X131150000Y-101150000D02*
X125850000Y-101150000D01*
X125850000Y-95850000D01*
X131150000Y-95850000D01*
X131150000Y-101150000D01*
X131150000Y-101150000D01*
G37*
G36*
X125476200Y-100952440D02*
X124726760Y-100952440D01*
X124726760Y-100553520D01*
X125476200Y-100553520D01*
X125476200Y-100952440D01*
X125476200Y-100952440D01*
G37*
G36*
X132275780Y-100947360D02*
X131526340Y-100947360D01*
X131526340Y-100548440D01*
X132275780Y-100548440D01*
X132275780Y-100947360D01*
X132275780Y-100947360D01*
G37*
G36*
X134100000Y-100925000D02*
X133300000Y-100925000D01*
X133300000Y-100325000D01*
X134100000Y-100325000D01*
X134100000Y-100925000D01*
X134100000Y-100925000D01*
G37*
G36*
X140826000Y-100766000D02*
X140074000Y-100766000D01*
X140074000Y-100064000D01*
X140826000Y-100064000D01*
X140826000Y-100766000D01*
X140826000Y-100766000D01*
G37*
G36*
X111565362Y-99378113D02*
X111661410Y-99397828D01*
X111667040Y-99398400D01*
X112901600Y-99398400D01*
X112901600Y-100601600D01*
X111674455Y-100601600D01*
X111669593Y-100602025D01*
X111547973Y-100623469D01*
X111425961Y-100620914D01*
X111306766Y-100594707D01*
X111194935Y-100545849D01*
X111094723Y-100476200D01*
X111009947Y-100388412D01*
X110943838Y-100285830D01*
X110898910Y-100172356D01*
X110876880Y-100052324D01*
X110878584Y-99930297D01*
X110903956Y-99810927D01*
X110952036Y-99698751D01*
X111020982Y-99598058D01*
X111108178Y-99512669D01*
X111210295Y-99445846D01*
X111323448Y-99400129D01*
X111443328Y-99377260D01*
X111565362Y-99378113D01*
X111565362Y-99378113D01*
G37*
G36*
X146065362Y-99378113D02*
X146184911Y-99402652D01*
X146297414Y-99449944D01*
X146398588Y-99518186D01*
X146484582Y-99604784D01*
X146552119Y-99706435D01*
X146598624Y-99819263D01*
X146622290Y-99938789D01*
X146622290Y-99938793D01*
X146622327Y-99938980D01*
X146620380Y-100078372D01*
X146620338Y-100078556D01*
X146620338Y-100078565D01*
X146593344Y-100197379D01*
X146543706Y-100308868D01*
X146473359Y-100408592D01*
X146384980Y-100492753D01*
X146281940Y-100558146D01*
X146168162Y-100602277D01*
X146047972Y-100623469D01*
X145925961Y-100620914D01*
X145841087Y-100602253D01*
X145835074Y-100601600D01*
X144598400Y-100601600D01*
X144598400Y-99398400D01*
X145829863Y-99398400D01*
X145835110Y-99397904D01*
X145943328Y-99377260D01*
X146065362Y-99378113D01*
X146065362Y-99378113D01*
G37*
G36*
X125476200Y-100452060D02*
X124726760Y-100452060D01*
X124726760Y-100053140D01*
X125476200Y-100053140D01*
X125476200Y-100452060D01*
X125476200Y-100452060D01*
G37*
G36*
X132275780Y-100449520D02*
X131526340Y-100449520D01*
X131526340Y-100050600D01*
X132275780Y-100050600D01*
X132275780Y-100449520D01*
X132275780Y-100449520D01*
G37*
G36*
X134100000Y-100125000D02*
X133300000Y-100125000D01*
X133300000Y-99525000D01*
X134100000Y-99525000D01*
X134100000Y-100125000D01*
X134100000Y-100125000D01*
G37*
G36*
X137538500Y-99936000D02*
X136206500Y-99936000D01*
X136198699Y-99937109D01*
X136191516Y-99940346D01*
X136185520Y-99945457D01*
X136181185Y-99952036D01*
X136178854Y-99959563D01*
X136178500Y-99964000D01*
X136178500Y-100026000D01*
X135266500Y-100026000D01*
X135266500Y-99469000D01*
X135633500Y-99469000D01*
X135641301Y-99467891D01*
X135648484Y-99464654D01*
X135654480Y-99459543D01*
X135658815Y-99452964D01*
X135661146Y-99445437D01*
X135661500Y-99441000D01*
X135661500Y-99394000D01*
X135660391Y-99386199D01*
X135657154Y-99379016D01*
X135652043Y-99373020D01*
X135645464Y-99368685D01*
X135637937Y-99366354D01*
X135633500Y-99366000D01*
X135266500Y-99366000D01*
X135266500Y-98809000D01*
X135633500Y-98809000D01*
X135641301Y-98807891D01*
X135648484Y-98804654D01*
X135654480Y-98799543D01*
X135658132Y-98794000D01*
X137538500Y-98794000D01*
X137538500Y-99936000D01*
X137538500Y-99936000D01*
G37*
G36*
X139163500Y-100026000D02*
X138021500Y-100026000D01*
X138021500Y-99469000D01*
X139163500Y-99469000D01*
X139163500Y-100026000D01*
X139163500Y-100026000D01*
G37*
G36*
X125476200Y-99951680D02*
X124726760Y-99951680D01*
X124726760Y-99552760D01*
X125476200Y-99552760D01*
X125476200Y-99951680D01*
X125476200Y-99951680D01*
G37*
G36*
X132275780Y-99949140D02*
X131526340Y-99949140D01*
X131526340Y-99550220D01*
X132275780Y-99550220D01*
X132275780Y-99949140D01*
X132275780Y-99949140D01*
G37*
G36*
X140826000Y-99936000D02*
X140074000Y-99936000D01*
X140074000Y-99234000D01*
X140826000Y-99234000D01*
X140826000Y-99936000D01*
X140826000Y-99936000D01*
G37*
G36*
X122827400Y-99752400D02*
X121272600Y-99752400D01*
X121272600Y-98847600D01*
X122827400Y-98847600D01*
X122827400Y-99752400D01*
X122827400Y-99752400D01*
G37*
G36*
X125476200Y-99451300D02*
X124726760Y-99451300D01*
X124726760Y-99052380D01*
X125476200Y-99052380D01*
X125476200Y-99451300D01*
X125476200Y-99451300D01*
G37*
G36*
X132275780Y-99448760D02*
X131526340Y-99448760D01*
X131526340Y-99049840D01*
X132275780Y-99049840D01*
X132275780Y-99448760D01*
X132275780Y-99448760D01*
G37*
G36*
X139163500Y-99366000D02*
X138021500Y-99366000D01*
X138021500Y-98809000D01*
X139163500Y-98809000D01*
X139163500Y-99366000D01*
X139163500Y-99366000D01*
G37*
G36*
X111565362Y-97878113D02*
X111661410Y-97897828D01*
X111667040Y-97898400D01*
X112901600Y-97898400D01*
X112901600Y-99101600D01*
X111674455Y-99101600D01*
X111669593Y-99102025D01*
X111547973Y-99123469D01*
X111425961Y-99120914D01*
X111306766Y-99094707D01*
X111194935Y-99045849D01*
X111094723Y-98976200D01*
X111009947Y-98888412D01*
X110943838Y-98785830D01*
X110898910Y-98672356D01*
X110876880Y-98552324D01*
X110878584Y-98430297D01*
X110903956Y-98310927D01*
X110952036Y-98198751D01*
X111020982Y-98098058D01*
X111108178Y-98012669D01*
X111210295Y-97945846D01*
X111323448Y-97900129D01*
X111443328Y-97877260D01*
X111565362Y-97878113D01*
X111565362Y-97878113D01*
G37*
G36*
X146065362Y-97878113D02*
X146184911Y-97902652D01*
X146297414Y-97949944D01*
X146398588Y-98018186D01*
X146484582Y-98104784D01*
X146552119Y-98206435D01*
X146598624Y-98319263D01*
X146622290Y-98438789D01*
X146622290Y-98438793D01*
X146622327Y-98438980D01*
X146620380Y-98578372D01*
X146620338Y-98578556D01*
X146620338Y-98578565D01*
X146593344Y-98697379D01*
X146543706Y-98808868D01*
X146473359Y-98908592D01*
X146384980Y-98992753D01*
X146281940Y-99058146D01*
X146168162Y-99102277D01*
X146047972Y-99123469D01*
X145925961Y-99120914D01*
X145841087Y-99102253D01*
X145835074Y-99101600D01*
X144598400Y-99101600D01*
X144598400Y-97898400D01*
X145829863Y-97898400D01*
X145835110Y-97897904D01*
X145943328Y-97877260D01*
X146065362Y-97878113D01*
X146065362Y-97878113D01*
G37*
G36*
X125476200Y-98950920D02*
X124726760Y-98950920D01*
X124726760Y-98552000D01*
X125476200Y-98552000D01*
X125476200Y-98950920D01*
X125476200Y-98950920D01*
G37*
G36*
X132275780Y-98948380D02*
X131526340Y-98948380D01*
X131526340Y-98549460D01*
X132275780Y-98549460D01*
X132275780Y-98948380D01*
X132275780Y-98948380D01*
G37*
G36*
X136178500Y-97551000D02*
X136179609Y-97558801D01*
X136182846Y-97565984D01*
X136187957Y-97571980D01*
X136194536Y-97576315D01*
X136202063Y-97578646D01*
X136206500Y-97579000D01*
X137538500Y-97579000D01*
X137538500Y-98721000D01*
X135658048Y-98721000D01*
X135657154Y-98719016D01*
X135652043Y-98713020D01*
X135645464Y-98708685D01*
X135637937Y-98706354D01*
X135633500Y-98706000D01*
X135266500Y-98706000D01*
X135266500Y-98149000D01*
X135633500Y-98149000D01*
X135641301Y-98147891D01*
X135648484Y-98144654D01*
X135654480Y-98139543D01*
X135658815Y-98132964D01*
X135661146Y-98125437D01*
X135661500Y-98121000D01*
X135661500Y-98074000D01*
X135660391Y-98066199D01*
X135657154Y-98059016D01*
X135652043Y-98053020D01*
X135645464Y-98048685D01*
X135637937Y-98046354D01*
X135633500Y-98046000D01*
X135266500Y-98046000D01*
X135266500Y-97489000D01*
X136178500Y-97489000D01*
X136178500Y-97551000D01*
X136178500Y-97551000D01*
G37*
G36*
X139163500Y-98706000D02*
X138021500Y-98706000D01*
X138021500Y-98149000D01*
X139163500Y-98149000D01*
X139163500Y-98706000D01*
X139163500Y-98706000D01*
G37*
G36*
X125476200Y-98450540D02*
X124726760Y-98450540D01*
X124726760Y-98051620D01*
X125476200Y-98051620D01*
X125476200Y-98450540D01*
X125476200Y-98450540D01*
G37*
G36*
X132275780Y-98448000D02*
X131526340Y-98448000D01*
X131526340Y-98049080D01*
X132275780Y-98049080D01*
X132275780Y-98448000D01*
X132275780Y-98448000D01*
G37*
G36*
X122827400Y-98202400D02*
X121272600Y-98202400D01*
X121272600Y-97297600D01*
X122827400Y-97297600D01*
X122827400Y-98202400D01*
X122827400Y-98202400D01*
G37*
G36*
X139163500Y-98046000D02*
X138021500Y-98046000D01*
X138021500Y-97489000D01*
X139163500Y-97489000D01*
X139163500Y-98046000D01*
X139163500Y-98046000D01*
G37*
G36*
X125476200Y-97950160D02*
X124726760Y-97950160D01*
X124726760Y-97551240D01*
X125476200Y-97551240D01*
X125476200Y-97950160D01*
X125476200Y-97950160D01*
G37*
G36*
X132275780Y-97947620D02*
X131526340Y-97947620D01*
X131526340Y-97548700D01*
X132275780Y-97548700D01*
X132275780Y-97947620D01*
X132275780Y-97947620D01*
G37*
G36*
X134100000Y-97850000D02*
X133300000Y-97850000D01*
X133300000Y-97250000D01*
X134100000Y-97250000D01*
X134100000Y-97850000D01*
X134100000Y-97850000D01*
G37*
G36*
X143527400Y-97752400D02*
X141972600Y-97752400D01*
X141972600Y-96847600D01*
X143527400Y-96847600D01*
X143527400Y-97752400D01*
X143527400Y-97752400D01*
G37*
G36*
X145677400Y-97752400D02*
X144122600Y-97752400D01*
X144122600Y-96847600D01*
X145677400Y-96847600D01*
X145677400Y-97752400D01*
X145677400Y-97752400D01*
G37*
G36*
X119901480Y-97550260D02*
X113998520Y-97550260D01*
X113998520Y-95548740D01*
X119901480Y-95548740D01*
X119901480Y-97550260D01*
X119901480Y-97550260D01*
G37*
G36*
X141216000Y-97526000D02*
X140514000Y-97526000D01*
X140514000Y-96774000D01*
X141216000Y-96774000D01*
X141216000Y-97526000D01*
X141216000Y-97526000D01*
G37*
G36*
X140386000Y-97526000D02*
X139684000Y-97526000D01*
X139684000Y-96774000D01*
X140386000Y-96774000D01*
X140386000Y-97526000D01*
X140386000Y-97526000D01*
G37*
G36*
X125476200Y-97452320D02*
X124726760Y-97452320D01*
X124726760Y-97053400D01*
X125476200Y-97053400D01*
X125476200Y-97452320D01*
X125476200Y-97452320D01*
G37*
G36*
X132273240Y-97447240D02*
X131523800Y-97447240D01*
X131523800Y-97048320D01*
X132273240Y-97048320D01*
X132273240Y-97447240D01*
X132273240Y-97447240D01*
G37*
G36*
X134100000Y-97050000D02*
X133300000Y-97050000D01*
X133300000Y-96450000D01*
X134100000Y-96450000D01*
X134100000Y-97050000D01*
X134100000Y-97050000D01*
G37*
G36*
X125476200Y-96951940D02*
X124726760Y-96951940D01*
X124726760Y-96553020D01*
X125476200Y-96553020D01*
X125476200Y-96951940D01*
X125476200Y-96951940D01*
G37*
G36*
X132273240Y-96949400D02*
X131523800Y-96949400D01*
X131523800Y-96550480D01*
X132273240Y-96550480D01*
X132273240Y-96949400D01*
X132273240Y-96949400D01*
G37*
G36*
X125476200Y-96451560D02*
X124726760Y-96451560D01*
X124726760Y-96052640D01*
X125476200Y-96052640D01*
X125476200Y-96451560D01*
X125476200Y-96451560D01*
G37*
G36*
X132273240Y-96449020D02*
X131523800Y-96449020D01*
X131523800Y-96050100D01*
X132273240Y-96050100D01*
X132273240Y-96449020D01*
X132273240Y-96449020D01*
G37*
G36*
X122827400Y-96402400D02*
X121272600Y-96402400D01*
X121272600Y-95497600D01*
X122827400Y-95497600D01*
X122827400Y-96402400D01*
X122827400Y-96402400D01*
G37*
G36*
X141550760Y-96201480D02*
X139549240Y-96201480D01*
X139549240Y-90298520D01*
X141550760Y-90298520D01*
X141550760Y-96201480D01*
X141550760Y-96201480D01*
G37*
G36*
X136851760Y-96201480D02*
X134850240Y-96201480D01*
X134850240Y-90298520D01*
X136851760Y-90298520D01*
X136851760Y-96201480D01*
X136851760Y-96201480D01*
G37*
G36*
X145677400Y-95952400D02*
X144122600Y-95952400D01*
X144122600Y-95047600D01*
X145677400Y-95047600D01*
X145677400Y-95952400D01*
X145677400Y-95952400D01*
G37*
G36*
X143527400Y-95952400D02*
X141972600Y-95952400D01*
X141972600Y-95047600D01*
X143527400Y-95047600D01*
X143527400Y-95952400D01*
X143527400Y-95952400D01*
G37*
G36*
X125476200Y-95951180D02*
X124726760Y-95951180D01*
X124726760Y-95552260D01*
X125476200Y-95552260D01*
X125476200Y-95951180D01*
X125476200Y-95951180D01*
G37*
G36*
X132273240Y-95948640D02*
X131523800Y-95948640D01*
X131523800Y-95549720D01*
X132273240Y-95549720D01*
X132273240Y-95948640D01*
X132273240Y-95948640D01*
G37*
G36*
X134377400Y-95552400D02*
X132822600Y-95552400D01*
X132822600Y-94647600D01*
X134377400Y-94647600D01*
X134377400Y-95552400D01*
X134377400Y-95552400D01*
G37*
G36*
X127449780Y-95476200D02*
X127050860Y-95476200D01*
X127050860Y-94726760D01*
X127449780Y-94726760D01*
X127449780Y-95476200D01*
X127449780Y-95476200D01*
G37*
G36*
X127950160Y-95476200D02*
X127551240Y-95476200D01*
X127551240Y-94726760D01*
X127950160Y-94726760D01*
X127950160Y-95476200D01*
X127950160Y-95476200D01*
G37*
G36*
X128450540Y-95476200D02*
X128051620Y-95476200D01*
X128051620Y-94726760D01*
X128450540Y-94726760D01*
X128450540Y-95476200D01*
X128450540Y-95476200D01*
G37*
G36*
X126949400Y-95476200D02*
X126550480Y-95476200D01*
X126550480Y-94726760D01*
X126949400Y-94726760D01*
X126949400Y-95476200D01*
X126949400Y-95476200D01*
G37*
G36*
X128950920Y-95476200D02*
X128552000Y-95476200D01*
X128552000Y-94726760D01*
X128950920Y-94726760D01*
X128950920Y-95476200D01*
X128950920Y-95476200D01*
G37*
G36*
X129451300Y-95476200D02*
X129052380Y-95476200D01*
X129052380Y-94726760D01*
X129451300Y-94726760D01*
X129451300Y-95476200D01*
X129451300Y-95476200D01*
G37*
G36*
X129951680Y-95476200D02*
X129552760Y-95476200D01*
X129552760Y-94726760D01*
X129951680Y-94726760D01*
X129951680Y-95476200D01*
X129951680Y-95476200D01*
G37*
G36*
X130449520Y-95476200D02*
X130050600Y-95476200D01*
X130050600Y-94726760D01*
X130449520Y-94726760D01*
X130449520Y-95476200D01*
X130449520Y-95476200D01*
G37*
G36*
X126451560Y-95476200D02*
X126052640Y-95476200D01*
X126052640Y-94726760D01*
X126451560Y-94726760D01*
X126451560Y-95476200D01*
X126451560Y-95476200D01*
G37*
G36*
X130949900Y-95476200D02*
X130550980Y-95476200D01*
X130550980Y-94726760D01*
X130949900Y-94726760D01*
X130949900Y-95476200D01*
X130949900Y-95476200D01*
G37*
G36*
X125951180Y-95476200D02*
X125552260Y-95476200D01*
X125552260Y-94726760D01*
X125951180Y-94726760D01*
X125951180Y-95476200D01*
X125951180Y-95476200D01*
G37*
G36*
X131450280Y-95476200D02*
X131051360Y-95476200D01*
X131051360Y-94726760D01*
X131450280Y-94726760D01*
X131450280Y-95476200D01*
X131450280Y-95476200D01*
G37*
G36*
X124150000Y-95100000D02*
X123350000Y-95100000D01*
X123350000Y-94500000D01*
X124150000Y-94500000D01*
X124150000Y-95100000D01*
X124150000Y-95100000D01*
G37*
G36*
X111565362Y-93378113D02*
X111661410Y-93397828D01*
X111667040Y-93398400D01*
X112901600Y-93398400D01*
X112901600Y-94601600D01*
X111674455Y-94601600D01*
X111669593Y-94602025D01*
X111547973Y-94623469D01*
X111425961Y-94620914D01*
X111306766Y-94594707D01*
X111194935Y-94545849D01*
X111094723Y-94476200D01*
X111009947Y-94388412D01*
X110943838Y-94285830D01*
X110898910Y-94172356D01*
X110876880Y-94052324D01*
X110878584Y-93930297D01*
X110903956Y-93810927D01*
X110952036Y-93698751D01*
X111020982Y-93598058D01*
X111108178Y-93512669D01*
X111210295Y-93445846D01*
X111323448Y-93400129D01*
X111443328Y-93377260D01*
X111565362Y-93378113D01*
X111565362Y-93378113D01*
G37*
G36*
X146065362Y-93378113D02*
X146184911Y-93402652D01*
X146297414Y-93449944D01*
X146398588Y-93518186D01*
X146484582Y-93604784D01*
X146552119Y-93706435D01*
X146598624Y-93819263D01*
X146622290Y-93938789D01*
X146622290Y-93938793D01*
X146622327Y-93938980D01*
X146620380Y-94078372D01*
X146620338Y-94078556D01*
X146620338Y-94078565D01*
X146593344Y-94197379D01*
X146543706Y-94308868D01*
X146473359Y-94408592D01*
X146384980Y-94492753D01*
X146281940Y-94558146D01*
X146168162Y-94602277D01*
X146047972Y-94623469D01*
X145925961Y-94620914D01*
X145841087Y-94602253D01*
X145835074Y-94601600D01*
X144598400Y-94601600D01*
X144598400Y-93398400D01*
X145829863Y-93398400D01*
X145835110Y-93397904D01*
X145943328Y-93377260D01*
X146065362Y-93378113D01*
X146065362Y-93378113D01*
G37*
G36*
X122352400Y-94602400D02*
X121247600Y-94602400D01*
X121247600Y-93697600D01*
X122352400Y-93697600D01*
X122352400Y-94602400D01*
X122352400Y-94602400D01*
G37*
G36*
X124150000Y-94300000D02*
X123350000Y-94300000D01*
X123350000Y-93700000D01*
X124150000Y-93700000D01*
X124150000Y-94300000D01*
X124150000Y-94300000D01*
G37*
G36*
X130576000Y-93766000D02*
X129824000Y-93766000D01*
X129824000Y-93064000D01*
X130576000Y-93064000D01*
X130576000Y-93766000D01*
X130576000Y-93766000D01*
G37*
G36*
X134377400Y-93752400D02*
X132822600Y-93752400D01*
X132822600Y-92847600D01*
X134377400Y-92847600D01*
X134377400Y-93752400D01*
X134377400Y-93752400D01*
G37*
G36*
X127950000Y-93750000D02*
X127150000Y-93750000D01*
X127150000Y-93150000D01*
X127950000Y-93150000D01*
X127950000Y-93750000D01*
X127950000Y-93750000D01*
G37*
G36*
X129250000Y-93450000D02*
X128450000Y-93450000D01*
X128450000Y-92850000D01*
X129250000Y-92850000D01*
X129250000Y-93450000D01*
X129250000Y-93450000D01*
G37*
G36*
X122352400Y-93302400D02*
X121247600Y-93302400D01*
X121247600Y-92397600D01*
X122352400Y-92397600D01*
X122352400Y-93302400D01*
X122352400Y-93302400D01*
G37*
G36*
X126376000Y-93166000D02*
X125624000Y-93166000D01*
X125624000Y-92464000D01*
X126376000Y-92464000D01*
X126376000Y-93166000D01*
X126376000Y-93166000D01*
G37*
G36*
X146065362Y-91878113D02*
X146184911Y-91902652D01*
X146297414Y-91949944D01*
X146398588Y-92018186D01*
X146484582Y-92104784D01*
X146552119Y-92206435D01*
X146598624Y-92319263D01*
X146622290Y-92438789D01*
X146622290Y-92438793D01*
X146622327Y-92438980D01*
X146620380Y-92578372D01*
X146620338Y-92578556D01*
X146620338Y-92578565D01*
X146593344Y-92697379D01*
X146543706Y-92808868D01*
X146473359Y-92908592D01*
X146384980Y-92992753D01*
X146281940Y-93058146D01*
X146168162Y-93102277D01*
X146047972Y-93123469D01*
X145925961Y-93120914D01*
X145841087Y-93102253D01*
X145835074Y-93101600D01*
X144598400Y-93101600D01*
X144598400Y-91898400D01*
X145829863Y-91898400D01*
X145835110Y-91897904D01*
X145943328Y-91877260D01*
X146065362Y-91878113D01*
X146065362Y-91878113D01*
G37*
G36*
X111565362Y-91878113D02*
X111661410Y-91897828D01*
X111667040Y-91898400D01*
X112901600Y-91898400D01*
X112901600Y-93101600D01*
X111674455Y-93101600D01*
X111669593Y-93102025D01*
X111547973Y-93123469D01*
X111425961Y-93120914D01*
X111306766Y-93094707D01*
X111194935Y-93045849D01*
X111094723Y-92976200D01*
X111009947Y-92888412D01*
X110943838Y-92785830D01*
X110898910Y-92672356D01*
X110876880Y-92552324D01*
X110878584Y-92430297D01*
X110903956Y-92310927D01*
X110952036Y-92198751D01*
X111020982Y-92098058D01*
X111108178Y-92012669D01*
X111210295Y-91945846D01*
X111323448Y-91900129D01*
X111443328Y-91877260D01*
X111565362Y-91878113D01*
X111565362Y-91878113D01*
G37*
G36*
X132076000Y-92966000D02*
X131324000Y-92966000D01*
X131324000Y-92264000D01*
X132076000Y-92264000D01*
X132076000Y-92966000D01*
X132076000Y-92966000D01*
G37*
G36*
X127950000Y-92950000D02*
X127150000Y-92950000D01*
X127150000Y-92350000D01*
X127950000Y-92350000D01*
X127950000Y-92950000D01*
X127950000Y-92950000D01*
G37*
G36*
X130576000Y-92936000D02*
X129824000Y-92936000D01*
X129824000Y-92234000D01*
X130576000Y-92234000D01*
X130576000Y-92936000D01*
X130576000Y-92936000D01*
G37*
G36*
X114565362Y-88878113D02*
X114684911Y-88902652D01*
X114797414Y-88949944D01*
X114898588Y-89018186D01*
X114984582Y-89104784D01*
X115052119Y-89206435D01*
X115098624Y-89319263D01*
X115122290Y-89438789D01*
X115122290Y-89438793D01*
X115122327Y-89438980D01*
X115120380Y-89578372D01*
X115120338Y-89578556D01*
X115120338Y-89578565D01*
X115102296Y-89657978D01*
X115101600Y-89664181D01*
X115101600Y-90821740D01*
X115102709Y-90829541D01*
X115105946Y-90836724D01*
X115111057Y-90842720D01*
X115117636Y-90847055D01*
X115125163Y-90849386D01*
X115129600Y-90849740D01*
X119901480Y-90849740D01*
X119901480Y-92851260D01*
X113998520Y-92851260D01*
X113998520Y-90929600D01*
X113997411Y-90921799D01*
X113994174Y-90914616D01*
X113989063Y-90908620D01*
X113982484Y-90904285D01*
X113974957Y-90901954D01*
X113970520Y-90901600D01*
X113898400Y-90901600D01*
X113898400Y-89672126D01*
X113897940Y-89667072D01*
X113876880Y-89552324D01*
X113878584Y-89430297D01*
X113903956Y-89310927D01*
X113952036Y-89198751D01*
X114020982Y-89098058D01*
X114108178Y-89012669D01*
X114210295Y-88945846D01*
X114323448Y-88900129D01*
X114443328Y-88877260D01*
X114565362Y-88878113D01*
X114565362Y-88878113D01*
G37*
G36*
X129250000Y-92650000D02*
X128450000Y-92650000D01*
X128450000Y-92050000D01*
X129250000Y-92050000D01*
X129250000Y-92650000D01*
X129250000Y-92650000D01*
G37*
G36*
X123900000Y-92400000D02*
X123300000Y-92400000D01*
X123300000Y-91600000D01*
X123900000Y-91600000D01*
X123900000Y-92400000D01*
X123900000Y-92400000D01*
G37*
G36*
X124700000Y-92400000D02*
X124100000Y-92400000D01*
X124100000Y-91600000D01*
X124700000Y-91600000D01*
X124700000Y-92400000D01*
X124700000Y-92400000D01*
G37*
G36*
X126376000Y-92336000D02*
X125624000Y-92336000D01*
X125624000Y-91634000D01*
X126376000Y-91634000D01*
X126376000Y-92336000D01*
X126376000Y-92336000D01*
G37*
G36*
X134400000Y-92300000D02*
X133800000Y-92300000D01*
X133800000Y-91500000D01*
X134400000Y-91500000D01*
X134400000Y-92300000D01*
X134400000Y-92300000D01*
G37*
G36*
X133600000Y-92300000D02*
X133000000Y-92300000D01*
X133000000Y-91500000D01*
X133600000Y-91500000D01*
X133600000Y-92300000D01*
X133600000Y-92300000D01*
G37*
G36*
X132076000Y-92136000D02*
X131324000Y-92136000D01*
X131324000Y-91434000D01*
X132076000Y-91434000D01*
X132076000Y-92136000D01*
X132076000Y-92136000D01*
G37*
G36*
X126066000Y-91076000D02*
X125364000Y-91076000D01*
X125364000Y-90324000D01*
X126066000Y-90324000D01*
X126066000Y-91076000D01*
X126066000Y-91076000D01*
G37*
G36*
X125236000Y-91076000D02*
X124534000Y-91076000D01*
X124534000Y-90324000D01*
X125236000Y-90324000D01*
X125236000Y-91076000D01*
X125236000Y-91076000D01*
G37*
G36*
X132266000Y-90976000D02*
X131564000Y-90976000D01*
X131564000Y-90224000D01*
X132266000Y-90224000D01*
X132266000Y-90976000D01*
X132266000Y-90976000D01*
G37*
G36*
X130081000Y-90976000D02*
X129379000Y-90976000D01*
X129379000Y-90224000D01*
X130081000Y-90224000D01*
X130081000Y-90976000D01*
X130081000Y-90976000D01*
G37*
G36*
X129251000Y-90976000D02*
X128549000Y-90976000D01*
X128549000Y-90224000D01*
X129251000Y-90224000D01*
X129251000Y-90976000D01*
X129251000Y-90976000D01*
G37*
G36*
X127236000Y-90976000D02*
X126534000Y-90976000D01*
X126534000Y-90224000D01*
X127236000Y-90224000D01*
X127236000Y-90976000D01*
X127236000Y-90976000D01*
G37*
G36*
X128066000Y-90976000D02*
X127364000Y-90976000D01*
X127364000Y-90224000D01*
X128066000Y-90224000D01*
X128066000Y-90976000D01*
X128066000Y-90976000D01*
G37*
G36*
X131436000Y-90976000D02*
X130734000Y-90976000D01*
X130734000Y-90224000D01*
X131436000Y-90224000D01*
X131436000Y-90976000D01*
X131436000Y-90976000D01*
G37*
G36*
X143065362Y-88878113D02*
X143184911Y-88902652D01*
X143297414Y-88949944D01*
X143398588Y-89018186D01*
X143484582Y-89104784D01*
X143552119Y-89206435D01*
X143598624Y-89319263D01*
X143622290Y-89438789D01*
X143622290Y-89438793D01*
X143622327Y-89438980D01*
X143620380Y-89578372D01*
X143620338Y-89578556D01*
X143620338Y-89578565D01*
X143602296Y-89657978D01*
X143601600Y-89664181D01*
X143601600Y-90901600D01*
X142398400Y-90901600D01*
X142398400Y-89672126D01*
X142397940Y-89667072D01*
X142376880Y-89552324D01*
X142378584Y-89430297D01*
X142403956Y-89310927D01*
X142452036Y-89198751D01*
X142520982Y-89098058D01*
X142608178Y-89012669D01*
X142710295Y-88945846D01*
X142823448Y-88900129D01*
X142943328Y-88877260D01*
X143065362Y-88878113D01*
X143065362Y-88878113D01*
G37*
G36*
X144565362Y-88878113D02*
X144684911Y-88902652D01*
X144797414Y-88949944D01*
X144898588Y-89018186D01*
X144984582Y-89104784D01*
X145052119Y-89206435D01*
X145098624Y-89319263D01*
X145122290Y-89438789D01*
X145122290Y-89438793D01*
X145122327Y-89438980D01*
X145120380Y-89578372D01*
X145120338Y-89578556D01*
X145120338Y-89578565D01*
X145102296Y-89657978D01*
X145101600Y-89664181D01*
X145101600Y-90901600D01*
X143898400Y-90901600D01*
X143898400Y-89672126D01*
X143897940Y-89667072D01*
X143876880Y-89552324D01*
X143878584Y-89430297D01*
X143903956Y-89310927D01*
X143952036Y-89198751D01*
X144020982Y-89098058D01*
X144108178Y-89012669D01*
X144210295Y-88945846D01*
X144323448Y-88900129D01*
X144443328Y-88877260D01*
X144565362Y-88878113D01*
X144565362Y-88878113D01*
G37*
G36*
X113065362Y-88878113D02*
X113184911Y-88902652D01*
X113297414Y-88949944D01*
X113398588Y-89018186D01*
X113484582Y-89104784D01*
X113552119Y-89206435D01*
X113598624Y-89319263D01*
X113622290Y-89438789D01*
X113622290Y-89438793D01*
X113622327Y-89438980D01*
X113620380Y-89578372D01*
X113620338Y-89578556D01*
X113620338Y-89578565D01*
X113602296Y-89657978D01*
X113601600Y-89664181D01*
X113601600Y-90901600D01*
X112398400Y-90901600D01*
X112398400Y-89672126D01*
X112397940Y-89667072D01*
X112376880Y-89552324D01*
X112378584Y-89430297D01*
X112403956Y-89310927D01*
X112452036Y-89198751D01*
X112520982Y-89098058D01*
X112608178Y-89012669D01*
X112710295Y-88945846D01*
X112823448Y-88900129D01*
X112943328Y-88877260D01*
X113065362Y-88878113D01*
X113065362Y-88878113D01*
G37*
G36*
X122065362Y-88878113D02*
X122184911Y-88902652D01*
X122297414Y-88949944D01*
X122398588Y-89018186D01*
X122484582Y-89104784D01*
X122552119Y-89206435D01*
X122598624Y-89319263D01*
X122622290Y-89438789D01*
X122622290Y-89438793D01*
X122622327Y-89438980D01*
X122620380Y-89578372D01*
X122620338Y-89578556D01*
X122620338Y-89578565D01*
X122602296Y-89657978D01*
X122601600Y-89664181D01*
X122601600Y-90901600D01*
X121398400Y-90901600D01*
X121398400Y-89672126D01*
X121397940Y-89667072D01*
X121376880Y-89552324D01*
X121378584Y-89430297D01*
X121403956Y-89310927D01*
X121452036Y-89198751D01*
X121520982Y-89098058D01*
X121608178Y-89012669D01*
X121710295Y-88945846D01*
X121823448Y-88900129D01*
X121943328Y-88877260D01*
X122065362Y-88878113D01*
X122065362Y-88878113D01*
G37*
G36*
X123565362Y-88878113D02*
X123684911Y-88902652D01*
X123797414Y-88949944D01*
X123898588Y-89018186D01*
X123984582Y-89104784D01*
X124052119Y-89206435D01*
X124098624Y-89319263D01*
X124122290Y-89438789D01*
X124122290Y-89438793D01*
X124122327Y-89438980D01*
X124120380Y-89578372D01*
X124120338Y-89578556D01*
X124120338Y-89578565D01*
X124102296Y-89657978D01*
X124101600Y-89664181D01*
X124101600Y-90901600D01*
X122898400Y-90901600D01*
X122898400Y-89672126D01*
X122897940Y-89667072D01*
X122876880Y-89552324D01*
X122878584Y-89430297D01*
X122903956Y-89310927D01*
X122952036Y-89198751D01*
X123020982Y-89098058D01*
X123108178Y-89012669D01*
X123210295Y-88945846D01*
X123323448Y-88900129D01*
X123443328Y-88877260D01*
X123565362Y-88878113D01*
X123565362Y-88878113D01*
G37*
M02*
