G04 #@! TF.FileFunction,Paste,Top*
%FSLAX46Y46*%
G04 Gerber Fmt 4.6, Leading zero omitted, Abs format (unit mm)*
G04 Created by KiCad (PCBNEW (2015-09-15 BZR 13, Git 37c8462)-brewed_product) date Thursday, 17 September 2015 'pmt' 19:06:45*
%MOMM*%
G01*
G04 APERTURE LIST*
%ADD10C,0.020000*%
%ADD11R,0.520000X0.320000*%
%ADD12R,0.320000X0.520000*%
%ADD13R,1.170000X0.520000*%
%ADD14R,0.720000X0.520000*%
%ADD15R,1.718320X5.619760*%
%ADD16R,5.619760X1.718320*%
%ADD17R,0.910000X0.325000*%
%ADD18R,1.645000X0.910000*%
%ADD19R,0.680000X0.325000*%
%ADD20R,0.470000X0.520000*%
%ADD21R,0.520000X0.470000*%
%ADD22R,0.519440X0.168920*%
%ADD23R,0.168920X0.519440*%
%ADD24O,4.920000X0.520000*%
%ADD25O,4.920000X0.220000*%
%ADD26O,0.920000X0.720000*%
G04 APERTURE END LIST*
D10*
D11*
X133700000Y-97550000D03*
X133700000Y-96750000D03*
X133700000Y-100625000D03*
X133700000Y-99825000D03*
X123750000Y-94800000D03*
X123750000Y-94000000D03*
X123700000Y-102300000D03*
X123700000Y-103100000D03*
D12*
X133300000Y-91900000D03*
X134100000Y-91900000D03*
D11*
X131650000Y-104200000D03*
X131650000Y-103400000D03*
D12*
X124400000Y-92000000D03*
X123600000Y-92000000D03*
D11*
X125100000Y-104800000D03*
X125100000Y-104000000D03*
D13*
X133600000Y-95100000D03*
X133600000Y-93300000D03*
X133600000Y-102050000D03*
X133600000Y-103850000D03*
X122050000Y-97750000D03*
X122050000Y-95950000D03*
X122050000Y-99300000D03*
X122050000Y-101100000D03*
X144900000Y-95500000D03*
X144900000Y-97300000D03*
X142750000Y-103100000D03*
X142750000Y-101300000D03*
X142750000Y-95500000D03*
X142750000Y-97300000D03*
X144900000Y-103100000D03*
X144900000Y-101300000D03*
D14*
X121800000Y-92850000D03*
X121800000Y-94150000D03*
X121800000Y-104200000D03*
X121800000Y-102900000D03*
D11*
X128850000Y-92350000D03*
X128850000Y-93150000D03*
X127550000Y-93450000D03*
X127550000Y-92650000D03*
D15*
X140550000Y-93250000D03*
X135851000Y-93250000D03*
X140549500Y-104150000D03*
X135850500Y-104150000D03*
D16*
X116950000Y-91850500D03*
X116950000Y-96549500D03*
X117000000Y-106199000D03*
X117000000Y-101500000D03*
D17*
X138592500Y-99747500D03*
X138592500Y-99087500D03*
X138592500Y-98427500D03*
X138592500Y-97767500D03*
D18*
X136600000Y-99365000D03*
X136600000Y-98150000D03*
D19*
X135722500Y-97767500D03*
X135722500Y-98427500D03*
X135722500Y-99087500D03*
X135722500Y-99747500D03*
D20*
X140865000Y-97150000D03*
X140035000Y-97150000D03*
D21*
X140450000Y-99585000D03*
X140450000Y-100415000D03*
X131700000Y-91785000D03*
X131700000Y-92615000D03*
X130250000Y-103335000D03*
X130250000Y-104165000D03*
X126000000Y-92815000D03*
X126000000Y-91985000D03*
X126450000Y-103985000D03*
X126450000Y-104815000D03*
D20*
X129730000Y-90600000D03*
X128900000Y-90600000D03*
X131830000Y-105500000D03*
X131000000Y-105500000D03*
X126885000Y-90600000D03*
X127715000Y-90600000D03*
D21*
X123450000Y-105665000D03*
X123450000Y-104835000D03*
D20*
X131915000Y-90600000D03*
X131085000Y-90600000D03*
X133915000Y-105200000D03*
X133085000Y-105200000D03*
X124885000Y-90700000D03*
X125715000Y-90700000D03*
D21*
X121700000Y-106600000D03*
X121700000Y-105770000D03*
X130200000Y-92585000D03*
X130200000Y-93415000D03*
D22*
X125101480Y-95751720D03*
X125101480Y-96252100D03*
X125101480Y-96752480D03*
X125101480Y-97252860D03*
X125101480Y-97750700D03*
X125101480Y-98251080D03*
X125101480Y-98751460D03*
X125101480Y-99251840D03*
X125101480Y-99752220D03*
X125101480Y-100252600D03*
X125101480Y-100752980D03*
X125101480Y-101250820D03*
X131898520Y-97247780D03*
X131898520Y-96749940D03*
X131898520Y-96249560D03*
X131898520Y-95749180D03*
D23*
X127750700Y-101901060D03*
X128250000Y-101900000D03*
X128748920Y-101901060D03*
X129249300Y-101901060D03*
X129749680Y-101901060D03*
X130250060Y-101901060D03*
X130750440Y-101901060D03*
X131250820Y-101901060D03*
X125751720Y-101901060D03*
X126252100Y-101901060D03*
X126752480Y-101901060D03*
X127250320Y-101901060D03*
D22*
X131898520Y-101248280D03*
X131901060Y-100747900D03*
X131901060Y-100250060D03*
X131901060Y-99749680D03*
X131901060Y-99249300D03*
X131901060Y-98748920D03*
X131901060Y-98248540D03*
X131901060Y-97748160D03*
D23*
X131250820Y-95101480D03*
X130750440Y-95101480D03*
X130250060Y-95101480D03*
X129752220Y-95101480D03*
X129251840Y-95101480D03*
X128751460Y-95101480D03*
X128251080Y-95101480D03*
X127750700Y-95101480D03*
X127250320Y-95101480D03*
X126749940Y-95101480D03*
X126252100Y-95101480D03*
X125751720Y-95101480D03*
D24*
X128500000Y-97000000D03*
X128500000Y-98000000D03*
X128500000Y-99000000D03*
X128500000Y-100000000D03*
D25*
X128500000Y-96150000D03*
X128500000Y-100850000D03*
D26*
X128000000Y-97000000D03*
X128000000Y-98000000D03*
X129000000Y-97000000D03*
X129000000Y-98000000D03*
X129000000Y-99000000D03*
X128000000Y-99000000D03*
X128000000Y-100000000D03*
X129000000Y-100000000D03*
X127000000Y-100000000D03*
X127000000Y-99000000D03*
X127000000Y-98000000D03*
X127000000Y-97000000D03*
X130000000Y-97000000D03*
X130000000Y-98000000D03*
X130000000Y-99000000D03*
X130000000Y-100000000D03*
M02*
